<svg id="Capa_1" data-name="Capa 1" xmlns="http://www.w3.org/2000/svg" viewBox="0 0 399.78 512"><defs><style>.cls-1{fill:#77b5d8;}</style></defs><title>11</title><path class="cls-1" d="M448.38,134.85a7.51,7.51,0,0,0,7.51-7.51V23.55A23.57,23.57,0,0,0,432.34,0H79.66A23.57,23.57,0,0,0,56.11,23.55v464.9A23.57,23.57,0,0,0,79.66,512H432.34a23.57,23.57,0,0,0,23.55-23.55V164.11a7.52,7.52,0,0,0-15,0V488.45a8.53,8.53,0,0,1-8.52,8.52H79.66a8.53,8.53,0,0,1-8.52-8.52V23.55A8.53,8.53,0,0,1,79.66,15H432.34a8.53,8.53,0,0,1,8.52,8.52V127.34A7.52,7.52,0,0,0,448.38,134.85Z" transform="translate(-56.11)"/><path class="cls-1" d="M312.61,271.53v24.55a7.52,7.52,0,0,0,7.52,7.51h32.06a7.51,7.51,0,0,0,7.51-7.51V103.7a31.6,31.6,0,0,0-31.56-31.56H183.86A31.6,31.6,0,0,0,152.3,103.7V296.08a7.51,7.51,0,0,0,7.51,7.51h32.06a7.52,7.52,0,0,0,7.52-7.51V271.53Zm-145.28-15V207.41h49.09V256.5Zm0-129.25H344.67v65.13H167.33Zm64.12,80.16h49.1v17h-49.1Zm64.13,0h49.09V256.5H295.58Zm49.09,81.15h-17v-17h17ZM183.86,87.17H328.14a16.55,16.55,0,0,1,16.53,16.53v8.52H167.33V103.7A16.55,16.55,0,0,1,183.86,87.17Zm.5,201.39h-17v-17h17Zm47.09-32.06v-17h49.1v17Z" transform="translate(-56.11)"/><circle class="cls-1" cx="264.02" cy="231.95" r="7.51"/><circle class="cls-1" cx="135.26" cy="231.95" r="7.51"/><path class="cls-1" d="M175.84,344.67a7.52,7.52,0,0,0-7.51,7.52v54L157.11,395a7.52,7.52,0,0,0-10.63,10.63l24.05,24a7.58,7.58,0,0,0,10.63,0l24-24A7.51,7.51,0,0,0,194.58,395l-11.22,11.22v-54A7.52,7.52,0,0,0,175.84,344.67Z" transform="translate(-56.11)"/><path class="cls-1" d="M256,344.67a7.52,7.52,0,0,0-7.51,7.52v54L237.27,395a7.52,7.52,0,1,0-10.63,10.63l24.05,24a7.57,7.57,0,0,0,10.62,0l24.05-24A7.52,7.52,0,0,0,274.73,395l-11.22,11.22v-54A7.52,7.52,0,0,0,256,344.67Z" transform="translate(-56.11)"/><path class="cls-1" d="M330.84,429.64a7.58,7.58,0,0,0,10.63,0l24-24A7.52,7.52,0,0,0,354.89,395l-11.22,11.22v-54a7.52,7.52,0,1,0-15,0v54L317.42,395A7.51,7.51,0,0,0,306.8,405.6Z" transform="translate(-56.11)"/></svg>