<svg id="Capa_1" data-name="Capa 1" xmlns="http://www.w3.org/2000/svg" viewBox="0 0 428.45 428.43"><defs><style>.cls-1{fill:#77b5d8;}</style></defs><title>9</title><path class="cls-1" d="M380.05,350.94c75.22-91.33,62.16-226.34-29.17-301.56a214.23,214.23,0,0,0-272.34,0,6.1,6.1,0,0,0,7.77,9.41C172.37-12.24,299.68,0,370.68,86a202,202,0,0,1,0,257.14,6.11,6.11,0,0,0,.38,8.2c.14.14.29.27.44.4A6.11,6.11,0,0,0,380.05,350.94Z" transform="translate(-0.47 -0.52)"/><path class="cls-1" d="M351.91,371.32a6.11,6.11,0,0,0-8.59-.81c-86,71.1-213.3,59-284.4-26.93a202,202,0,0,1-.13-257.31,6.11,6.11,0,1,0-9.26-8c-.05.06-.11.12-.16.19C-25.87,169.8-12.84,304.82,78.48,380.06a214.23,214.23,0,0,0,272.62-.14A6.11,6.11,0,0,0,351.91,371.32Z" transform="translate(-0.47 -0.52)"/><path class="cls-1" d="M226.72,139.72H194.63a4.91,4.91,0,0,0-4.91,4.91h0V214a4.91,4.91,0,0,0,4.91,4.91h32.09c22.24,0,35-13.8,35-37.86v-3.44C261.72,153.55,249,139.72,226.72,139.72ZM251.9,181c0,18.6-8.47,28-25.18,28H199.54V149.57h27.18c16.71,0,25.18,9.44,25.18,28Z" transform="translate(-0.47 -0.52)"/><path class="cls-1" d="M278.41,122.91c-12-10.5-28.62-15.82-49.4-15.82H171.42c-10.8,0-18.95,7-18.95,16.37V309.72c0,9.81,9.68,16.66,23.54,16.66,11.69,0,23.53-5.72,23.53-16.66V248.13h27.18c21.44,0,38.61-5.41,51-16.08C291.83,220,299,201.86,299,178.18v-1.72C299,152.86,292.05,134.84,278.41,122.91Zm10.73,55.27h0c0,20.68-6,36.3-17.77,46.42-10.6,9.12-25.65,13.71-44.65,13.71H194.63a4.91,4.91,0,0,0-4.91,4.91h0v66.5c0,4.23-7.11,6.84-13.71,6.84S162.3,314,162.3,309.72V123.46c0-3.18,3.2-6.55,9.13-6.55H229c27.43,0,60.12,10.33,60.12,59.56v1.71Z" transform="translate(-0.47 -0.52)"/></svg>