<svg id="Слой_1" data-name="Слой 1" xmlns="http://www.w3.org/2000/svg" viewBox="0 0 220.66 27.87"><defs><style>.cls-1{fill:#2eac6a;}</style></defs><title>11</title><path class="cls-1" d="M36.18,12.67a.51.51,0,0,0-.42-.35l-9.47-1.38L22.05,2.36a.53.53,0,0,0-.94,0l-4.23,8.58L7.4,12.32a.51.51,0,0,0-.42.35.54.54,0,0,0,.13.54L14,19.89l-1.62,9.43a.52.52,0,0,0,.21.51.5.5,0,0,0,.55,0l8.47-4.45,8.47,4.45a.54.54,0,0,0,.25.06.49.49,0,0,0,.3-.1.52.52,0,0,0,.21-.51l-1.62-9.43,6.86-6.68A.54.54,0,0,0,36.18,12.67Z" transform="translate(-6.96 -2.07)"/><path class="cls-1" d="M84,12.67a.49.49,0,0,0-.42-.35l-9.47-1.38L69.9,2.36a.53.53,0,0,0-.94,0l-4.23,8.58-9.47,1.38a.51.51,0,0,0-.29.89l6.85,6.68L60.2,29.32a.52.52,0,0,0,.21.51.5.5,0,0,0,.55,0l8.47-4.45,8.47,4.45a.54.54,0,0,0,.25.06.52.52,0,0,0,.31-.1.5.5,0,0,0,.2-.51l-1.61-9.43,6.85-6.68A.54.54,0,0,0,84,12.67Z" transform="translate(-6.96 -2.07)"/><path class="cls-1" d="M131.88,12.67a.49.49,0,0,0-.42-.35L122,10.94l-4.24-8.58a.52.52,0,0,0-.93,0l-4.24,8.58-9.47,1.38a.49.49,0,0,0-.42.35.54.54,0,0,0,.13.54l6.85,6.68-1.62,9.43a.52.52,0,0,0,.21.51.5.5,0,0,0,.55,0l8.48-4.45,8.47,4.45a.52.52,0,0,0,.55,0,.52.52,0,0,0,.21-.51l-1.62-9.43,6.85-6.68A.52.52,0,0,0,131.88,12.67Z" transform="translate(-6.96 -2.07)"/><path class="cls-1" d="M179.74,12.67a.52.52,0,0,0-.43-.35l-9.47-1.38-4.23-8.58a.53.53,0,0,0-.94,0l-4.24,8.58L151,12.32a.51.51,0,0,0-.42.35.54.54,0,0,0,.13.54l6.86,6.68-1.62,9.43a.49.49,0,0,0,.21.51.5.5,0,0,0,.55,0l8.47-4.45,8.47,4.45a.53.53,0,0,0,.24.06.5.5,0,0,0,.31-.1.52.52,0,0,0,.21-.51l-1.62-9.43,6.85-6.68A.52.52,0,0,0,179.74,12.67Z" transform="translate(-6.96 -2.07)"/><path class="cls-1" d="M227.59,12.67a.51.51,0,0,0-.42-.35l-9.47-1.38-4.24-8.58a.53.53,0,0,0-.94,0l-4.23,8.58-9.47,1.38a.51.51,0,0,0-.43.35.54.54,0,0,0,.13.54l6.86,6.68-1.62,9.43a.52.52,0,0,0,.21.51.5.5,0,0,0,.55,0L213,25.42l8.47,4.45a.54.54,0,0,0,.25.06.49.49,0,0,0,.3-.1.49.49,0,0,0,.21-.51l-1.62-9.43,6.86-6.68A.54.54,0,0,0,227.59,12.67Z" transform="translate(-6.96 -2.07)"/></svg>