<svg id="icons" xmlns="http://www.w3.org/2000/svg" viewBox="0 0 42.01 64" width="31" height="47"><defs><style>.cls-1{fill:#bdffd8;}.cls-2{fill:#58d897;}.cls-3{fill:#25b16a;}</style></defs><title>8</title><polygon class="cls-1" points="28 1 24.99 8 17.01 8 13.99 1 28 1"/><path class="cls-1" d="M52,57h0a6,6,0,0,1-6,6H18a6,6,0,0,1-6-6l2-28v0A18,18,0,0,1,31.54,11h.93A18,18,0,0,1,50,29v0Z" transform="translate(-10.99 0)"/><path class="cls-2" d="M52,57,50,29v0A18,18,0,0,0,32.47,11h-.93c-.35,0-.69.05-1,.08A18,18,0,0,1,47,29v0l2,28h0a6,6,0,0,1-6,6h3a6,6,0,0,0,6-6Z" transform="translate(-10.99 0)"/><path class="cls-3" d="M18,64a1,1,0,1,1,0-2H46a1,1,0,0,1,0,2Z" transform="translate(-10.99 0)"/><path class="cls-3" d="M18,64a7,7,0,0,1-7-7,1,1,0,0,1,2,0,5,5,0,0,0,5,5,1,1,0,0,1,0,2Z" transform="translate(-10.99 0)"/><path class="cls-3" d="M46,64a1,1,0,1,1,0-2,5,5,0,0,0,5-5,1,1,0,0,1,2,0A7,7,0,0,1,46,64Z" transform="translate(-10.99 0)"/><path class="cls-3" d="M12,58h-.07A1,1,0,0,1,11,56.93l2-28A1,1,0,0,1,14.07,28,1,1,0,0,1,15,29.05l-2,28A1,1,0,0,1,12,58Z" transform="translate(-10.99 0)"/><path class="cls-3" d="M52,58a1,1,0,0,1-1-.93l-2-28A1,1,0,0,1,49.93,28a1,1,0,0,1,1.07.93l2,28A1,1,0,0,1,52.07,58Z" transform="translate(-10.99 0)"/><path class="cls-3" d="M50,30a1,1,0,0,1-1-1,17,17,0,0,0-34,0,1,1,0,0,1-2,0,19,19,0,0,1,38,0A1,1,0,0,1,50,30Z" transform="translate(-10.99 0)"/><path class="cls-3" d="M36.49,12h-9a1,1,0,1,1,0-2h9a1,1,0,0,1,0,2Z" transform="translate(-10.99 0)"/><path class="cls-3" d="M36.49,9h-9a1,1,0,1,1,0-2h9a1,1,0,0,1,0,2Z" transform="translate(-10.99 0)"/><path class="cls-3" d="M27.49,12a2.5,2.5,0,1,1,0-5,1,1,0,0,1,0,2,.5.5,0,1,0,0,1,1,1,0,0,1,0,2Z" transform="translate(-10.99 0)"/><path class="cls-3" d="M36.49,12a1,1,0,0,1,0-2,.5.5,0,0,0,0-1,1,1,0,0,1,0-2,2.5,2.5,0,0,1,0,5Z" transform="translate(-10.99 0)"/><path class="cls-3" d="M36,9a.92.92,0,0,1-.4-.08,1,1,0,0,1-.52-1.31l3-7a1,1,0,1,1,1.83.8l-3,7A1,1,0,0,1,36,9Z" transform="translate(-10.99 0)"/><path class="cls-3" d="M28,9a1,1,0,0,1-.92-.6l-3-7A1,1,0,0,1,25.9.6l3,7a1,1,0,0,1-.52,1.31A1,1,0,0,1,28,9Z" transform="translate(-10.99 0)"/><path class="cls-3" d="M39,2H25a1,1,0,0,1,0-2H39a1,1,0,0,1,0,2Z" transform="translate(-10.99 0)"/><path class="cls-3" d="M24,40a1,1,0,0,1-1-1,9,9,0,0,1,15.36-6.37,1,1,0,0,1,0,1.42,1,1,0,0,1-1.41,0,7,7,0,0,0-12,5,1,1,0,0,1-1,1Z" transform="translate(-10.99 0)"/><path class="cls-3" d="M32,48a8.93,8.93,0,0,1-6.36-2.64A1,1,0,1,1,27.05,44a7,7,0,0,0,12-5,1,1,0,0,1,2,0,9,9,0,0,1-9,9Z" transform="translate(-10.99 0)"/><path class="cls-3" d="M34.81,34.34a1,1,0,0,1,0-2h2.84a1,1,0,0,1,0,2Z" transform="translate(-10.99 0)"/><path class="cls-3" d="M37.66,34.34a1,1,0,0,1-.9-.55L35.35,31a1,1,0,0,1,.45-1.34,1,1,0,0,1,1.34.44l1.41,2.84a1,1,0,0,1-.45,1.35A1,1,0,0,1,37.66,34.34Z" transform="translate(-10.99 0)"/><path class="cls-3" d="M29.18,45.66H26.34a1,1,0,0,1,0-2h2.84a1,1,0,1,1,0,2Z" transform="translate(-10.99 0)"/><path class="cls-3" d="M27.75,48.5a1,1,0,0,1-.89-.55l-1.42-2.84a1,1,0,0,1,.45-1.34,1,1,0,0,1,1.34.45l1.42,2.84a1,1,0,0,1-.45,1.34A1,1,0,0,1,27.75,48.5Z" transform="translate(-10.99 0)"/></svg>