<svg id="icons" width="44" height="41" xmlns="http://www.w3.org/2000/svg" viewBox="0 0 64.01 61"><defs><style>.cls-1{fill:#bdffd8;}.cls-2{fill:#58d897;}.cls-3{fill:#25b16a;}</style></defs><title>1</title><path class="cls-1" d="M38,20.5v6a15,15,0,0,1-8,13.27h0A15,15,0,0,1,8,26.5v-6l4-4a23.86,23.86,0,0,0,11,3,23.86,23.86,0,0,0,11-3Z" transform="translate(0 -1.5)"/><path class="cls-2" d="M34,16.5h0v10a15,15,0,0,1-8,13.27h0a14.53,14.53,0,0,1-5,1.58,14.71,14.71,0,0,0,2,.14,14.9,14.9,0,0,0,7-1.72h0A15,15,0,0,0,38,26.5v-6Z" transform="translate(0 -1.5)"/><path class="cls-2" d="M38,14.5v6l-4-4a23.86,23.86,0,0,1-11,3,23.86,23.86,0,0,1-11-3l-4,4v-5a13,13,0,0,1,13-13H31v5A7,7,0,0,1,38,14.5Z" transform="translate(0 -1.5)"/><path class="cls-2" d="M31,11.5a3,3,0,0,1,3,3v2l4,4v-6a7,7,0,0,0-7-7v-5H27v5A4,4,0,0,0,31,11.5Z" transform="translate(0 -1.5)"/><path class="cls-1" d="M10,45.5v16H1v-8a8,8,0,0,1,8-8Z" transform="translate(0 -1.5)"/><polygon class="cls-2" points="23 57 23 60 10 60 10 44 16 44 23 57"/><path class="cls-2" d="M30,45.5h7.28a14,14,0,0,0-3.27,9v4H33a3,3,0,0,0,3,3H23v-3Z" transform="translate(0 -1.5)"/><polygon class="cls-1" points="25 45 30 44 23 57 16 44 21 45 23 44 25 45"/><path class="cls-1" d="M48,40.51a14,14,0,0,1,14,14v4H34v-4a14,14,0,0,1,14-14Z" transform="translate(0 -1.5)"/><path class="cls-2" d="M48,40.51a14.76,14.76,0,0,0-1.5.08A14,14,0,0,1,59,54.51v4h3v-4A14,14,0,0,0,48,40.51Z" transform="translate(0 -1.5)"/><path class="cls-2" d="M50,38.5a2,2,0,1,1-2-2A2,2,0,0,1,50,38.5Z" transform="translate(0 -1.5)"/><path class="cls-3" d="M1,54.5a1,1,0,0,1-1-1,9,9,0,0,1,9-9,1,1,0,0,1,0,2,7,7,0,0,0-7,7A1,1,0,0,1,1,54.5Z" transform="translate(0 -1.5)"/><path class="cls-3" d="M16,46.5H9a1,1,0,0,1,0-2h7a1,1,0,0,1,0,2Z" transform="translate(0 -1.5)"/><path class="cls-3" d="M37.29,46.5H30a1,1,0,0,1,0-2h7.29a1,1,0,0,1,0,2Z" transform="translate(0 -1.5)"/><path class="cls-3" d="M1,62.5a1,1,0,0,1-1-1v-8a1,1,0,0,1,2,0v8A1,1,0,0,1,1,62.5Z" transform="translate(0 -1.5)"/><path class="cls-3" d="M60,62.5H36a1,1,0,0,1,0-2H60a1,1,0,0,1,0,2Z" transform="translate(0 -1.5)"/><path class="cls-3" d="M16,46.5a1,1,0,0,1-1-1V39.77a1,1,0,0,1,2,0V45.5A1,1,0,0,1,16,46.5Z" transform="translate(0 -1.5)"/><path class="cls-3" d="M30,46.5a1,1,0,0,1-1-1V39.77a1,1,0,0,1,2,0V45.5A1,1,0,0,1,30,46.5Z" transform="translate(0 -1.5)"/><path class="cls-3" d="M23,50.5a1,1,0,0,1-1-1,1,1,0,0,1,1-1h0a1,1,0,0,1,0,2Z" transform="translate(0 -1.5)"/><path class="cls-3" d="M21,47.5l-.2,0-5-1A1,1,0,0,1,15,45.3a1,1,0,0,1,1.17-.78l5,1A1,1,0,0,1,22,46.69,1,1,0,0,1,21,47.5Z" transform="translate(0 -1.5)"/><path class="cls-3" d="M21,47.5a1,1,0,0,1-.45-1.9l2-1a1,1,0,0,1,1.34.45,1,1,0,0,1-.45,1.34l-2,1A1,1,0,0,1,21,47.5Z" transform="translate(0 -1.5)"/><path class="cls-3" d="M25,47.5a1,1,0,0,1-.45-.11l-2-1a1,1,0,1,1,.89-1.79l2,1A1,1,0,0,1,25.89,47,1,1,0,0,1,25,47.5Z" transform="translate(0 -1.5)"/><path class="cls-3" d="M25,47.5a1,1,0,0,1-.2-2l5-1a1,1,0,1,1,.39,2l-5,1Z" transform="translate(0 -1.5)"/><path class="cls-3" d="M10,62.5a1,1,0,0,1-1-1v-16a1,1,0,0,1,2,0v16A1,1,0,0,1,10,62.5Z" transform="translate(0 -1.5)"/><path class="cls-3" d="M23,62.5a1,1,0,0,1-1-1v-3a1,1,0,0,1,2,0v3A1,1,0,0,1,23,62.5Z" transform="translate(0 -1.5)"/><path class="cls-3" d="M23,59.5a1,1,0,0,1-.48-.12A1,1,0,0,1,22.11,58l7-13a1,1,0,1,1,1.77.95l-7,13A1,1,0,0,1,23,59.5Z" transform="translate(0 -1.5)"/><path class="cls-3" d="M23,59.5a1,1,0,0,1-.89-.53l-7-13A1,1,0,0,1,16.88,45l7,13a1,1,0,0,1-.41,1.36A1,1,0,0,1,23,59.5Z" transform="translate(0 -1.5)"/><path class="cls-3" d="M23,42.5a16,16,0,0,1-16-16,1,1,0,0,1,2,0,14,14,0,1,0,28,0,1,1,0,1,1,2,0A16,16,0,0,1,23,42.5Z" transform="translate(0 -1.5)"/><path class="cls-3" d="M8,27.5a1,1,0,0,1-1-1v-11a1,1,0,0,1,2,0v11A1,1,0,0,1,8,27.5Z" transform="translate(0 -1.5)"/><path class="cls-3" d="M38,27.5a1,1,0,0,1-1-1v-12a1,1,0,0,1,2,0v12A1,1,0,0,1,38,27.5Z" transform="translate(0 -1.5)"/><path class="cls-3" d="M38,15.5a1,1,0,0,1-1-1,6,6,0,0,0-6-6,1,1,0,0,1,0-2,8,8,0,0,1,8,8A1,1,0,0,1,38,15.5Z" transform="translate(0 -1.5)"/><path class="cls-3" d="M31,8.5a1,1,0,0,1-1-1v-5a1,1,0,0,1,2,0v5A1,1,0,0,1,31,8.5Z" transform="translate(0 -1.5)"/><path class="cls-3" d="M31,3.5H21a1,1,0,0,1,0-2H31a1,1,0,1,1,0,2Z" transform="translate(0 -1.5)"/><path class="cls-3" d="M8,16.5a1,1,0,0,1-1-1,14,14,0,0,1,14-14,1,1,0,0,1,0,2,12,12,0,0,0-12,12A1,1,0,0,1,8,16.5Z" transform="translate(0 -1.5)"/><path class="cls-3" d="M38,21.5a1,1,0,0,1-.71-.29l-4-4a1,1,0,0,1,1.42-1.42l4,4a1,1,0,0,1,0,1.42A1,1,0,0,1,38,21.5Z" transform="translate(0 -1.5)"/><path class="cls-3" d="M23,20.5A24.66,24.66,0,0,1,11.5,17.36a1,1,0,0,1,1-1.72A23.08,23.08,0,0,0,23,18.5,23.08,23.08,0,0,0,33.5,15.64a1,1,0,1,1,1,1.72A24.61,24.61,0,0,1,23,20.5Z" transform="translate(0 -1.5)"/><path class="cls-3" d="M8,21.5a1,1,0,0,1-.71-.29,1,1,0,0,1,0-1.42l4-4a1,1,0,1,1,1.42,1.42l-4,4A1,1,0,0,1,8,21.5Z" transform="translate(0 -1.5)"/><path class="cls-3" d="M36,62.5a4,4,0,0,1-4-4,1,1,0,0,1,2,0,2,2,0,0,0,2,2,1,1,0,0,1,0,2Z" transform="translate(0 -1.5)"/><path class="cls-3" d="M60,62.5a1,1,0,0,1,0-2,2,2,0,0,0,2-2,1,1,0,0,1,2,0A4,4,0,0,1,60,62.5Z" transform="translate(0 -1.5)"/><path class="cls-3" d="M63,59.5H33a1,1,0,0,1,0-2H63a1,1,0,0,1,0,2Z" transform="translate(0 -1.5)"/><path class="cls-3" d="M62,55.51a1,1,0,0,1-1-1,13,13,0,1,0-26,0,1,1,0,0,1-2,0,15,15,0,1,1,30,0A1,1,0,0,1,62,55.51Z" transform="translate(0 -1.5)"/><path class="cls-3" d="M34,59.5a1,1,0,0,1-1-1v-4a1,1,0,1,1,2,0v4A1,1,0,0,1,34,59.5Z" transform="translate(0 -1.5)"/><path class="cls-3" d="M62,59.5a1,1,0,0,1-1-1v-4a1,1,0,1,1,2,0v4A1,1,0,0,1,62,59.5Z" transform="translate(0 -1.5)"/><path class="cls-3" d="M48,41.5a3,3,0,1,1,3-3A3,3,0,0,1,48,41.5Zm0-4a1,1,0,1,0,1,1A1,1,0,0,0,48,37.5Z" transform="translate(0 -1.5)"/></svg>