<svg id="icons" xmlns="http://www.w3.org/2000/svg" viewBox="0 0 34 64.01" width="27" height="49"><defs><style>.cls-1{fill:#bdffd8;}.cls-2{fill:#58d897;}.cls-3{fill:#25b16a;}</style></defs><title>6</title><polygon class="cls-1" points="33 63 33 63.01 31 61.01 29 63.01 27 61.01 25 63.01 23 61.01 21 63.01 19 61.01 17 63.01 15 61.01 13 63.01 11 61.01 9 63.01 7 61.01 5 63.01 3 61.01 1 63.01 1 63 1 58.01 1.01 58.01 33 58.01 33 63"/><path class="cls-1" d="M31,22v2a2,2,0,0,1-2,2H24a2,2,0,0,1-2-2V22h9Z" transform="translate(-15 0.01)"/><path class="cls-2" d="M28,26V50.5a1.51,1.51,0,0,1-3,0V26Z" transform="translate(-15 0.01)"/><path class="cls-2" d="M38,33v17.5a1.5,1.5,0,1,1-3,0V33Z" transform="translate(-15 0.01)"/><path class="cls-1" d="M42,19V33H35V12A7,7,0,0,1,42,19Z" transform="translate(-15 0.01)"/><polygon class="cls-1" points="33 1 33 6 1 6 1 1 3 3 5 1 7 3 9 1 11 3 13 1 15 3 17 1 19 3 21 1 23 3 25 1 27 3 29 1 31 3 33 1"/><path class="cls-3" d="M24,27a3,3,0,0,1-3-3,1,1,0,1,1,2,0,1,1,0,0,0,1,1,1,1,0,0,1,0,2Z" transform="translate(-15 0.01)"/><path class="cls-3" d="M29,27a1,1,0,0,1,0-2,1,1,0,0,0,1-1,1,1,0,1,1,2,0A3,3,0,0,1,29,27Z" transform="translate(-15 0.01)"/><path class="cls-3" d="M22,25a1,1,0,0,1-1-1V12a1,1,0,0,1,2,0V24A1,1,0,0,1,22,25Z" transform="translate(-15 0.01)"/><path class="cls-3" d="M31,25a1,1,0,0,1-1-1V12a1,1,0,0,1,2,0V24A1,1,0,0,1,31,25Z" transform="translate(-15 0.01)"/><path class="cls-3" d="M25,23a1,1,0,0,1-1-1V12a1,1,0,0,1,2,0V22A1,1,0,0,1,25,23Z" transform="translate(-15 0.01)"/><path class="cls-3" d="M28,23a1,1,0,0,1-1-1V12a1,1,0,0,1,2,0V22A1,1,0,0,1,28,23Z" transform="translate(-15 0.01)"/><path class="cls-3" d="M31,23H22a1,1,0,0,1,0-2h9a1,1,0,0,1,0,2Z" transform="translate(-15 0.01)"/><path class="cls-3" d="M29,27H24a1,1,0,0,1,0-2h5a1,1,0,0,1,1,1A1,1,0,0,1,29,27Z" transform="translate(-15 0.01)"/><path class="cls-3" d="M25,51.5a1,1,0,0,1-1-1V26a1,1,0,1,1,2,0V50.5A1,1,0,0,1,25,51.5Z" transform="translate(-15 0.01)"/><path class="cls-3" d="M28,51.5a1,1,0,0,1-1-1V26a1,1,0,1,1,2,0V50.5A1,1,0,0,1,28,51.5Z" transform="translate(-15 0.01)"/><path class="cls-3" d="M26.5,53A2.5,2.5,0,0,1,24,50.5a1,1,0,0,1,2,0,.5.5,0,0,0,.5.5.5.5,0,0,0,.5-.5,1,1,0,0,1,2,0A2.5,2.5,0,0,1,26.5,53Z" transform="translate(-15 0.01)"/><path class="cls-3" d="M35,51.5a1,1,0,0,1-1-1V12a1,1,0,0,1,2,0V50.5A1,1,0,0,1,35,51.5Z" transform="translate(-15 0.01)"/><path class="cls-3" d="M38,51.5a1,1,0,0,1-1-1V33a1,1,0,0,1,2,0V50.5A1,1,0,0,1,38,51.5Z" transform="translate(-15 0.01)"/><path class="cls-3" d="M36.49,53A2.5,2.5,0,0,1,34,50.5a1,1,0,0,1,2,0,.5.5,0,0,0,.5.5.5.5,0,0,0,.5-.5,1,1,0,0,1,2,0A2.5,2.5,0,0,1,36.49,53Z" transform="translate(-15 0.01)"/><path class="cls-3" d="M42,34H35a1,1,0,0,1,0-2h7a1,1,0,1,1,0,2Z" transform="translate(-15 0.01)"/><path class="cls-3" d="M42,20a1,1,0,0,1-1-1,6,6,0,0,0-6-6,1,1,0,0,1,0-2,8,8,0,0,1,8,8A1,1,0,0,1,42,20Z" transform="translate(-15 0.01)"/><path class="cls-3" d="M42,34a1,1,0,0,1-1-1V19a1,1,0,1,1,2,0V33A1,1,0,0,1,42,34Z" transform="translate(-15 0.01)"/><path class="cls-3" d="M16,64a1,1,0,0,1-1-1V1a1,1,0,1,1,2,0V63A1,1,0,0,1,16,64Z" transform="translate(-15 0.01)"/><path class="cls-3" d="M48,64a1,1,0,0,1-1-1V1a1,1,0,0,1,2,0V63A1,1,0,0,1,48,64Z" transform="translate(-15 0.01)"/><path class="cls-3" d="M18,4a1,1,0,0,1-.71-.29l-2-2a1,1,0,0,1,0-1.41,1,1,0,0,1,1.42,0l2,2a1,1,0,0,1,0,1.41A1,1,0,0,1,18,4Z" transform="translate(-15 0.01)"/><path class="cls-3" d="M18,4a1,1,0,0,1-.71-.29,1,1,0,0,1,0-1.41l2-2a1,1,0,0,1,1.42,0,1,1,0,0,1,0,1.41l-2,2A1,1,0,0,1,18,4Z" transform="translate(-15 0.01)"/><path class="cls-3" d="M22,4a1,1,0,0,1-.71-.29l-2-2a1,1,0,0,1,0-1.41,1,1,0,0,1,1.42,0l2,2a1,1,0,0,1,0,1.41A1,1,0,0,1,22,4Z" transform="translate(-15 0.01)"/><path class="cls-3" d="M22,4a1,1,0,0,1-.71-.29,1,1,0,0,1,0-1.41l2-2a1,1,0,0,1,1.42,0,1,1,0,0,1,0,1.41l-2,2A1,1,0,0,1,22,4Z" transform="translate(-15 0.01)"/><path class="cls-3" d="M26,4a1,1,0,0,1-.71-.29l-2-2a1,1,0,0,1,0-1.41,1,1,0,0,1,1.42,0l2,2a1,1,0,0,1,0,1.41A1,1,0,0,1,26,4Z" transform="translate(-15 0.01)"/><path class="cls-3" d="M26,4a1,1,0,0,1-.71-.29,1,1,0,0,1,0-1.41l2-2a1,1,0,0,1,1.42,0,1,1,0,0,1,0,1.41l-2,2A1,1,0,0,1,26,4Z" transform="translate(-15 0.01)"/><path class="cls-3" d="M30,4a1,1,0,0,1-.71-.29l-2-2a1,1,0,0,1,0-1.41,1,1,0,0,1,1.42,0l2,2a1,1,0,0,1,0,1.41A1,1,0,0,1,30,4Z" transform="translate(-15 0.01)"/><path class="cls-3" d="M30,4a1,1,0,0,1-.71-.29,1,1,0,0,1,0-1.41l2-2a1,1,0,0,1,1.42,0,1,1,0,0,1,0,1.41l-2,2A1,1,0,0,1,30,4Z" transform="translate(-15 0.01)"/><path class="cls-3" d="M34,4a1,1,0,0,1-.71-.29l-2-2a1,1,0,0,1,0-1.41,1,1,0,0,1,1.42,0l2,2a1,1,0,0,1,0,1.41A1,1,0,0,1,34,4Z" transform="translate(-15 0.01)"/><path class="cls-3" d="M34,4a1,1,0,0,1-.71-.29,1,1,0,0,1,0-1.41l2-2a1,1,0,0,1,1.42,0,1,1,0,0,1,0,1.41l-2,2A1,1,0,0,1,34,4Z" transform="translate(-15 0.01)"/><path class="cls-3" d="M38,4a1,1,0,0,1-.71-.29l-2-2a1,1,0,0,1,0-1.41,1,1,0,0,1,1.42,0l2,2a1,1,0,0,1,0,1.41A1,1,0,0,1,38,4Z" transform="translate(-15 0.01)"/><path class="cls-3" d="M38,4a1,1,0,0,1-.71-.29,1,1,0,0,1,0-1.41l2-2a1,1,0,0,1,1.42,0,1,1,0,0,1,0,1.41l-2,2A1,1,0,0,1,38,4Z" transform="translate(-15 0.01)"/><path class="cls-3" d="M42,4a1,1,0,0,1-.71-.29l-2-2a1,1,0,0,1,0-1.41,1,1,0,0,1,1.42,0l2,2a1,1,0,0,1,0,1.41A1,1,0,0,1,42,4Z" transform="translate(-15 0.01)"/><path class="cls-3" d="M42,4a1,1,0,0,1-.71-.29,1,1,0,0,1,0-1.41l2-2a1,1,0,0,1,1.42,0,1,1,0,0,1,0,1.41l-2,2A1,1,0,0,1,42,4Z" transform="translate(-15 0.01)"/><path class="cls-3" d="M46,4a1,1,0,0,1-.71-.29l-2-2a1,1,0,0,1,0-1.41,1,1,0,0,1,1.42,0l2,2a1,1,0,0,1,0,1.41A1,1,0,0,1,46,4Z" transform="translate(-15 0.01)"/><path class="cls-3" d="M46,4a1,1,0,0,1-.71-.29,1,1,0,0,1,0-1.41l2-2a1,1,0,0,1,1.42,0,1,1,0,0,1,0,1.41l-2,2A1,1,0,0,1,46,4Z" transform="translate(-15 0.01)"/><path class="cls-3" d="M48,7H16a1,1,0,0,1,0-2H48a1,1,0,0,1,0,2Z" transform="translate(-15 0.01)"/><path class="cls-3" d="M48,64a1,1,0,0,1-.71-.3l-2-2a1,1,0,0,1,0-1.41,1,1,0,0,1,1.42,0l2,2A1,1,0,0,1,48,64Z" transform="translate(-15 0.01)"/><path class="cls-3" d="M44,64a1,1,0,0,1-.71-1.71l2-2a1,1,0,0,1,1.42,0,1,1,0,0,1,0,1.41l-2,2A1,1,0,0,1,44,64Z" transform="translate(-15 0.01)"/><path class="cls-3" d="M44,64a1,1,0,0,1-.71-.3l-2-2a1,1,0,0,1,0-1.41,1,1,0,0,1,1.42,0l2,2A1,1,0,0,1,44,64Z" transform="translate(-15 0.01)"/><path class="cls-3" d="M40,64a1,1,0,0,1-.71-1.71l2-2a1,1,0,0,1,1.42,0,1,1,0,0,1,0,1.41l-2,2A1,1,0,0,1,40,64Z" transform="translate(-15 0.01)"/><path class="cls-3" d="M40,64a1,1,0,0,1-.71-.3l-2-2a1,1,0,0,1,0-1.41,1,1,0,0,1,1.42,0l2,2A1,1,0,0,1,40,64Z" transform="translate(-15 0.01)"/><path class="cls-3" d="M36,64a1,1,0,0,1-.71-1.71l2-2a1,1,0,0,1,1.42,0,1,1,0,0,1,0,1.41l-2,2A1,1,0,0,1,36,64Z" transform="translate(-15 0.01)"/><path class="cls-3" d="M36,64a1,1,0,0,1-.71-.3l-2-2a1,1,0,0,1,0-1.41,1,1,0,0,1,1.42,0l2,2A1,1,0,0,1,36,64Z" transform="translate(-15 0.01)"/><path class="cls-3" d="M32,64a1,1,0,0,1-.71-1.71l2-2a1,1,0,0,1,1.42,0,1,1,0,0,1,0,1.41l-2,2A1,1,0,0,1,32,64Z" transform="translate(-15 0.01)"/><path class="cls-3" d="M32,64a1,1,0,0,1-.71-.3l-2-2a1,1,0,0,1,0-1.41,1,1,0,0,1,1.42,0l2,2A1,1,0,0,1,32,64Z" transform="translate(-15 0.01)"/><path class="cls-3" d="M28,64a1,1,0,0,1-.71-1.71l2-2a1,1,0,0,1,1.42,0,1,1,0,0,1,0,1.41l-2,2A1,1,0,0,1,28,64Z" transform="translate(-15 0.01)"/><path class="cls-3" d="M28,64a1,1,0,0,1-.71-.3l-2-2a1,1,0,0,1,0-1.41,1,1,0,0,1,1.42,0l2,2A1,1,0,0,1,28,64Z" transform="translate(-15 0.01)"/><path class="cls-3" d="M24,64a1,1,0,0,1-.71-1.71l2-2a1,1,0,0,1,1.42,0,1,1,0,0,1,0,1.41l-2,2A1,1,0,0,1,24,64Z" transform="translate(-15 0.01)"/><path class="cls-3" d="M24,64a1,1,0,0,1-.71-.3l-2-2a1,1,0,0,1,0-1.41,1,1,0,0,1,1.42,0l2,2A1,1,0,0,1,24,64Z" transform="translate(-15 0.01)"/><path class="cls-3" d="M20,64a1,1,0,0,1-.71-1.71l2-2a1,1,0,0,1,1.42,0,1,1,0,0,1,0,1.41l-2,2A1,1,0,0,1,20,64Z" transform="translate(-15 0.01)"/><path class="cls-3" d="M20,64a1,1,0,0,1-.71-.3l-2-2a1,1,0,0,1,0-1.41,1,1,0,0,1,1.42,0l2,2A1,1,0,0,1,20,64Z" transform="translate(-15 0.01)"/><path class="cls-3" d="M16,64a1,1,0,0,1-.71-1.71l2-2a1,1,0,0,1,1.42,0,1,1,0,0,1,0,1.41l-2,2A1,1,0,0,1,16,64Z" transform="translate(-15 0.01)"/><path class="cls-3" d="M48,59H16a1,1,0,1,1,0-2H48a1,1,0,0,1,0,2Z" transform="translate(-15 0.01)"/></svg>