<svg id="icons" xmlns="http://www.w3.org/2000/svg" viewBox="0 0 64 52" width="49" height="39"><defs><style>.cls-1{fill:#bdffd8;}.cls-2{fill:#58d897;}.cls-3{fill:#25b16a;}</style></defs><title>4</title><polygon class="cls-1" points="63 50.58 63 51 32 51 32 47 63 47 63 50.58"/><path class="cls-2" d="M40.83,25h0A9.88,9.88,0,0,0,40,29c0,2.7,1.92,6.84,4.11,10.35C37.65,43,32,45.83,32,53H1l1-4c14-9,26.25-3.09,34-24Z" transform="translate(0 -6)"/><rect class="cls-2" x="1" y="47" width="31" height="4"/><path class="cls-1" d="M58.41,34.68,63,53H32c0-7.17,5.65-10,12.11-13.65C46.4,43,49,46,50,46,51.44,46,56,40.07,58.41,34.68Z" transform="translate(0 -6)"/><path class="cls-2" d="M55,31V29h0a5,5,0,0,0-10,0h0v2Zm5-2a14.9,14.9,0,0,1-1.59,5.67s0,0,0,0C56,40.07,51.44,46,50,46c-1,0-3.6-3-5.89-6.65S40,31.7,40,29A10,10,0,0,1,50,19,10,10,0,0,1,60,29Z" transform="translate(0 -6)"/><path class="cls-1" d="M55,29v2H45V29h0a5,5,0,0,1,10,0Z" transform="translate(0 -6)"/><path class="cls-1" d="M25,17v2H15V17a5,5,0,0,1,10,0Z" transform="translate(0 -6)"/><path class="cls-2" d="M50,24a4.71,4.71,0,0,0-1,.1A5,5,0,0,1,53,29h0v2h2V29h0A5,5,0,0,0,50,24Z" transform="translate(0 -6)"/><path class="cls-2" d="M20,12a4.71,4.71,0,0,0-1,.1A5,5,0,0,1,23,17v2h2V17A5,5,0,0,0,20,12Z" transform="translate(0 -6)"/><path class="cls-2" d="M25,19V17a5,5,0,0,0-10,0v2ZM20,7A10,10,0,0,1,30,17c0,2.12-1.18,5.12-2.74,8-2.52,4.64-6,9-7.26,9s-4.74-4.36-7.26-9C11.18,22.12,10,19.12,10,17A10,10,0,0,1,20,7Z" transform="translate(0 -6)"/><path class="cls-1" d="M27.26,25H36C28.25,45.91,16,40,2,49L8,25h4.74c2.52,4.64,6,9,7.26,9S24.74,29.64,27.26,25Z" transform="translate(0 -6)"/><path class="cls-3" d="M63,54H1a1,1,0,0,1-1-1.24l7-28A1,1,0,0,1,9,25.24L2.28,52H61.72L57.45,34.92a1,1,0,1,1,1.94-.49L64,52.76A1,1,0,0,1,63,54Z" transform="translate(0 -6)"/><path class="cls-3" d="M32,54a1,1,0,0,1-1-1c0-7.41,5.69-10.61,11.72-14l.9-.51a1,1,0,0,1,1.37.38,1,1,0,0,1-.38,1.36l-.91.52C37.72,44.1,33,46.76,33,53A1,1,0,0,1,32,54Z" transform="translate(0 -6)"/><path class="cls-3" d="M1,58a1,1,0,0,1-1-1V53a1,1,0,0,1,2,0v4A1,1,0,0,1,1,58Z" transform="translate(0 -6)"/><path class="cls-3" d="M63,58H1a1,1,0,0,1,0-2H63a1,1,0,0,1,0,2Z" transform="translate(0 -6)"/><path class="cls-3" d="M63,57.58a1,1,0,0,1-1-1V53a1,1,0,0,1,2,0v3.58A1,1,0,0,1,63,57.58Z" transform="translate(0 -6)"/><path class="cls-3" d="M32,58a1,1,0,0,1-1-1V53a1,1,0,0,1,2,0v4A1,1,0,0,1,32,58Z" transform="translate(0 -6)"/><path class="cls-3" d="M2,50a1,1,0,0,1-.54-1.84,50.21,50.21,0,0,1,13.76-5.75C23.54,40,30.11,38,35.06,24.65a1,1,0,0,1,1.88.7c-5.3,14.31-12.65,16.47-21.15,19-4.24,1.25-8.63,2.54-13.25,5.51A1,1,0,0,1,2,50Z" transform="translate(0 -6)"/><path class="cls-3" d="M20,35C17.1,35,9,22.67,9,17a11,11,0,0,1,22,0C31,22.67,22.9,35,20,35ZM20,8a9,9,0,0,0-9,9c0,5.05,7.23,15.22,9,16,1.77-.76,9-10.93,9-16A9,9,0,0,0,20,8Z" transform="translate(0 -6)"/><path class="cls-3" d="M50,47c-2.9,0-11-12.33-11-18a11,11,0,0,1,22,0C61,34.67,52.9,47,50,47Zm0-27a9,9,0,0,0-9,9c0,5,7.23,15.22,9,16,1.77-.76,9-10.93,9-16A9,9,0,0,0,50,20Z" transform="translate(0 -6)"/><path class="cls-3" d="M12.74,26H8a1,1,0,0,1,0-2h4.74a1,1,0,1,1,0,2Z" transform="translate(0 -6)"/><path class="cls-3" d="M40.83,26H27.26a1,1,0,0,1,0-2H40.83a1,1,0,0,1,0,2Z" transform="translate(0 -6)"/><path class="cls-3" d="M26,20H14a1,1,0,0,1,0-2H26a1,1,0,0,1,0,2Z" transform="translate(0 -6)"/><path class="cls-3" d="M25,18a1,1,0,0,1-1-1,4,4,0,1,0-8,0,1,1,0,0,1-2,0,6,6,0,1,1,12,0A1,1,0,0,1,25,18Z" transform="translate(0 -6)"/><path class="cls-3" d="M15,20a1,1,0,0,1-1-1V17a1,1,0,0,1,2,0v2A1,1,0,0,1,15,20Z" transform="translate(0 -6)"/><path class="cls-3" d="M25,20a1,1,0,0,1-1-1V17a1,1,0,0,1,2,0v2A1,1,0,0,1,25,20Z" transform="translate(0 -6)"/><path class="cls-3" d="M20,13a1,1,0,0,1-1-1V11a1,1,0,0,1,2,0v1A1,1,0,0,1,20,13Z" transform="translate(0 -6)"/><path class="cls-3" d="M56,32H44a1,1,0,0,1,0-2H56a1,1,0,0,1,0,2Z" transform="translate(0 -6)"/><path class="cls-3" d="M55,30a1,1,0,0,1-1-1,4,4,0,0,0-8,0,1,1,0,0,1-2,0,6,6,0,0,1,12,0A1,1,0,0,1,55,30Z" transform="translate(0 -6)"/><path class="cls-3" d="M45,32a1,1,0,0,1-1-1V29a1,1,0,0,1,2,0v2A1,1,0,0,1,45,32Z" transform="translate(0 -6)"/><path class="cls-3" d="M55,32a1,1,0,0,1-1-1V29a1,1,0,0,1,2,0v2A1,1,0,0,1,55,32Z" transform="translate(0 -6)"/><path class="cls-3" d="M50,25a1,1,0,0,1-1-1V23a1,1,0,0,1,2,0v1A1,1,0,0,1,50,25Z" transform="translate(0 -6)"/></svg>