<svg id="icons" xmlns="http://www.w3.org/2000/svg" viewBox="0 0 64 45.03" width="48" height="34"><defs><style>.cls-1{fill:#bdffd8;}.cls-2{fill:#25b16a;}</style></defs><title>5</title><path class="cls-1" d="M60,33.51V52a1.5,1.5,0,0,1-3,0V33.51Z" transform="translate(0 -9.49)"/><path class="cls-1" d="M32.5,17.48A14.5,14.5,0,1,1,18,32,14.51,14.51,0,0,1,32.5,17.48Z" transform="translate(0 -9.49)"/><path class="cls-1" d="M7,25.5V52a1.5,1.5,0,0,1-3,0V25.5Z" transform="translate(0 -9.49)"/><path class="cls-2" d="M1,23.5a1,1,0,0,1-1-1v-12a1,1,0,0,1,2,0v12A1,1,0,0,1,1,23.5Z" transform="translate(0 -9.49)"/><path class="cls-2" d="M4,20.5a1,1,0,0,1-1-1v-9a1,1,0,0,1,2,0v9A1,1,0,0,1,4,20.5Z" transform="translate(0 -9.49)"/><path class="cls-2" d="M7,20.5a1,1,0,0,1-1-1v-9a1,1,0,0,1,2,0v9A1,1,0,0,1,7,20.5Z" transform="translate(0 -9.49)"/><path class="cls-2" d="M10,23.5a1,1,0,0,1-1-1v-12a1,1,0,0,1,2,0v12A1,1,0,0,1,10,23.5Z" transform="translate(0 -9.49)"/><path class="cls-2" d="M4,26.5a4,4,0,0,1-4-4,1,1,0,0,1,2,0,2,2,0,0,0,2,2,1,1,0,0,1,0,2Z" transform="translate(0 -9.49)"/><path class="cls-2" d="M7,26.5a1,1,0,0,1,0-2,2,2,0,0,0,2-2,1,1,0,0,1,2,0A4,4,0,0,1,7,26.5Z" transform="translate(0 -9.49)"/><path class="cls-2" d="M7,26.5H4a1,1,0,0,1,0-2H7a1,1,0,0,1,0,2Z" transform="translate(0 -9.49)"/><path class="cls-2" d="M10,20.5H1.25a1,1,0,0,1,0-2H10a1,1,0,0,1,0,2Z" transform="translate(0 -9.49)"/><path class="cls-2" d="M4,53a1,1,0,0,1-1-1V25.5a1,1,0,0,1,2,0V52A1,1,0,0,1,4,53Z" transform="translate(0 -9.49)"/><path class="cls-2" d="M7,53a1,1,0,0,1-1-1V25.5a1,1,0,0,1,2,0V52A1,1,0,0,1,7,53Z" transform="translate(0 -9.49)"/><path class="cls-2" d="M5.5,54.51A2.5,2.5,0,0,1,3,52a1,1,0,0,1,2,0,.5.5,0,0,0,.5.5A.5.5,0,0,0,6,52a1,1,0,0,1,2,0A2.5,2.5,0,0,1,5.5,54.51Z" transform="translate(0 -9.49)"/><path class="cls-2" d="M57,53a1,1,0,0,1-1-1V10.5a1,1,0,0,1,2,0V52A1,1,0,0,1,57,53Z" transform="translate(0 -9.49)"/><path class="cls-2" d="M60,53a1,1,0,0,1-1-1V33.51a1,1,0,1,1,2,0V52A1,1,0,0,1,60,53Z" transform="translate(0 -9.49)"/><path class="cls-2" d="M58.5,54.51A2.5,2.5,0,0,1,56,52a1,1,0,1,1,2,0,.5.5,0,0,0,.5.5A.5.5,0,0,0,59,52a1,1,0,1,1,2,0A2.5,2.5,0,0,1,58.5,54.51Z" transform="translate(0 -9.49)"/><path class="cls-2" d="M63,34.51H57a1,1,0,0,1,0-2h6a1,1,0,0,1,0,2Z" transform="translate(0 -9.49)"/><path class="cls-2" d="M63,17.49a1,1,0,0,1-1-1,5,5,0,0,0-5-5,1,1,0,0,1,0-2,7,7,0,0,1,7,7A1,1,0,0,1,63,17.49Z" transform="translate(0 -9.49)"/><path class="cls-2" d="M63,34.51a1,1,0,0,1-1-1v-17a1,1,0,1,1,2,0v17A1,1,0,0,1,63,34.51Z" transform="translate(0 -9.49)"/><path class="cls-2" d="M32.5,54.49A22.5,22.5,0,1,1,55,32,22.53,22.53,0,0,1,32.5,54.49Zm0-43A20.5,20.5,0,1,0,53,32,20.52,20.52,0,0,0,32.5,11.49Z" transform="translate(0 -9.49)"/><path class="cls-2" d="M32.5,47.49A15.5,15.5,0,1,1,48,32,15.52,15.52,0,0,1,32.5,47.49Zm0-29A13.5,13.5,0,1,0,46,32,13.51,13.51,0,0,0,32.5,18.49Z" transform="translate(0 -9.49)"/></svg>