<svg id="icons" xmlns="http://www.w3.org/2000/svg" viewBox="0 0 63.99 40" width="53" height="54"><defs><style>.cls-1{fill:#bdffd8;}.cls-2{fill:#58d897;}.cls-3{fill:#25b16a;}</style></defs><title>3</title><rect class="cls-1" x="4" y="25.99" width="8.99" height="3"/><rect class="cls-2" x="4" y="22.99" width="8.99" height="3"/><polygon class="cls-1" points="4 28.99 4 38.99 1 38.99 1 3.99 4 3.99 4 22.99 4 25.99 4 28.99"/><polygon class="cls-1" points="62.99 3.99 62.99 38.99 59.99 38.99 59.99 28.99 59.99 25.99 59.99 22.99 59.99 3.99 62.99 3.99"/><rect class="cls-2" x="16" y="14" width="32" height="4.99"/><polygon class="cls-1" points="16 18.99 16 38.99 12.99 38.99 12.99 28.99 12.99 25.99 12.99 22.99 12.99 14 16 14 16 18.99"/><rect class="cls-2" x="51.02" y="22.99" width="8.97" height="3"/><rect class="cls-1" x="51.02" y="25.99" width="8.97" height="3"/><polygon class="cls-1" points="51.02 28.99 51.02 38.99 48 38.99 48 18.99 48 14 51.02 14 51.02 22.99 51.02 25.99 51.02 28.99"/><polygon class="cls-1" points="52.98 11 52.98 14 51.02 14 51.02 13.98 48 13.98 48 14 16 14 16 13.98 12.99 13.98 12.99 14 10.99 14 10.99 11 15.99 11 22 11 30.49 11 33.49 11 41.99 11 48 11 52.98 11"/><path class="cls-3" d="M53,27H11a1,1,0,0,1-1-1V23a1,1,0,0,1,1-1H53a1,1,0,0,1,1,1v3A1,1,0,0,1,53,27ZM12,25H52V24H12Z" transform="translate(-0.01 -12)"/><path class="cls-3" d="M16,52H13a1,1,0,0,1-1-1V26a1,1,0,0,1,1-1h3a1,1,0,0,1,1,1V51A1,1,0,0,1,16,52Zm-2-2h1V27H14Z" transform="translate(-0.01 -12)"/><path class="cls-3" d="M51,52H48a1,1,0,0,1-1-1V26a1,1,0,0,1,1-1h3a1,1,0,0,1,1,1V51A1,1,0,0,1,51,52Zm-2-2h1V27H49Z" transform="translate(-0.01 -12)"/><path class="cls-3" d="M48,32H16a1,1,0,0,1,0-2H48a1,1,0,0,1,0,2Z" transform="translate(-0.01 -12)"/><path class="cls-3" d="M4,52H1a1,1,0,0,1-1-1V16a1,1,0,0,1,1-1H4a1,1,0,0,1,1,1V51A1,1,0,0,1,4,52ZM2,50H3V17H2Z" transform="translate(-0.01 -12)"/><path class="cls-3" d="M13,42H4a1,1,0,1,1,0-2h9a1,1,0,1,1,0,2Z" transform="translate(-0.01 -12)"/><path class="cls-3" d="M13,39H4a1,1,0,1,1,0-2h9a1,1,0,1,1,0,2Z" transform="translate(-0.01 -12)"/><path class="cls-3" d="M13,36H4a1,1,0,1,1,0-2h9a1,1,0,1,1,0,2Z" transform="translate(-0.01 -12)"/><path class="cls-3" d="M63,52H60a1,1,0,0,1-1-1V16a1,1,0,0,1,1-1h3a1,1,0,0,1,1,1V51A1,1,0,0,1,63,52Zm-2-2h1V17H61Z" transform="translate(-0.01 -12)"/><path class="cls-3" d="M60,42H51a1,1,0,1,1,0-2h9a1,1,0,0,1,1,1A1,1,0,0,1,60,42Z" transform="translate(-0.01 -12)"/><path class="cls-3" d="M60,39H51a1,1,0,1,1,0-2h9a1,1,0,0,1,1,1A1,1,0,0,1,60,39Z" transform="translate(-0.01 -12)"/><path class="cls-3" d="M60,36H51a1,1,0,1,1,0-2h9a1,1,0,0,1,1,1A1,1,0,0,1,60,36Z" transform="translate(-0.01 -12)"/><path class="cls-3" d="M30.5,24a1,1,0,0,1-1-1V16a1,1,0,0,1,2,0v7A1,1,0,0,1,30.5,24Z" transform="translate(-0.01 -12)"/><path class="cls-3" d="M33.5,17h-3a1,1,0,0,1,0-2h3a1,1,0,0,1,0,2Z" transform="translate(-0.01 -12)"/><path class="cls-3" d="M33.5,24a1,1,0,0,1-1-1V16a1,1,0,0,1,2,0v7A1,1,0,0,1,33.5,24Z" transform="translate(-0.01 -12)"/><path class="cls-3" d="M32,15a1,1,0,0,1-1-1V13a1,1,0,0,1,2,0v1A1,1,0,0,1,32,15Z" transform="translate(-0.01 -12)"/><path class="cls-3" d="M16,24a4,4,0,0,1-4-4,1,1,0,0,1,2,0,2,2,0,0,0,2,2,1,1,0,0,1,0,2Z" transform="translate(-0.01 -12)"/><path class="cls-3" d="M22,24a1,1,0,0,1,0-2,2,2,0,0,0,2-2,1,1,0,0,1,2,0A4,4,0,0,1,22,24Z" transform="translate(-0.01 -12)"/><path class="cls-3" d="M26,21H12a1,1,0,0,1,0-2H26a1,1,0,0,1,0,2Z" transform="translate(-0.01 -12)"/><path class="cls-3" d="M42,24a4,4,0,0,1-4-4,1,1,0,0,1,2,0,2,2,0,0,0,2,2,1,1,0,0,1,0,2Z" transform="translate(-0.01 -12)"/><path class="cls-3" d="M48,24a1,1,0,0,1,0-2,2,2,0,0,0,2-2,1,1,0,0,1,2,0A4,4,0,0,1,48,24Z" transform="translate(-0.01 -12)"/><path class="cls-3" d="M52,21H38a1,1,0,0,1,0-2H52a1,1,0,0,1,0,2Z" transform="translate(-0.01 -12)"/></svg>