<svg id="icons" xmlns="http://www.w3.org/2000/svg" viewBox="0 0 64 61" width="46" height="45"><defs><style>.cls-1{fill:#bdffd8;}.cls-2{fill:#58d897;}.cls-3{fill:#25b16a;}</style></defs><title>2</title><path class="cls-1" d="M13,51.5a3,3,0,1,1-3,3A3,3,0,0,1,13,51.5Z" transform="translate(0 -1.5)"/><path class="cls-2" d="M13,47.5a7,7,0,1,1-7,7A7,7,0,0,1,13,47.5Zm3,7a3,3,0,1,0-3,3A3,3,0,0,0,16,54.5Z" transform="translate(0 -1.5)"/><path class="cls-2" d="M51,47.5a7,7,0,1,1-7,7A7,7,0,0,1,51,47.5Zm3,7a3,3,0,1,0-3,3A3,3,0,0,0,54,54.5Z" transform="translate(0 -1.5)"/><path class="cls-1" d="M51,51.5a3,3,0,1,1-3,3A3,3,0,0,1,51,51.5Z" transform="translate(0 -1.5)"/><rect class="cls-2" x="45" y="26" width="4" height="8"/><polygon class="cls-2" points="53.08 26 58 34 49 34 49 26 53.08 26"/><path class="cls-1" d="M20,10.5a2,2,0,1,1-2,2A2,2,0,0,1,20,10.5Z" transform="translate(0 -1.5)"/><path class="cls-1" d="M37,34.5H3v-3a17,17,0,0,1,34,0Z" transform="translate(0 -1.5)"/><path class="cls-2" d="M20,14.51a16.52,16.52,0,0,0-2,.13A17,17,0,0,1,33,31.51v3h4v-3A17,17,0,0,0,20,14.51Z" transform="translate(0 -1.5)"/><polygon class="cls-2" points="42 37 42 41 1 41 1 37 6 37 34 37 42 37"/><path class="cls-1" d="M53.08,27.5H45v8H58ZM42,24.5H55l8,13v17H58a7,7,0,0,0-14,0H20a7,7,0,0,0-14,0H1v-12H42v-18Z" transform="translate(0 -1.5)"/><path class="cls-3" d="M63,49.5a1,1,0,0,1-1-1v-11a1,1,0,0,1,2,0v11A1,1,0,0,1,63,49.5Z" transform="translate(0 -1.5)"/><path class="cls-3" d="M63,38.5a1,1,0,0,1-.85-.48l-8-13A1,1,0,0,1,55.85,24l8,13a1,1,0,0,1-.33,1.38A1,1,0,0,1,63,38.5Z" transform="translate(0 -1.5)"/><path class="cls-3" d="M58,36.5a1,1,0,0,1-.85-.48l-4.93-8a1,1,0,0,1,.33-1.37,1,1,0,0,1,1.38.32l4.92,8a1,1,0,0,1-.33,1.38A1,1,0,0,1,58,36.5Z" transform="translate(0 -1.5)"/><path class="cls-3" d="M55,25.5H42a1,1,0,0,1,0-2H55a1,1,0,0,1,0,2Z" transform="translate(0 -1.5)"/><path class="cls-3" d="M42,46.5a1,1,0,0,1-1-1v-21a1,1,0,0,1,2,0v21A1,1,0,0,1,42,46.5Z" transform="translate(0 -1.5)"/><path class="cls-3" d="M42,43.5H1a1,1,0,0,1,0-2H42a1,1,0,0,1,0,2Z" transform="translate(0 -1.5)"/><path class="cls-3" d="M1,49.5a1,1,0,0,1-1-1v-10a1,1,0,0,1,2,0v10A1,1,0,0,1,1,49.5Z" transform="translate(0 -1.5)"/><path class="cls-3" d="M42,39.5H1a1,1,0,0,1,0-2H42a1,1,0,0,1,0,2Z" transform="translate(0 -1.5)"/><path class="cls-3" d="M1,55.5a1,1,0,0,1-1-1v-6a1,1,0,0,1,2,0v6A1,1,0,0,1,1,55.5Z" transform="translate(0 -1.5)"/><path class="cls-3" d="M44,55.5H20a1,1,0,0,1,0-2H44a1,1,0,0,1,0,2Z" transform="translate(0 -1.5)"/><path class="cls-3" d="M63,55.5a1,1,0,0,1-1-1v-6a1,1,0,0,1,2,0v6A1,1,0,0,1,63,55.5Z" transform="translate(0 -1.5)"/><path class="cls-3" d="M51,58.5a4,4,0,1,1,4-4A4,4,0,0,1,51,58.5Zm0-6a2,2,0,1,0,2,2A2,2,0,0,0,51,52.5Z" transform="translate(0 -1.5)"/><path class="cls-3" d="M51,62.5a8,8,0,1,1,8-8A8,8,0,0,1,51,62.5Zm0-14a6,6,0,1,0,6,6A6,6,0,0,0,51,48.5Z" transform="translate(0 -1.5)"/><path class="cls-3" d="M13,58.5a4,4,0,1,1,4-4A4,4,0,0,1,13,58.5Zm0-6a2,2,0,1,0,2,2A2,2,0,0,0,13,52.5Z" transform="translate(0 -1.5)"/><path class="cls-3" d="M13,62.5a8,8,0,1,1,8-8A8,8,0,0,1,13,62.5Zm0-14a6,6,0,1,0,6,6A6,6,0,0,0,13,48.5Z" transform="translate(0 -1.5)"/><path class="cls-3" d="M6,55.5H1a1,1,0,0,1,0-2H6a1,1,0,0,1,0,2Z" transform="translate(0 -1.5)"/><path class="cls-3" d="M63,55.5H58a1,1,0,0,1,0-2h5a1,1,0,0,1,0,2Z" transform="translate(0 -1.5)"/><path class="cls-3" d="M45,36.5a1,1,0,0,1-1-1v-8a1,1,0,0,1,2,0v8A1,1,0,0,1,45,36.5Z" transform="translate(0 -1.5)"/><path class="cls-3" d="M58,36.5H45a1,1,0,0,1,0-2H58a1,1,0,0,1,0,2Z" transform="translate(0 -1.5)"/><path class="cls-3" d="M53.08,28.5H45a1,1,0,0,1,0-2h8.08a1,1,0,0,1,0,2Z" transform="translate(0 -1.5)"/><path class="cls-3" d="M49,36.5a1,1,0,0,1-1-1v-8a1,1,0,0,1,2,0v8A1,1,0,0,1,49,36.5Z" transform="translate(0 -1.5)"/><path class="cls-3" d="M46,42.5H45a1,1,0,0,1,0-2h1a1,1,0,0,1,0,2Z" transform="translate(0 -1.5)"/><path class="cls-3" d="M39,35.5H1a1,1,0,0,1,0-2H39a1,1,0,0,1,0,2Z" transform="translate(0 -1.5)"/><path class="cls-3" d="M6,39.5a4,4,0,0,1-4-4,1,1,0,0,1,2,0,2,2,0,0,0,2,2,1,1,0,0,1,0,2Z" transform="translate(0 -1.5)"/><path class="cls-3" d="M34,39.5a1,1,0,0,1,0-2,2,2,0,0,0,2-2,1,1,0,0,1,2,0A4,4,0,0,1,34,39.5Z" transform="translate(0 -1.5)"/><path class="cls-3" d="M3,36.5a1,1,0,0,1-1-1v-1a1,1,0,0,1,2,0v1A1,1,0,0,1,3,36.5Z" transform="translate(0 -1.5)"/><path class="cls-3" d="M37,36.5a1,1,0,0,1-1-1v-1a1,1,0,0,1,2,0v1A1,1,0,0,1,37,36.5Z" transform="translate(0 -1.5)"/><path class="cls-3" d="M37,32.51a1,1,0,0,1-1-1,16,16,0,0,0-32,0,1,1,0,0,1-2,0,18,18,0,0,1,36,0A1,1,0,0,1,37,32.51Z" transform="translate(0 -1.5)"/><path class="cls-3" d="M3,35.5a1,1,0,0,1-1-1v-3a1,1,0,0,1,2,0v3A1,1,0,0,1,3,35.5Z" transform="translate(0 -1.5)"/><path class="cls-3" d="M37,35.5a1,1,0,0,1-1-1v-3a1,1,0,0,1,2,0v3A1,1,0,0,1,37,35.5Z" transform="translate(0 -1.5)"/><path class="cls-3" d="M20,15.5a3,3,0,1,1,3-3A3,3,0,0,1,20,15.5Zm0-4a1,1,0,1,0,1,1A1,1,0,0,0,20,11.5Z" transform="translate(0 -1.5)"/><path class="cls-3" d="M10,12.5a1,1,0,0,1-.7-.29,1,1,0,0,1,0-1.42,2.28,2.28,0,0,0-.08-3.17A4.26,4.26,0,0,1,9.3,1.79,1,1,0,0,1,10.71,3.2a2.28,2.28,0,0,0,.07,3.17,4.28,4.28,0,0,1-.07,5.84A1,1,0,0,1,10,12.5Z" transform="translate(0 -1.5)"/><path class="cls-3" d="M30,12.5a1,1,0,0,1-.71-.29,1,1,0,0,1,0-1.42,2.27,2.27,0,0,0-.07-3.17,4.27,4.27,0,0,1,.07-5.83A1,1,0,0,1,30.71,3.2a2.27,2.27,0,0,0,.07,3.17,4.28,4.28,0,0,1-.08,5.84A1,1,0,0,1,30,12.5Z" transform="translate(0 -1.5)"/><path class="cls-3" d="M20,8a1,1,0,0,1-.78-.38,4.28,4.28,0,0,1,.07-5.83,1,1,0,0,1,1.42,0,1,1,0,0,1,0,1.41,2.28,2.28,0,0,0,.07,3.17A1,1,0,0,1,20,8Z" transform="translate(0 -1.5)"/></svg>