<svg id="icons" xmlns="http://www.w3.org/2000/svg" viewBox="0 0 50 64" width="37" height="47"><defs><style>.cls-1{fill:#bdffd8;}.cls-2{fill:#58d897;}.cls-3{fill:#25b16a;}</style></defs><title>7</title><path class="cls-1" d="M20,8.94v4a4,4,0,0,0-4,4v6H12v-6A8,8,0,0,1,20,8.94Z" transform="translate(-7 0)"/><path class="cls-2" d="M38,5.78V16.1c-2.74-1.2-5.14-2.16-7-2.16H24v-6h7C32.85,7.94,35.25,7,38,5.78Z" transform="translate(-7 0)"/><path class="cls-2" d="M56,.94v20H54c-4.5,0-9-1.75-13-3.5v-13c4-1.75,8.5-3.5,13-3.5Z" transform="translate(-7 0)"/><path class="cls-1" d="M41,4.44v13c-1-.45-2-.91-3-1.34V5.78C39,5.35,40,4.89,41,4.44Z" transform="translate(-7 0)"/><polygon class="cls-2" points="17 13.94 17 14.94 13 14.94 13 12.94 13 8.94 13 6.94 17 6.94 17 7.94 17 13.94"/><polygon class="cls-1" points="9 31.81 9 31.94 5 31.94 5 31.81 5 22.94 9 22.94 9 31.81"/><path class="cls-1" d="M20,31.94v10a6,6,0,0,1-12,0v-10H20Z" transform="translate(-7 0)"/><path class="cls-3" d="M56,22H54a1,1,0,0,1,0-2h2a1,1,0,0,1,0,2Z" transform="translate(-7 0)"/><path class="cls-3" d="M54,22c-5.37,0-10.55-2.31-15.12-4.35C35.68,16.23,32.92,15,31,15a1,1,0,0,1,0-2c2.35,0,5.29,1.31,8.69,2.83C44.08,17.78,49.06,20,54,20a1,1,0,0,1,0,2Z" transform="translate(-7 0)"/><path class="cls-3" d="M56,2H54a1,1,0,0,1,0-2h2a1,1,0,0,1,0,2Z" transform="translate(-7 0)"/><path class="cls-3" d="M31,9a1,1,0,0,1,0-2c1.92,0,4.68-1.23,7.88-2.65C43.45,2.31,48.63,0,54,0a1,1,0,0,1,0,2c-4.94,0-9.92,2.22-14.31,4.18C36.29,7.69,33.35,9,31,9Z" transform="translate(-7 0)"/><path class="cls-3" d="M31,15H24a1,1,0,0,1,0-2h7a1,1,0,0,1,0,2Z" transform="translate(-7 0)"/><path class="cls-3" d="M31,9H24a1,1,0,0,1,0-2h7a1,1,0,0,1,0,2Z" transform="translate(-7 0)"/><path class="cls-3" d="M24,15a1,1,0,0,1-1-1V8a1,1,0,0,1,2,0v6A1,1,0,0,1,24,15Z" transform="translate(-7 0)"/><path class="cls-3" d="M38,17.17a1,1,0,0,1-1-1V5.83a1,1,0,1,1,2,0V16.17A1,1,0,0,1,38,17.17Z" transform="translate(-7 0)"/><path class="cls-3" d="M41,18.5a1,1,0,0,1-1-1V4.5a1,1,0,0,1,2,0v13A1,1,0,0,1,41,18.5Z" transform="translate(-7 0)"/><path class="cls-3" d="M8,43a1,1,0,0,1-1-1V23a1,1,0,0,1,2,0V42A1,1,0,0,1,8,43Z" transform="translate(-7 0)"/><path class="cls-3" d="M20,43a1,1,0,0,1-1-1V23a1,1,0,0,1,2,0V42A1,1,0,0,1,20,43Z" transform="translate(-7 0)"/><path class="cls-3" d="M14,49a7,7,0,0,1-7-7,1,1,0,0,1,2,0,5,5,0,0,0,10,0,1,1,0,0,1,2,0A7,7,0,0,1,14,49Z" transform="translate(-7 0)"/><path class="cls-3" d="M20,24H8a1,1,0,0,1,0-2H20a1,1,0,0,1,0,2Z" transform="translate(-7 0)"/><path class="cls-3" d="M14,64a1,1,0,0,1-1-1V48a1,1,0,0,1,2,0V63A1,1,0,0,1,14,64Z" transform="translate(-7 0)"/><path class="cls-3" d="M20,64H8a1,1,0,0,1,0-2H20a1,1,0,0,1,0,2Z" transform="translate(-7 0)"/><path class="cls-3" d="M20,33H8a1,1,0,0,1,0-2H20a1,1,0,0,1,1,1A1,1,0,0,1,20,33Z" transform="translate(-7 0)"/><path class="cls-3" d="M16,45a1,1,0,0,1-1-1,1,1,0,0,1,1-1h0a1,1,0,0,1,0,2Z" transform="translate(-7 0)"/><path class="cls-3" d="M14,42a1,1,0,0,1-1-1,1,1,0,0,1,1-1h0a1,1,0,1,1,0,2Z" transform="translate(-7 0)"/><path class="cls-3" d="M17,40a1,1,0,0,1-1-1,1,1,0,0,1,1-1h0a1,1,0,0,1,0,2Z" transform="translate(-7 0)"/><path class="cls-3" d="M16,18a1,1,0,0,1-1-1,5,5,0,0,1,5-5,1,1,0,0,1,0,2,3,3,0,0,0-3,3A1,1,0,0,1,16,18Z" transform="translate(-7 0)"/><path class="cls-3" d="M12,18a1,1,0,0,1-1-1,9,9,0,0,1,9-9,1,1,0,0,1,0,2,7,7,0,0,0-7,7A1,1,0,0,1,12,18Z" transform="translate(-7 0)"/><path class="cls-3" d="M24,16H20a1,1,0,0,1-1-1V7a1,1,0,0,1,1-1h4a1,1,0,0,1,1,1v8A1,1,0,0,1,24,16Zm-3-2h2V8H21Z" transform="translate(-7 0)"/><path class="cls-3" d="M16,32.87a1,1,0,0,1-1-1V17a1,1,0,0,1,2,0V31.87A1,1,0,0,1,16,32.87Z" transform="translate(-7 0)"/><path class="cls-3" d="M12,32.87a1,1,0,0,1-1-1V17a1,1,0,0,1,2,0V31.87A1,1,0,0,1,12,32.87Z" transform="translate(-7 0)"/></svg>