<?xml version="1.0" encoding="UTF-8"?>
<!DOCTYPE svg PUBLIC "-//W3C//DTD SVG 1.0//EN" "http://www.w3.org/TR/2001/REC-SVG-20010904/DTD/svg10.dtd">
<svg xmlns="http://www.w3.org/2000/svg" xml:space="preserve"  width="35px" height="24px" version="1.0" style="shape-rendering:geometricPrecision; text-rendering:geometricPrecision; image-rendering:optimizeQuality; fill-rule:evenodd; clip-rule:evenodd"
viewBox="0 0 29700 20141.8"
 xmlns:xlink="http://www.w3.org/1999/xlink">
  <g>
   <rect fill="#878787" x="4640.64" y="0.02" width="20141.76" height="20141.76"/>
   <path fill="#494949" d="M25384.7 5277.65l1899.5 0c428.65,0 755.24,33.44 979.76,101.55 301.38,91.63 560.73,255.1 775.66,490.38 216.12,234.05 379.41,521.35 492.28,861.9 111.67,339.3 168.1,759.11 168.1,1256.92 0,438.38 -52.83,814.82 -158.5,1131.84 -128.46,387.61 -312.17,700.91 -551.11,939.91 -180.12,182.03 -423.84,323.21 -730.02,424.76 -229.34,75.53 -535.53,112.68 -919.74,112.68l-1955.93 0 0 -5319.94zm-19894.6 5319.94l-1125.03 0 -445.44 -1211.07 -2068.76 0 -428.64 1211.07 -1104.63 0 2002.74 -5319.83 1103.41 0 2066.35 5319.83zm-1909.06 -2110.1l-716.8 -1968.93 -696.39 1968.93 1413.19 0zm2588.11 2112.21l0 -4966.5 826.88 0 0 4120.1 2047.23 0 0 846.4 -2874.11 0zm3984.65 -1206.57l830.74 -0.7c53.05,361.14 388.82,444.82 747.85,444.82 264.22,0 463.82,-68.77 597.82,-206.36 134.01,-137.57 201.49,-298.45 201.49,-482.66 0,-118.92 -28.51,-219.17 -84.58,-303.13 -56.08,-82.76 -154.93,-155.04 -295.59,-215.66 -96,-41.98 -314.6,-114.27 -656.75,-219.19 -440.05,-135.24 -748.94,-300.79 -926.67,-497.82 -249.97,-276.3 -374.49,-613.22 -374.49,-1010.78 0,-255.33 58.95,-495.48 175.84,-718.17 117.86,-222.67 287.03,-391.72 508.48,-508.31 221.46,-116.58 487.59,-174.88 801.23,-174.88 808.82,0 1227.7,518.04 1363.18,1023l-817.51 0.82c-120.2,-153.61 -268.04,-184.41 -556.12,-184.41 -237.63,0 -423.89,60.63 -557.91,181.87 -86.49,78.11 -130.22,181.87 -130.22,312.45 0,118.9 40.88,220.36 122.61,304.3 103.59,108.41 355.46,220.33 755.6,336.92 400.13,115.42 695.72,236.66 886.75,360.25 191.99,124.74 342.17,293.79 450.51,509.46 108.35,215.69 162.52,481.51 162.52,797.45 0,286.78 -64.62,556.11 -194.84,806.76 -130.21,250.67 -313.64,437.19 -551.24,558.44 -237.62,122.42 -534.16,183.04 -888.67,183.04 -885.63,0 -1485.88,-430.07 -1570.03,-1297.51zm4299.4 1206.57l0 -5008.46 2655.94 0 0 846.4 -1829.06 0 0 1189.16 1806.09 0 0 846.4 -1806.09 0 0 2126.5 -826.88 0zm3176.44 0l0 -5008.46 3022.39 0 0 846.4 -2195.51 0 0 1112.21 2041.53 0 0 846.42 -2041.53 0 0 1357.03 2275.34 0 0 846.4 -3102.22 0zm4064.12 0l0 -4966.5 826.88 0 0 4120.1 2047.22 0 0 846.4 -2874.1 0zm4735.54 -4423l0 3521.85 774.45 0c289.37,0 498.29,-17.34 626.77,-50.78 169.29,-43.33 308.58,-117.64 419.04,-221.65 111.65,-104.02 201.71,-274.92 271.36,-512.68 70.85,-237.76 105.66,-563.45 105.66,-974.58 0,-411.13 -34.81,-725.68 -105.66,-946.1 -69.65,-220.41 -168.1,-391.31 -294.18,-515.15 -126.06,-122.59 -285.77,-206.8 -480.28,-250.14 -144.09,-33.44 -428.64,-50.77 -851.29,-50.77l-465.87 0z"/>
   <path fill="#FEFEFE" d="M5172.5 10351.81l-1125.03 0 -445.44 -1211.07 -2068.76 0 -428.65 1211.07 -1104.62 0 2002.74 -5319.83 1103.41 0 2066.35 5319.83zm19894.59 -5319.94l1899.5 0c428.66,0 755.25,33.44 979.77,101.55 301.38,91.64 560.73,255.1 775.65,490.38 216.13,234.06 379.41,521.36 492.29,861.9 111.66,339.3 168.09,759.11 168.09,1256.92 0,438.38 -52.82,814.82 -158.49,1131.84 -128.47,387.61 -312.17,700.91 -551.12,939.91 -180.11,182.03 -423.83,323.21 -730.01,424.76 -229.35,75.53 -535.53,112.68 -919.75,112.68l-1955.93 0 0 -5319.94zm1044.6 899.05l0 3521.86 774.46 0c289.36,0 498.29,-17.35 626.76,-50.78 169.3,-43.34 308.58,-117.64 419.05,-221.65 111.65,-104.03 201.7,-274.93 271.35,-512.69 70.85,-237.75 105.66,-563.44 105.66,-974.58 0,-411.13 -34.81,-725.67 -105.66,-946.1 -69.65,-220.41 -168.09,-391.31 -294.17,-515.14 -126.07,-122.6 -285.77,-206.8 -480.28,-250.15 -144.09,-33.44 -428.64,-50.77 -851.29,-50.77l-465.88 0zm-4735.54 4423l0 -4966.5 826.88 0 0 4120.1 2047.23 0 0 846.4 -2874.11 0zm-4064.12 0l0 -5008.46 3022.4 0 0 846.41 -2195.52 0 0 1112.2 2041.54 0 0 846.42 -2041.54 0 0 1357.03 2275.35 0 0 846.4 -3102.23 0zm-3176.43 0l0 -5008.46 2655.94 0 0 846.41 -1829.06 0 0 1189.15 1806.09 0 0 846.4 -1806.09 0 0 2126.5 -826.88 0zm-4299.4 -1206.56l830.73 -0.71c53.06,361.14 388.82,444.83 747.86,444.83 264.22,0 463.82,-68.78 597.82,-206.36 134,-137.58 201.49,-298.45 201.49,-482.67 0,-118.92 -28.51,-219.17 -84.59,-303.13 -56.07,-82.76 -154.93,-155.04 -295.59,-215.66 -95.99,-41.97 -314.59,-114.26 -656.74,-219.19 -440.05,-135.24 -748.94,-300.79 -926.68,-497.81 -249.96,-276.3 -374.48,-613.22 -374.48,-1010.78 0,-255.34 58.95,-495.49 175.84,-718.18 117.86,-222.67 287.03,-391.72 508.47,-508.31 221.47,-116.58 487.6,-174.87 801.24,-174.87 808.81,0 1227.69,518.03 1363.18,1022.99l-817.51 0.82c-120.2,-153.61 -268.04,-184.4 -556.13,-184.4 -237.62,0 -423.89,60.62 -557.91,181.87 -86.49,78.1 -130.21,181.87 -130.21,312.44 0,118.91 40.88,220.36 122.6,304.3 103.59,108.41 355.47,220.34 755.6,336.93 400.14,115.42 695.73,236.65 886.76,360.24 191.99,124.75 342.16,293.79 450.5,509.47 108.36,215.69 162.53,481.5 162.53,797.45 0,286.78 -64.63,556.11 -194.85,806.76 -130.2,250.66 -313.64,437.19 -551.23,558.43 -237.62,122.42 -534.17,183.05 -888.68,183.05 -885.62,0 -1485.87,-430.07 -1570.02,-1297.51zm-3984.65 1206.56l0 -4966.5 826.88 0 0 4120.1 2047.22 0 0 846.4 -2874.1 0zm-2588.12 -2112.2l-716.8 -1968.93 -696.39 1968.93 1413.19 0z"/>
   <path fill="#2B2A29" d="M22019.72 15336.1l0 364.6 -775.88 0 -345.14 0 0 -2499.64 288.98 0 56.16 0 0 2135.04 775.88 0zm-3987.76 -1100.83l669.94 0 0 364.6 -669.94 0 0 736.23 777.37 0 0 364.6 -777.37 0 -345.13 0 0 -2499.64 345.13 0 757.64 0 0 368.11 -757.64 0 0 666.1zm-3018.36 -1034.21l371.23 0 0 1475.94c0,243.08 34.09,424.2 102.24,543.41 68.18,119.19 200.84,179.96 397.98,182.29 197.16,0 331.4,-61.35 402.71,-184.05 71.31,-122.7 106.95,-303.26 106.95,-541.65l0 -1475.94 364.96 0 0 1539.05c0,257.09 -54.02,490.81 -162.02,701.16 -108.02,210.35 -345.55,315.52 -712.6,315.52 -251.67,0 -442.02,-56.09 -571,-168.27 -128.99,-112.2 -211.32,-240.74 -246.97,-385.65 -35.66,-144.91 -53.48,-299.16 -53.48,-462.76l0 -1539.05zm-1593.89 368.11l-611.64 0 0 -368.11 611.64 0 345.13 0 617.46 0 0 368.11 -617.46 0 0 2131.53 -4.72 0 -335.67 0 -4.74 0 0 -2131.53zm-2398.74 781.8l23.8 0 916.36 -1149.91 419.51 0 -833.06 1016.68 889.59 1482.96 -431.41 0 -693.22 -1195.49 -291.57 357.61 0 837.88 -345.13 0 0 -2499.64 345.13 0 0 1149.91zm-2432.45 434.71l731.36 0 -334.92 -1013.18 -27.34 -164.77 -20.51 0 -30.76 164.77 -317.83 1013.18zm-112.78 357.6l-184.54 557.42 -413.52 0 868.05 -2499.64 413.52 0 878.3 2499.64 -420.36 0 -191.38 -557.42 -950.07 0zm12070.68 192.82l0 364.6 -775.88 0 -345.13 0 0 -2499.64 288.97 0 56.16 0 0 2135.04 775.88 0z"/>
  </g>
</svg>
