<?xml version="1.0" encoding="UTF-8"?>
<!DOCTYPE svg PUBLIC "-//W3C//DTD SVG 1.0//EN" "http://www.w3.org/TR/2001/REC-SVG-20010904/DTD/svg10.dtd">
<svg xmlns="http://www.w3.org/2000/svg" xml:space="preserve" width="47px" height="20px" version="1.0" style="shape-rendering:geometricPrecision; text-rendering:geometricPrecision; image-rendering:optimizeQuality; fill-rule:evenodd; clip-rule:evenodd"
viewBox="0 0 29700 12611"
 xmlns:xlink="http://www.w3.org/1999/xlink">

 <g>
  <path fill="#FEFEFE" d="M4565.03 6588.3c-1238.79,924.53 -655.82,-1447.52 1183.2,-1357.49 645.68,31.63 1329.28,226.53 2013.11,421.48 644.99,183.88 1290.43,367.89 1831.13,391.96 499.74,22.22 944.22,-67.17 1266.15,-234.12 348.72,-180.86 567.66,-442.74 934.53,-478.09 220.25,-21.23 308.75,101.56 296.61,214.79 -112.51,1047.86 -213.02,901.06 -962.39,1199.57 -484.82,193.13 -954.89,201.5 -1572.68,173.99 -401.72,-17.89 -818.03,-99.47 -1239.83,-205.46 -41.72,133 -85.83,271.55 -129.95,410.14 -132.44,416.1 -264.95,832.23 -374.26,1253.87l59.49 7.46c766.99,125.67 1203.74,-309.68 1411.58,242.23 57.19,151.9 -97.09,370.65 -327.71,434.68 -377.09,104.74 -958.36,2.97 -1153.36,54.5 -14.33,510.89 -157.2,1247.03 -399.29,1696.87l-4.65 8.69c-409.18,760.31 -813.97,1512.49 -1741.05,1759.69 -429.2,114.39 -889.45,-140 -1172.66,-448.41 -144.71,-157.57 -257.23,-344.92 -308.27,-536.48 -277.89,-1042.53 1555.64,-2197.31 2228.59,-2602.56 79.36,-47.83 158.11,-96.92 240.06,-140.32 -78.21,-69.33 -132.09,-166.66 -144.87,-278.64 -35.69,-312.74 201.93,-477.77 483.89,-494.88 109.6,-410.73 238.61,-816.03 367.63,-1221.28 39.35,-123.66 78.74,-247.38 119.36,-377.65 -621.83,-177.2 -1240.77,-350.35 -1762.42,-375.89 -205.53,-10.05 -385.24,33.21 -555.65,110 -190.75,85.94 -382.84,219.58 -586.29,371.35zm-3962.21 -4379.87c-179.1,128.91 -419.98,212.01 -548.89,32.91 -128.9,-179.09 -8.64,-375.78 170.46,-504.68 3608.17,-2593.18 8872.83,-1128.21 14012.85,798.91 1910.22,-1089.56 3819.4,-1925.16 5726.57,-2285.68 1990.17,-376.21 4076.49,-412.44 6041.63,492.55 660.2,304.47 275.78,1368.58 -521.02,1001.11 -1799.82,-828.86 -3540.07,-1053.73 -5373.34,-707.17 -1617.46,305.75 -3401.45,927.21 -5044.58,1816.95 260.33,99.28 670.09,251.75 928.39,350.71 2310.57,885.23 4523.96,1703.16 6417.71,2098.8 42.4,-172.43 88.05,-345.14 138.45,-518.21 172.54,-607.69 925.12,-1049.38 1211.52,-689.13 108.42,132.49 131.1,319.17 57.08,474.74 -174.62,283.67 -309.49,587.87 -420.38,902.63 1197.54,157.33 2230.79,92.63 3030.83,-304.12 668.52,-329.84 1105.26,664.59 460.2,982.85 -1009.08,500.41 -2293.73,518.84 -3758.52,251.32 -84.49,347.97 -158.88,697.12 -242.22,1035.36 -145.11,588.79 -264.98,1190.51 -417.5,1775.17 -112.38,430.7 -164.14,664.02 -292.03,1129.73 -120.43,438.51 342.81,261.34 502.04,182.97 573.3,-317.25 550.52,-248.16 738.62,-747.77 77.68,-151.63 146.69,-303.61 215.67,-455.49 180.75,-397.97 405.2,-701.51 695.47,-1062.16 452.12,-561.88 1255.53,-250.59 1266.12,-289.07 7.46,-237.22 397.87,-337.84 593.41,-199.6 186.63,131.9 217.08,346.4 113.61,750.71 -85.62,334.52 -233.22,700.25 -319.45,980.61 -83.56,271.71 -90.19,378.4 -223.42,683.56 -144.34,359.4 332.11,394.18 433.8,318.65 273.51,-203.22 801.83,-518.3 953.04,-1133.82 222.36,-905.07 370.38,-1720.25 655.52,-2632.08 116.53,-413.4 367.47,-689.75 538.35,-855.74 597.95,-580.01 892.16,66.42 739.05,487.52 -158.34,435.39 -365.83,807.69 -479.61,1243.07 -209.28,800.74 -652.98,2073.38 -710.25,2842.97 -14.89,200.49 444.69,13.26 687.82,-202.6 176.29,-156.52 901.38,-869.61 1076.14,-655.84 142.79,179.63 -91.39,375.79 -278.32,529.45 -602.92,497.04 -843.35,731.81 -1459.28,1169.92 -186.47,132.64 -808.46,186.2 -931.4,-50.09 -65.83,-126.42 -134.76,-290.62 -240.78,-460.3 -401.43,229.18 -583.27,326.83 -964.91,524.18 -360.38,186.4 -525.15,35.97 -639.99,-284.2 -19.76,7.43 -39.73,14.49 -59.84,21.2 -346.29,115.38 -825.87,261.1 -1155.55,170.7 -222.68,-61.04 -385.2,-475.89 -478.06,-603.78 -282.09,188.8 -1042.99,814.37 -1527.25,806.62 -406.26,37.65 -671.27,-474.29 -730.6,-806.3 -273.96,79.63 -1271.52,1307.86 -1558.72,660.74 -140.35,-316.21 -266.61,-511.16 -357.57,-468.81 -126.29,82.92 -353.86,277.33 -593.94,336.77 -124.76,30.88 -241.61,34.68 -349.53,13.34 -233.69,-46.28 -400.7,-186.93 -499.12,-409.15 -65.97,-148.82 -93.03,-334.6 -79.76,-549.21 19.76,-320.94 131.84,-739.15 341.61,-1214.24 37.4,-84.76 91.6,-190.03 148.72,-297.63 247.81,-466.91 -623.54,-576.67 -771.33,29.87 -70.67,290.08 -34.89,226.18 -99.17,441.48 -115.51,386.85 -157.68,731.72 -356.29,1056.67 -337.87,552.39 -769.96,1258.8 -1537.62,1246.39 -25.83,-0.43 -48.4,-1.63 -67.84,-3.56 -370.62,-37.06 -625.86,-299.12 -778.78,-637.28 -32.54,-71.95 -60.46,-148.45 -83.77,-227.12 -301,254.9 -1269.25,997.27 -1666.1,1003.66 -457.2,7.19 -546.19,-519.48 -596.46,-894.4 -86.68,55.99 -459.47,254.31 -550.44,303.74 -454.84,247.44 -589.02,444.4 -1052.85,500.68 -327.57,39.71 -594.34,-103.29 -798.25,-332.44 -197.41,-221.82 -331.29,-537.49 -388.21,-805.57 -67.73,-318.89 -66.1,-668.38 -6.66,-1004.38 78.4,-442.98 605.09,-1230.98 1002.74,-1472.01 234.07,-141.87 502.34,-226.1 772.58,-212.19 486.97,25 869.65,509.45 720.95,1200.85 -73.18,284.31 -176.55,449.95 -386.9,637.34 -183.96,163.9 -401.64,294.92 -606.4,396.39 -234.69,116.29 -450.57,116.08 -663.09,95.03 20.91,247.82 9.79,558.76 250.14,624.27 348.35,94.94 751.38,-174.66 1107.69,-368.49 313.83,-170.69 638.41,-386.07 835.31,-627.9 87.54,-221.42 158,-850.92 208.99,-1125.6 137.62,-741.52 181.04,-1685.25 623.7,-2302.88 431.08,-601.54 1522.83,-849.78 1106.38,94.73 -54.22,122.95 -127.41,380.38 -199.39,573.76 -269.57,724.26 -709.77,1934.63 -906.29,2925.91 -44.74,225.8 -69.9,453 -102.12,674.23 -78.53,539.45 625.2,-305.27 899.96,-539.04 198.48,-163.24 359.13,-242.5 537.87,-973.95 31.05,-127.01 728.81,-1120.13 1378.45,-1086.39 236.16,12.28 181.02,395.04 7.52,536.22 -222.92,181.39 -582.39,708.81 -728.09,1273.95 -143.91,558.22 87.16,838.63 258.34,858.44 191.02,22.11 529.85,-402.17 756.3,-845.02 158.61,-310.19 238.05,-646.26 275.92,-773.03 84.17,-281.85 141.39,-570.89 187.24,-854.67 13.05,-80.8 22.22,-163.16 26.42,-245.38 -22.7,-43.85 -44.41,-88.13 -66.15,-132.33 -32.06,-65.35 -64.09,-130.56 -103.77,-194.36 -79.15,-127.14 -546.29,-510.6 -757.85,-918.3 -89.52,-172.49 -219.31,-475.28 -143.29,-720.95 168.02,-542.93 769.56,-405.2 1074.46,-104.15 886.54,875.47 581.05,1434.41 843.86,1896.05 102.3,179.66 861.89,530.55 1153.26,405.81 231.45,-99.07 606.16,-111.87 941.43,-84.25 34.55,-179.02 134.87,-243.4 286.61,-277.23 259.55,-57.89 395.81,49.09 467.26,352.52 175.11,743.79 -450.09,1609.82 -251.5,2390.63 92.51,363.73 677.36,-184.22 851.13,-326.34 542.05,-479.12 726.76,-2370.76 828.76,-2808.69 85.59,-367.38 159.18,-735.22 235.73,-1104.05 -1969.42,-482.98 -4203.85,-1371.45 -6502.31,-2252.02 -5455.85,-2090.23 -11437.32,-4381.85 -15106.93,-1744.5zm24755.26 6536.24c-426.53,-79.28 -769.8,429.82 -936.28,1133.31 -105.35,445.2 617.77,368.59 808.79,-137.86 177.86,-471.64 354.44,-953.25 127.49,-995.45zm-6737.88 1194.3c-30.59,515.97 640.74,331 892.32,-152.06 190.38,-365.51 364.04,-906.33 236.53,-944.8 -531.4,-160.41 -960.58,482.76 -1128.85,1096.86zm-8163.06 -798.7c64.2,4.41 117.41,3.23 145.48,-10.7 142.28,-70.48 290.95,-159.23 410.57,-265.8 88.67,-78.99 157.87,-164.02 184.53,-250.3 -1.66,-18.03 -16.26,-47.44 -38.21,-79.44l-29.5 -42.3c-79.89,1.87 -167.67,34.3 -251.77,85.29 -117.51,71.23 -220.16,174.68 -287.09,285.49 -51.39,85.08 -96.31,178.69 -134.01,277.76zm-3681.72 656.85c-733.97,442.66 -1393.34,857.91 -1750.62,1582.79 14.11,47.11 52.19,103.74 104.14,160.32 63.72,69.39 139.26,127.68 213.88,163.45l0.65 -1.39c45.72,21.82 79.27,34.66 88.87,32.12 557.23,-148.59 872.56,-734.48 1191.31,-1326.77l4.65 -8.69c91.66,-170.32 129.28,-378.85 147.12,-601.83z"/>
 </g>
</svg>
