<?xml version="1.0" encoding="UTF-8"?>
<!DOCTYPE svg PUBLIC "-//W3C//DTD SVG 1.0//EN" "http://www.w3.org/TR/2001/REC-SVG-20010904/DTD/svg10.dtd">
<svg xmlns="http://www.w3.org/2000/svg" xml:space="preserve"  width="113px" height="18px" version="1.0" style="shape-rendering:geometricPrecision; text-rendering:geometricPrecision; image-rendering:optimizeQuality; fill-rule:evenodd; clip-rule:evenodd"
viewBox="0 0 29700 4522.5"  xmlns:xlink="http://www.w3.org/1999/xlink">
 <g>
  <path fill="#FEFEFE" fill-rule="nonzero" d="M23657.39 3852.69l-689.82 0 0 -1934.02c0,-100.01 47.55,-452.87 -109.29,-452.87 -156.84,0 -170.26,205.24 -170.26,485.65l0 1792 144.28 0 0 109.24 -698.84 0 0 -1934.02c0,-98.57 29.8,-451.43 -108.43,-451.43 -138.23,0 -166.6,192.87 -166.6,451.43l0 1824.78 135.26 0 0 109.24 -829.6 0 0 -109.24 139.78 0 0 -2409.07 -139.78 0 0 -133.29 694.34 0 0 111.15c212.97,-111.15 295.29,-111.15 383.23,-111.15 90.8,0 340.55,88.18 383.25,165.79 47.17,-32.5 224.48,-165.79 449.79,-165.79 446.44,0 447.43,366.97 447.43,695.73l0 1846.63 135.26 0 0 109.24zm-7059.84 0l-694.33 0 0 -126.43 139.76 0 0 -3471.74 -166.81 0 0 -133.29 581.6 0 0 3605.03 139.78 0 0 126.43zm-1727.52 -1316.21l-338.32 -1731.73 -381.09 1730.81 719.41 0.92zm893.93 1316.21l-786.86 0 0 -136.56 105.91 0 -166.52 -921.48 -819.43 0 -216.61 921.48 170.96 0 0 136.56 -780.16 0 0 -136.56 177.58 0 868.67 -3461.61 -106.32 0 0 -133.29 139.77 0 615.06 0 693.28 3594.9 104.67 0 0 136.56zm-2707.75 -2283.67c0,142.05 -25.57,254.96 -76.65,338.72 -51.09,83.77 -120.23,125.66 -207.4,125.66 -75.15,0 -136.02,-30.05 -182.6,-90.15 -135.85,-175.24 -67.55,-450.24 180.39,-450.24 129.76,0 97.49,-193.39 -106.1,-193.39 -156.2,0 -282.75,151.32 -305.28,229.61 -22.52,78.29 -33.81,307.52 -33.81,471.39l0 1742.83 157.8 0 0 109.24 -852.14 0 0 -109.24 139.78 0 0 -2409.07 -139.78 0 0 -133.29 671.8 0 22.54 116.61c141.61,-116.61 213.41,-224 326.88,-224 274.79,0 404.57,307.58 404.57,475.32zm-3219.25 2283.67l-694.33 0 0 -1927.65c0,-167.54 -6.78,-331.76 -20.3,-382.75 -13.51,-50.98 -42.83,-76.49 -87.91,-76.49 -63.12,0 -106.71,33.7 -130.76,101.07 -24.03,67.38 -36.06,239.82 -36.06,407.35l0 1769.23 135.26 0 0 109.24 -829.59 0 0 -109.24 139.77 0 0 -2409.07 -139.77 0 0 -133.29 694.33 0 0 122.07c98.9,-66.37 267.08,-122.07 383.24,-122.07 396.69,0 446.36,291.55 446.36,624.71l0 1917.65 139.76 0 0 109.24zm-7023.08 0l-829.59 0 0 -109.24 139.77 0 0 -2409.07 -139.77 0 0 -133.29 694.33 0 0 2542.36 135.26 0 0 109.24zm-437.33 -3036.81c-436.67,0 -481.29,-689.45 0.28,-689.45 446.09,0 399.35,689.45 -0.28,689.45zm-633.17 1187.8l-164.87 0 0 1849.01 -180.34 0 -58.61 -256.78c-141.7,188.86 -183.42,301.65 -532.06,301.65 -283.06,0 -571,-144.52 -720.06,-484.67 -141.24,-322.31 -68.93,-793.09 -68.93,-1412.27 0,-597.33 -31.43,-1129.42 109.78,-1473.55 252.9,-616.35 991.58,-687.58 1388.47,-237.65l58.61 -168.19 125.7 0 0 978.44 -133.35 0 0 -126.65c0,-294.72 -350.71,-805.46 -567.28,-805.46 -229.63,0 -337.18,269.59 -337.18,953.46l0 1808.37c0,189.33 -16.77,796.87 266.82,796.87 217.61,0 234.57,-507.93 234.57,-665.75l0 -1056.83 -158.74 0 0 -244.67 737.47 0 0 244.67zm26363.66 1893.88l-694.32 0 0 -1927.65c0,-167.54 -6.78,-331.76 -20.31,-382.76 -13.51,-50.98 -42.83,-76.49 -87.91,-76.49 -63.11,0 -106.71,33.7 -130.75,101.08 -24.03,67.37 -36.06,239.81 -36.06,407.34l0 1769.23 135.25 0 0 109.25 -829.59 0 0 -109.25 139.77 0 0 -2409.07 -139.77 0 0 -133.28 694.34 0 0 122.07c98.9,-66.37 267.07,-122.07 383.23,-122.07 396.7,0 446.36,291.54 446.36,624.7l0 1917.65 139.76 0 0 109.25zm-1828.46 -44.87l-829.6 0 0 -109.24 139.78 0 0 -2409.07 -139.78 0 0 -133.29 694.34 0 0 2542.36 135.26 0 0 109.24zm-437.33 -3036.81c-436.67,0 -481.29,-689.45 0.27,-689.45 446.1,0 399.35,689.45 -0.27,689.45zm3338.61 1490.69l0 -497.17c0,-291.38 17.58,-475.02 -146.53,-475.02 -164.11,0 -173.58,207.34 -173.58,546.04l0 426.15 320.11 0zm518.49 622.5c0,415.06 53.04,968.49 -731.54,968.49 -784.57,0 -675.15,-957.44 -675.15,-1416.17 0,-454.91 -79.16,-1393.15 698.84,-1393.15 778,0 707.85,875.07 707.85,1333.06l0 152.55 -834.09 0.42 -4.51 305.95c-3,204.22 -46.52,846.04 266.85,846.04 421.06,0 372.51,-521.04 372.51,-797.83l199.24 0.64zm-4900.73 -622.5l0 -497.17c0,-291.38 17.58,-475.02 -146.53,-475.02 -164.11,0 -173.57,207.34 -173.57,546.04l0 426.15 320.1 0zm518.5 622.5c0,415.06 53.03,968.49 -731.54,968.49 -784.58,0 -675.16,-957.44 -675.16,-1416.17 0,-454.91 -79.16,-1393.15 698.84,-1393.15 778,0 707.86,875.07 707.86,1333.06l0 152.55 -834.1 0.42 -4.5 305.95c-3.01,204.22 -46.52,846.04 266.84,846.04 421.06,0 372.52,-521.04 372.52,-797.83l199.24 0.64zm-4916.23 -622.5l0 -497.17c0,-291.38 17.58,-475.02 -146.53,-475.02 -164.11,0 -173.58,207.34 -173.58,546.04l0 426.15 320.11 0zm518.5 622.5c0,415.06 53.03,968.49 -731.55,968.49 -784.57,0 -675.15,-957.44 -675.15,-1416.17 0,-454.91 -79.16,-1393.15 698.84,-1393.15 778,0 707.86,875.07 707.86,1333.06l0 152.55 -834.1 0.42 -4.51 305.95c-3,204.22 -46.51,846.04 266.85,846.04 421.06,0 372.51,-521.04 372.51,-797.83l199.25 0.64zm-9982.69 -622.5l0 -497.17c0,-291.38 17.58,-475.02 -146.53,-475.02 -164.11,0 -173.58,207.34 -173.58,546.04l0 426.15 320.11 0zm518.49 622.5c0,415.06 53.04,968.49 -731.54,968.49 -784.57,0 -675.16,-957.44 -675.16,-1416.17 0,-454.91 -79.15,-1393.15 698.84,-1393.15 778,0 707.86,875.07 707.86,1333.06l0 152.55 -834.1 0.42 -4.5 305.95c-3,204.22 -46.52,846.04 266.85,846.04 421.05,0 372.51,-521.04 372.51,-797.83l199.24 0.64zm-4031.25 -622.5l0 -497.17c0,-291.38 17.57,-475.02 -146.54,-475.02 -164.11,0 -173.57,207.34 -173.57,546.04l0 426.15 320.11 0zm518.49 622.5c0,415.06 53.03,968.49 -731.54,968.49 -784.58,0 -675.16,-957.44 -675.16,-1416.17 0,-454.91 -79.16,-1393.15 698.84,-1393.15 778,0 707.86,875.07 707.86,1333.06l0 152.55 -834.1 0.42 -4.5 305.95c-3.01,204.22 -46.52,846.04 266.85,846.04 421.05,0 372.51,-521.04 372.51,-797.83l199.24 0.64zm-4058.29 -622.5l0 -497.17c0,-291.38 17.57,-475.02 -146.53,-475.02 -164.11,0 -173.58,207.34 -173.58,546.04l0 426.15 320.11 0zm518.49 622.5c0,415.06 53.04,968.49 -731.54,968.49 -784.58,0 -675.16,-957.44 -675.16,-1416.17 0,-454.91 -79.16,-1393.15 698.84,-1393.15 778,0 707.86,875.07 707.86,1333.06l0 152.55 -834.1 0.42 -4.5 305.95c-3,204.22 -46.52,846.04 266.85,846.04 421.05,0 372.51,-521.04 372.51,-797.83l199.24 0.64zm13121.4 923.62l-694.33 0 0 -126.43 139.76 0 0 -3471.74 -166.81 0 0 -133.29 581.61 0 0 3605.03 139.77 0 0 126.43zm-11295.48 -1045.81c0,725.72 84.88,1045.81 -683.45,1045.81l0 -109.24c106.72,0 109.47,-19.65 124.41,-75.41 30.14,-112.5 29.67,-591.12 29.67,-881.42 0,-264.24 -24.38,-1253.64 -73.08,-1369 -23.87,-56.53 -41.92,-79.08 -94.67,-79.08l0 -271.74c161.23,0 135.34,-309.49 135.34,-441.89 0,-431.73 -174.26,-583.25 -255.36,-433.3l-68.51 126.66 0 618.03 0 113.37 0 284.71 0 145.73 0 2138.01 0 108.14 0 123.59c-44.07,1.89 -89.75,2.84 -137.03,2.84l-625.78 0 0 -109.24 155.29 0 0 -3191.7c233.08,-660.9 1534.77,-771.83 1534.77,15.29 0,420.56 -132.46,475.18 -397.39,616.61 474.92,274.19 355.79,1158.01 355.79,1623.23zm11592.62 1192.01l208.58 1.25c5.61,179.13 253.45,348.84 419.72,344.27 184.65,-5.06 261.94,-152.14 261.94,-600.97 -34.43,57.87 -82.83,118.64 -224.04,118.64 -700.57,0 -724.32,-529.45 -724.32,-1206.69 0,-691.16 -49.99,-1567.17 512.6,-1567.17 238.04,0 327.15,137.02 436.26,246.15l0 -133.27 526.67 0 0 2334.76c0,371.53 -26.85,431.37 -79.63,586.18 -89.04,261.16 -355.49,400.47 -676.42,400.47 -281.93,0 -667.66,-148.94 -661.36,-523.62zm489.18 -1372.66c0,135.78 -2.02,486.92 8.66,664.03 16.43,272.96 63.07,358.2 193.64,358.2 135.11,0 178.51,-98.14 192.09,-378.17 8.04,-166.35 5.6,-502.95 5.6,-631 0,-183.53 4.08,-612.62 -16.82,-887.54 -22.12,-291.07 -133.12,-423.47 -246,-423.47 -112.87,0 -101.21,131.31 -122.3,420.22 -19.91,272.69 -14.87,698.4 -14.87,877.73z"/>
 </g>
</svg>
