<?xml version="1.0" encoding="UTF-8"?>
<!DOCTYPE svg PUBLIC "-//W3C//DTD SVG 1.0//EN" "http://www.w3.org/TR/2001/REC-SVG-20010904/DTD/svg10.dtd">
<svg xmlns="http://www.w3.org/2000/svg" xml:space="preserve" width="108" height="16" version="1.0" style="shape-rendering:geometricPrecision; text-rendering:geometricPrecision; image-rendering:optimizeQuality; fill-rule:evenodd; clip-rule:evenodd"
viewBox="0 0 29700 4092.7" xmlns:xlink="http://www.w3.org/1999/xlink" fill="#FEFEFE">

  <g>
   <path d="M1196.25 211.63c134.57,42.78 266.15,94.16 393.86,153.65 144.42,91.92 254.92,226.61 315.16,384.26 197.05,488.26 251.55,1020.18 157.64,1536.76 -34.3,461.46 -245.32,893.48 -590.91,1210.26 -393.98,345.84 -827.38,19.21 -1063.71,-192.06 -59.12,-38.42 -98.53,19.2 -118.24,57.62 0,76.82 0,153.65 -78.82,192.19 -78.7,38.41 -137.81,0 -157.52,-38.54 -197.05,-441.75 196.93,-691.56 393.99,-768.39 196.92,-76.82 98.4,-384.25 0,-557.11 -121.98,-291.46 -214.39,-593.9 -275.88,-902.83 -14.09,-116.73 -0.62,-235.09 39.41,-345.84 27.44,-82.19 67.22,-159.89 118.23,-230.48 118.24,-192.19 236.34,-307.43 354.58,-461.08 59.11,-57.62 59.11,-153.77 118.23,-192.19 58.99,-38.41 137.81,19.21 216.63,57.75l196.93 76.82 -19.58 19.21zm-137.94 1517.56c57.37,153.78 84.06,316.78 78.82,480.29 -39.41,249.81 -59.11,269.01 -334.86,576.32 123.34,123.59 254.92,239.21 393.98,345.84 28.68,22.45 69.59,22.45 98.4,0 33.3,-61.11 59.74,-125.47 78.82,-192.19 95.16,-540.28 95.16,-1092.53 0,-1632.8 -18.08,-152.03 -87.3,-293.96 -196.93,-403.46 -118.23,-96.03 -275.87,-269.02 -453.09,-192.07 -59.12,364.93 196.92,653.15 295.45,998.87l39.41 19.2zm1831.98 -1095.02l0 345.84c0,19.21 39.41,38.42 58.99,19.21 118.23,-96.03 197.05,-268.89 354.57,-249.68 218.25,14.84 397.47,173.73 433.39,384.13 37.42,659.38 30.81,1320.25 -19.7,1978.76 -39.41,211.27 -650.03,422.55 -827.25,595.53 -262.91,-74.83 -505.23,-206.16 -709.15,-384.26 -14.09,-23.82 -14.09,-53 0,-76.82 42.78,-41.41 70.47,-95.41 78.7,-153.65l0 -2497.47c0,-153.65 -256.05,-326.51 -39.29,-384.13 118.11,-38.41 216.64,96.03 334.87,57.62 256.04,-153.65 315.16,-249.81 630.32,-249.81 59.12,0 118.11,115.36 59.12,134.57 -197.06,115.24 -393.98,153.65 -354.57,460.96l0 19.2zm157.51 595.53c-66.35,6.23 -121.47,52.38 -137.81,115.36 -19.7,576.32 -39.41,1152.64 0,1728.96 0,38.41 118.11,38.41 137.81,96.03 60.99,-600.01 74.21,-1203.77 39.42,-1805.78 0,0 0,-134.57 -39.42,-134.57zm1378.88 -345.72c164.5,-73.96 336.11,-131.82 512.21,-172.86 39.42,0 78.83,57.62 98.41,96.04 98.52,307.3 118.23,614.73 197.05,902.83 39.41,76.82 78.82,192.18 0,230.6 -197.05,153.65 -453.1,153.65 -650.03,307.3 39.41,269.02 -137.93,845.34 256.05,806.92 0,0 295.45,-192.19 295.45,0 -95.65,227.99 -252.05,426.91 -452.97,576.32 -197.05,115.24 -669.86,-192.19 -709.14,-384.25 -103.27,-687.94 -103.27,-1386.86 0,-2074.8 39.28,-172.86 295.45,-230.48 452.97,-288.1zm236.46 768.39c-14.71,-71.72 -34.42,-142.31 -59.11,-211.28 -25.82,152.66 -25.82,308.43 0,461.08 0,10.61 8.73,19.21 19.7,19.21 98.41,-57.62 59.12,-192.19 39.41,-269.01zm1398.59 -614.74c0,38.42 39.28,38.42 58.99,76.83 78.82,-115.24 78.82,-268.89 197.05,-364.92 22.45,-19.58 56.37,-19.58 78.82,0 115.24,133.07 196.31,291.21 236.34,460.95 59.12,153.78 -98.53,345.84 -236.34,499.5 -137.94,153.77 -137.94,-192.07 -236.46,-192.07l-39.41 115.24c-57.37,439.5 -70.47,883.5 -39.41,1325.5 0,57.74 98.52,134.57 157.64,115.36 59.12,-19.21 78.82,-57.62 157.64,-38.41 39.29,19.2 78.7,96.03 58.99,153.65 -118.1,153.65 -256.04,249.68 -374.27,384.25 -12.6,38.04 -41.91,68.6 -79.95,83.44 -38.04,14.84 -80.94,12.47 -116.98,-6.61 -183.96,-110.38 -355.57,-239.21 -512.09,-384.26 -19.71,-19.2 -39.41,-96.03 -19.71,-115.23 68.35,-59.12 110.63,-141.68 118.11,-230.61l0 -1536.77c0,-115.23 -196.93,-115.23 -137.81,-192.18 78.69,-172.86 177.22,-384.13 354.57,-441.75 177.22,-57.62 315.16,115.24 393.86,268.89l-19.58 19.2z"/>
   <path d="M7401.19 864.78l0 153.65c157.52,-57.62 236.34,-268.89 393.98,-307.31 157.52,-38.53 413.57,192.07 433.27,422.55l0 2017.18c2.37,169.61 -45.52,336.36 -137.81,480.28 -157.64,230.48 -472.81,460.96 -768.26,422.54 -39.41,0 -78.82,-76.82 -59.12,-115.23 177.35,-172.86 393.99,-422.67 295.46,-672.36 -98.03,144.55 -217.51,274.01 -354.57,384.26 -36.54,20.58 -81.57,20.58 -118.11,0 -173.61,-100.4 -327.01,-230.6 -453.1,-384.26 -39.41,-57.62 118.23,-96.03 118.23,-172.85 39.29,-826.13 39.29,-1671.34 0,-2497.47 0,-115.24 -137.93,-211.27 -98.52,-326.51 59.11,-211.4 196.93,-38.41 315.16,-19.21 196.93,0 354.57,-269.01 669.73,-192.19 33.8,6.36 61.74,29.31 73.83,60.74 12.1,31.3 6.49,66.6 -14.71,93.04 -78.83,115.24 -275.75,96.03 -295.46,249.68 -11.97,140.69 -11.97,281.99 0,422.67l0 -19.2zm236.34 1018.19c13.35,-194.06 -6.73,-388.75 -59.12,-576.32 0,-19.21 -59.11,0 -78.82,0 -19.7,0 -78.69,57.62 -78.69,96.03 -39.41,576.32 -39.41,1152.64 0,1690.55 0,57.62 137.81,0 177.22,96.03 19.7,-441.88 0,-864.54 39.41,-1306.29zm1319.76 -998.99c167.37,-83.31 346.71,-141.68 531.92,-172.86 149.16,397.85 254.8,809.92 315.16,1229.47 -39.41,38.41 -669.73,268.89 -689.44,307.3 -137.93,211.4 0,768.51 0,710.77 35.55,83.31 125.59,131.2 216.64,115.36 48.14,-29.06 94.16,-61.11 137.93,-96.16 98.41,-57.62 157.52,96.16 157.52,76.95 -19.7,192.07 -315.16,441.75 -472.68,614.74 -237.08,-20.33 -456.46,-130.71 -610.74,-307.43 -70.96,-94.29 -105.88,-209.78 -98.4,-326.51 0,-614.74 0,-1191.05 39.41,-1805.91 0,-192.07 295.46,-288.1 472.68,-345.72zm197.05 633.94c-15.46,-34.3 -35.29,-66.6 -59.11,-96.03 -21.95,159.39 -21.95,320.9 0,480.28 0,38.42 39.41,38.42 59.11,19.21 98.41,-76.82 0,-384.25 0,-384.25l0 -19.21zm1319.76 -633.94c54.26,38.54 95.41,92.04 118.24,153.65 39.28,742.32 39.28,1486.14 0,2228.45 7.98,254.3 -53.13,506.23 -177.35,729.98 -19.71,57.61 -256.05,38.41 -275.75,-19.21 -295.46,-902.83 -78.82,-2286.07 -197.06,-2766.36 0,19.21 -275.75,-57.62 -137.81,-192.06 295.46,-268.89 0,-384.26 157.52,-826.01 98.53,-230.6 354.57,-96.15 531.92,-96.15 59.11,0 177.22,-115.24 236.34,0 61.61,144.79 46.89,309.67 -39.41,441.87 -137.82,192.19 -315.16,0 -413.69,57.62 -177.22,57.62 78.82,230.6 197.05,307.43l0 -19.21zm1083.42 864.42c0,633.94 39.41,1671.34 -177.34,2247.66 0,38.41 -236.34,76.82 -275.75,19.2 -125.84,-304.93 -186.21,-631.82 -177.23,-960.45 -39.41,-614.73 0,-1229.59 0,-1825.11 -59.11,0 -256.17,-76.83 -118.23,-230.48 49.64,-42.9 89.8,-95.16 118.23,-153.65 58.99,-249.81 -197.05,-557.11 118.11,-729.97 157.64,-96.16 236.46,0 413.69,0 78.82,0 19.7,-96.16 177.34,-57.75 21.71,12.1 36.3,33.43 39.29,57.75 30.93,113.24 30.93,232.47 0,345.71 -11.85,72.84 -65.48,132.45 -137.81,153.66 -87.3,19.2 -178.72,5.48 -256.05,-38.42 -98.52,-38.41 -118.23,76.83 -78.82,134.57 78.82,115.24 256.05,153.66 315.16,288.1 98.53,230.48 39.41,499.49 39.41,768.38l0 -19.2zm846.96 -845.21c98.53,96.03 275.87,153.65 256.17,268.89 0,57.62 -118.23,96.16 -118.23,153.78 -38.91,594.9 -38.91,1191.67 0,1786.57 0,76.83 196.93,76.83 196.93,134.45 0,115.24 -256.05,384.25 -315.17,422.67 -157.51,115.23 -472.67,-134.57 -492.38,-269.02 -78.82,-672.35 19.71,-1344.7 -39.41,-2093.88 -98.53,19.21 -197.05,-57.75 -197.05,-134.57 120.22,-176.1 282.48,-321.15 472.8,-422.54 59.12,-19.21 177.22,96.03 236.34,153.65zm39.41 -345.84c-59.12,57.62 -137.81,115.24 -196.93,115.24 -137.94,0 -236.46,-96.04 -334.86,-192.07 -36.92,-43.28 -57.75,-97.4 -59.12,-153.65 0,-134.45 59.12,-192.07 196.93,-211.27 178.97,-66.23 381.13,-20.71 512.21,115.24 98.53,115.24 0,230.47 -118.23,326.51zm1950.21 192.19c58.99,-38.42 98.4,19.2 137.81,76.82 36.67,-133.07 7.48,-275.12 -78.82,-384.25 -58.99,-134.45 19.7,-230.48 137.94,-192.07 69.71,44.78 155.52,58.74 236.33,38.42 197.06,-115.24 354.58,-230.61 650.03,-153.66 39.41,0 39.41,115.24 0,153.66 -98.4,76.82 -236.34,57.62 -275.75,192.06 -39.41,134.45 -98.4,480.29 0,576.32 236.47,-153.65 256.17,-384.25 492.51,-307.3 135.94,55 237.96,168.61 275.75,307.3 39.41,826.13 98.53,1594.51 -59.11,2439.72 -39.42,288.22 -452.98,499.5 -709.15,576.32 -315.16,96.16 -98.4,-192.06 -157.52,-134.44 196.93,-288.1 354.58,-345.72 315.16,-691.56 -137.93,115.24 -334.86,441.87 -492.5,384.25 -157.52,-57.62 -275.75,-249.81 -433.4,-192.19 -98.4,38.42 -157.52,153.78 -256.04,192.19 -207.03,26.19 -407.2,-83.18 -492.39,-269.01 -54,-716.26 -54,-1435.38 0,-2151.63 0,-249.68 452.98,-345.71 709.15,-460.95zm0 864.41c-20.21,-69.46 -53.63,-134.69 -98.53,-192.06l0 1613.72c0,76.82 236.34,249.68 236.34,96.03l0 -1536.89c0,-38.42 -118.11,0 -118.11,0l-19.7 19.2zm984.89 326.64l0 -537.91c0,-19.21 -19.71,-76.82 -59.12,-76.82 -98.52,-19.21 -157.64,76.82 -157.64,134.44 -29.68,550.25 -29.68,1101.75 0,1652.13 0,38.42 59.12,38.42 118.23,38.42 59.12,0 59.12,57.61 98.53,96.03l0 -1306.29z"/>
   <path d="M13409.08 1863.76c0,710.77 78.82,1383.12 -98.4,2113.09 -18.59,48.26 -60.74,84.31 -112.25,95.91 -51.51,11.6 -105.51,-2.75 -143.92,-38.29 -136.19,-176.6 -205.79,-393.73 -196.93,-614.73 -41.91,-318.53 -61.61,-639.43 -59.12,-960.45l0 -710.89c19.71,-165.88 19.71,-333.5 0,-499.5l-137.81 -19.2c-29.68,-40.16 -29.68,-94.29 0,-134.45 295.45,-249.68 0,-518.7 157.52,-826 98.52,-230.6 334.86,-96.03 512.21,-115.24 58.99,0 196.93,-38.41 196.93,0 89.92,165.13 57.87,368.29 -78.82,499.37 -137.81,96.16 -275.75,-38.41 -393.98,0 -21.7,0 -39.29,17.21 -39.29,38.54 15.84,34.04 35.67,66.22 58.99,96.03 118.23,134.44 334.87,192.06 354.57,384.13 12.6,236.84 12.6,474.05 0,710.89l-19.7 -19.21zm3230.55 -922.16c192.69,-76.08 390,-140.18 590.91,-192.06 177.35,326.51 197.06,729.97 275.88,1114.22 0,38.41 39.41,115.24 0,153.65 -228.48,76.95 -452.1,166.75 -669.73,268.89 19.58,288.23 -137.94,768.51 236.34,806.93 78.82,0 196.93,-230.61 334.86,0l-39.41 76.82c-177.22,172.86 -295.45,384.26 -472.8,518.7 -236.34,-76.82 -492.39,-134.44 -590.91,-345.84 -58.25,-120.48 -91.79,-251.06 -98.53,-384.25l0 -960.45c-27.56,-270.27 -7.61,-543.15 59.12,-806.92 82.31,-131.71 218.63,-222.63 374.27,-249.69zm275.75 691.56c0,0 0,-153.65 -78.69,-192.07 -37.92,157.9 -37.92,322.27 0,480.29 0,38.41 118.1,0 118.1,-38.41 -7.1,-90.42 -20.2,-180.34 -39.41,-269.02l0 19.21zm1969.92 -1114.23c26.93,-66.72 59.98,-130.95 98.4,-192.06 59.11,-115.24 197.05,-153.65 275.87,-192.07 83.81,-25.31 169.37,-44.52 256.05,-57.74 206.65,-41.53 421.54,-14.47 610.61,76.95 284.23,111.62 476.3,373.9 492.51,672.35 23.7,201.79 -3.24,406.21 -78.82,595.53 -76.45,154.65 -200.42,282.23 -354.57,364.92 204.79,96.91 360.93,270.01 433.39,480.29 147.29,455.09 119.23,946.85 -78.82,1383.24 -85.18,148.54 -226.61,258.91 -393.98,307.3 -393.98,115.24 -847.08,134.45 -1142.54,-192.06 -31.05,-48.77 -57.49,-100.15 -78.69,-153.65 -137.94,-269.02 39.28,-557.12 -118.24,-691.69 -39.41,-38.41 -118.23,-38.41 -137.93,-115.24 -19.71,-76.82 0,-192.06 78.82,-211.27 200.04,-45.15 410.07,-17.83 590.91,76.83 354.57,211.27 118.23,653.14 295.58,979.78 39.29,96.03 236.34,96.03 256.04,0 85.06,-424.17 98.41,-858.93 39.42,-1287.21 14.71,-124.72 -37.42,-248.06 -137.94,-326.51 -37.42,-17.34 -80.82,-17.34 -118.23,0 -59,38.41 -137.82,57.62 -157.52,134.45 -19.71,76.82 19.7,211.27 -78.82,249.8 -39.41,19.21 -236.34,19.21 -256.05,-19.33 -53,-103.89 -59.86,-224.61 -18.83,-333.62 41.03,-109 126.09,-196.68 235.47,-242.7 -117.49,-84.93 -201.17,-207.15 -236.34,-345.71 -44.4,-179.1 35.29,-365.67 196.92,-461.08 86.43,-52.01 193.19,-60.37 286.98,-22.2 93.79,38.04 162.88,117.86 185.83,214.26 18.58,70.34 2.24,145.17 -44.28,201.79 -46.52,56.75 -117.73,88.68 -192.06,86.43l-78.82 57.62c19.7,96.04 275.75,172.86 315.16,38.42 59.49,-298.2 59.49,-604.76 0,-902.83 -1.37,-113.12 -70.34,-214.89 -176.48,-260.41 -106.01,-45.53 -229.6,-26.32 -316.03,49.01 -36.04,31.06 -63.23,70.84 -78.7,115.24 -59.11,134.57 0,422.67 -118.23,499.49 -59.12,38.42 -256.04,38.42 -295.46,-19.2 -76.82,-171.49 -76.82,-366.42 0,-537.91l39.42 -19.21zm2206.12 422.67c235.22,-138.56 496.38,-229.98 768.26,-269.01 133.32,409.07 238.59,826.12 315.16,1248.79 -235.34,90.05 -465.57,192.56 -689.44,307.3 -59.11,76.83 0,557.12 0,653.15 39.41,192.19 236.47,153.78 393.99,96.03 54.75,-6.73 107.13,24.45 125.96,74.96 18.96,50.63 -0.75,107.25 -47.14,136.44 -118.23,115.24 -275.75,403.46 -393.98,441.87 -256.05,38.42 -669.74,-230.6 -689.44,-441.87 -62.74,-600.14 -69.35,-1204.52 -19.71,-1805.79 0,-134.57 -39.41,-192.18 59.12,-307.42 38.66,-65.85 102.27,-114.12 177.22,-134.45zm453.1 749.18c-11.35,-91.17 -31.05,-181.22 -59.12,-268.89 -35.17,145.29 -35.17,296.58 0,441.87 0,57.62 98.53,19.21 98.53,0 12.22,-57.12 12.22,-115.99 0,-172.98l-39.41 0zm1477.4 441.87c-11.47,301.57 1.75,603.39 39.41,902.96 0,76.82 177.23,57.62 177.23,134.44 0,134.45 -236.34,364.93 -354.57,422.67 -118.11,57.62 -433.4,-115.36 -453.1,-307.43l-39.29 -1959.43c0,-76.96 -78.82,-134.57 -177.35,-115.37 -19.7,-19.2 -59.11,-76.82 -19.7,-115.24 157.64,-153.65 334.86,-422.66 492.51,-422.66 78.82,0 315.16,249.8 433.26,384.25 19.71,0 59.12,38.41 19.71,57.62 -39.29,19.21 -118.11,96.03 -118.11,153.78l0 883.62 0 -19.21zm19.71 -1767.37c-78.57,114.62 -197.93,196.68 -334.87,230.48 -137.94,38.41 -236.46,-96.03 -315.16,-192.07 -41.9,-30.55 -69.47,-76.07 -76.82,-126.46 -7.49,-50.51 5.98,-101.77 37.41,-142.43 139.68,-120.47 332.37,-163.75 512.09,-115.36 98.53,19.21 197.05,38.41 216.76,134.57 29.31,62.73 21.7,136.07 -19.71,192.07l-19.7 19.2zm1319.76 672.35c-39.41,19.21 0,76.83 -19.71,76.83 -78.82,57.62 -157.64,19.21 -236.34,38.41 -78.82,19.21 -59.11,96.03 -59.11,134.57l0 1728.96c0,76.83 118.1,57.62 196.93,0 0,0 78.82,0 78.82,57.62 -59.12,230.48 -275.75,384.13 -433.4,537.91 -223.12,-64.23 -421.79,-191.2 -571.2,-365.05 -98.53,-115.24 118.23,-153.65 118.23,-192.07l0 -1805.91c0,-76.82 -98.53,-76.82 -177.35,-115.23 -78.82,-38.42 -59.11,-134.45 -39.41,-192.07 161.01,-142.18 294.46,-311.29 393.98,-499.49l98.53 -288.1c19.71,-96.16 275.75,-153.78 315.16,-57.74 78.82,211.39 0,480.28 39.41,730.09 0,57.62 137.82,0 196.93,0 137.94,57.62 39.41,134.45 98.53,192.07l0 19.2z"/>
   <path d="M24381.09 1037.63l78.82 -76.82c118.11,-172.86 196.93,-403.46 452.98,-268.89 354.57,211.27 197.05,653.14 197.05,998.86 19.71,441.87 0,883.75 39.41,1344.83 0,38.41 58.99,38.41 78.7,0 59.12,-38.42 137.94,-96.16 137.94,-153.78 28.68,-537.53 28.68,-1076.06 0,-1613.59 0,-57.75 -177.23,-96.16 -118.24,-172.99 116.99,-170.86 248.82,-331.5 393.99,-480.28 39.41,-38.42 78.82,0 98.52,0 137.94,153.77 236.34,307.42 393.99,461.08 23.07,28.06 23.07,67.97 0,96.03 -59.12,57.62 -137.94,76.82 -137.94,153.78 0,576.31 -39.41,1152.63 0,1690.54 0,57.62 197.05,0 137.94,172.86 -85.06,153.77 -206.66,285.6 -354.58,384.25 -25.19,10.6 -53.75,10.6 -78.82,0 -90.92,-48.26 -171.23,-113.61 -236.34,-192.19 -39.41,-57.62 -59.11,-192.06 -98.52,-153.65 -137.94,76.83 -295.46,345.84 -393.99,345.84 -196.92,0 -354.57,-192.19 -531.79,-288.22 0,-38.41 -59.12,-57.62 -39.41,-96.03 39.41,-96.03 118.11,-134.45 118.11,-153.65 35.42,-601.52 35.42,-1204.4 0,-1805.91 -216.64,-38.41 -118.11,-76.83 -157.52,-192.07l19.7 0zm2186.55 -345.71c236.34,-96.16 275.75,268.89 433.27,384.13 177.35,-115.24 334.86,-441.88 492.51,-403.46 183.21,95.4 338.98,234.09 453.09,403.46 39.29,76.82 -118.23,153.65 -137.93,230.6 -30.43,576.07 -23.82,1153.51 19.7,1728.96 0,57.62 157.52,57.62 157.52,115.24 -63.73,181.83 -179.97,341.97 -334.87,461.08 -137.81,57.62 -433.26,-192.19 -433.26,-307.43 -19.71,-653.15 19.7,-1248.67 -39.41,-1940.23 0,-134.57 -197.06,-19.21 -197.06,57.62 -28.56,537.53 -28.56,1076.18 0,1613.72 256.17,230.47 -39.41,268.89 -275.75,576.32 0,19.2 -98.52,0 -118.11,-38.42 -78.82,-115.36 -334.99,-249.81 -334.99,-384.25 0,-76.83 118.24,-134.45 118.24,-192.07l-19.71 -1728.95c0,-57.75 -216.63,0 -137.81,-172.99 81.69,-161.26 203.54,-299.94 354.57,-403.33zm1694.04 364.92l295.45 -192.06 374.28 -230.61 98.4 0c224.49,115.24 441.62,243.58 650.15,384.26 78.7,57.62 -98.52,115.24 -118.23,192.06l0 1517.69c0,269.01 137.94,537.9 78.82,806.8 -7.86,119.1 -64.73,229.85 -157.64,307.42 -334.87,211.27 -787.97,192.07 -1142.54,96.04 -196.93,-57.62 -275.75,-307.31 -98.4,-384.13 125.59,-53.51 268.39,-53.51 393.98,0 98.4,19.2 39.41,192.06 137.82,230.47 83.06,36.3 180.71,12.48 236.46,-57.62 216.63,-172.85 19.58,-384.25 -59.12,-614.73 -96.15,122.97 -208.77,232.73 -334.86,326.51 -59.12,38.42 -137.94,0 -236.47,-38.41 -98.4,-38.41 -236.34,-153.65 -236.34,-230.48 -59.11,-557.11 -39.41,-1095.02 -39.41,-1652.13 0,-192.06 0,-365.05 157.65,-461.08zm452.97 384.25c-20.08,480.29 -13.47,961.2 19.7,1440.74 19.71,76.83 197.06,-38.41 197.06,-134.45l0 -1479.14c0,-38.54 -118.23,-153.78 -197.06,-115.37 -78.69,38.42 -19.7,192.19 -19.7,307.43l0 -19.21zm-27518.4 -1229.46c134.57,42.78 266.15,94.16 393.86,153.65 144.42,91.92 254.92,226.61 315.16,384.26 197.05,488.26 251.55,1020.18 157.64,1536.76 -34.3,461.46 -245.32,893.48 -590.91,1210.26 -393.98,345.84 -827.38,19.21 -1063.71,-192.06 -59.12,-38.42 -98.53,19.2 -118.24,57.62 0,76.82 0,153.65 -78.82,192.19 -78.7,38.41 -137.81,0 -157.52,-38.54 -197.05,-441.75 196.93,-691.56 393.99,-768.39 196.92,-76.82 98.4,-384.25 0,-557.11 -121.98,-291.46 -214.39,-593.9 -275.88,-902.83 -14.09,-116.73 -0.62,-235.09 39.41,-345.84 27.44,-82.19 67.22,-159.89 118.23,-230.48 118.24,-192.19 236.34,-307.43 354.58,-461.08 59.11,-57.62 59.11,-153.77 118.23,-192.19 58.99,-38.41 137.81,19.21 216.63,57.75l196.93 76.82 -19.58 19.21zm-137.94 1517.56c57.37,153.78 84.06,316.78 78.82,480.29 -39.41,249.81 -59.11,269.01 -334.86,576.32 123.34,123.59 254.92,239.21 393.98,345.84 28.68,22.45 69.59,22.45 98.4,0 33.3,-61.11 59.74,-125.47 78.82,-192.19 95.16,-540.28 95.16,-1092.53 0,-1632.8 -18.08,-152.03 -87.3,-293.96 -196.93,-403.46 -118.23,-96.03 -275.87,-269.02 -453.09,-192.07 -59.12,364.93 196.92,653.15 295.45,998.87l39.41 19.2zm1831.98 -1095.02l0 345.84c0,19.21 39.41,38.42 58.99,19.21 118.23,-96.03 197.05,-268.89 354.57,-249.68 218.25,14.84 397.47,173.73 433.39,384.13 37.42,659.38 30.81,1320.25 -19.7,1978.76 -39.41,211.27 -650.03,422.55 -827.25,595.53 -262.91,-74.83 -505.23,-206.16 -709.15,-384.26 -14.09,-23.82 -14.09,-53 0,-76.82 42.78,-41.41 70.47,-95.41 78.7,-153.65l0 -2497.47c0,-153.65 -256.05,-326.51 -39.29,-384.13 118.11,-38.41 216.64,96.03 334.87,57.62 256.04,-153.65 315.16,-249.81 630.32,-249.81 59.12,0 118.11,115.36 59.12,134.57 -197.06,115.24 -393.98,153.65 -354.57,460.96l0 19.2zm157.51 595.53c-66.35,6.23 -121.47,52.38 -137.81,115.36 -19.7,576.32 -39.41,1152.64 0,1728.96 0,38.41 118.11,38.41 137.81,96.03 60.99,-600.01 74.21,-1203.77 39.42,-1805.78 0,0 0,-134.57 -39.42,-134.57zm1378.88 -345.72c164.5,-73.96 336.11,-131.82 512.21,-172.86 39.42,0 78.83,57.62 98.41,96.04 98.52,307.3 118.23,614.73 197.05,902.83 39.41,76.82 78.82,192.18 0,230.6 -197.05,153.65 -453.1,153.65 -650.03,307.3 39.41,269.02 -137.93,845.34 256.05,806.92 0,0 295.45,-192.19 295.45,0 -95.65,227.99 -252.05,426.91 -452.97,576.32 -197.05,115.24 -669.86,-192.19 -709.14,-384.25 -103.27,-687.94 -103.27,-1386.86 0,-2074.8 39.28,-172.86 295.45,-230.48 452.97,-288.1zm236.46 768.39c-14.71,-71.72 -34.42,-142.31 -59.11,-211.28 -25.82,152.66 -25.82,308.43 0,461.08 0,10.61 8.73,19.21 19.7,19.21 98.41,-57.62 59.12,-192.19 39.41,-269.01zm1398.59 -614.74c0,38.42 39.28,38.42 58.99,76.83 78.82,-115.24 78.82,-268.89 197.05,-364.92 22.45,-19.58 56.37,-19.58 78.82,0 115.24,133.07 196.31,291.21 236.34,460.95 59.12,153.78 -98.53,345.84 -236.34,499.5 -137.94,153.77 -137.94,-192.07 -236.46,-192.07l-39.41 115.24c-57.37,439.5 -70.47,883.5 -39.41,1325.5 0,57.74 98.52,134.57 157.64,115.36 59.12,-19.21 78.82,-57.62 157.64,-38.41 39.29,19.2 78.7,96.03 58.99,153.65 -118.1,153.65 -256.04,249.68 -374.27,384.25 -12.6,38.04 -41.91,68.6 -79.95,83.44 -38.04,14.84 -80.94,12.47 -116.98,-6.61 -183.96,-110.38 -355.57,-239.21 -512.09,-384.26 -19.71,-19.2 -39.41,-96.03 -19.71,-115.23 68.35,-59.12 110.63,-141.68 118.11,-230.61l0 -1536.77c0,-115.23 -196.93,-115.23 -137.81,-192.18 78.69,-172.86 177.22,-384.13 354.57,-441.75 177.22,-57.62 315.16,115.24 393.86,268.89l-19.58 19.2z"/>
   <path d="M7401.19 864.78l0 153.65c157.52,-57.62 236.34,-268.89 393.98,-307.31 157.52,-38.53 413.57,192.07 433.27,422.55l0 2017.18c2.37,169.61 -45.52,336.36 -137.81,480.28 -157.64,230.48 -472.81,460.96 -768.26,422.54 -39.41,0 -78.82,-76.82 -59.12,-115.23 177.35,-172.86 393.99,-422.67 295.46,-672.36 -98.03,144.55 -217.51,274.01 -354.57,384.26 -36.54,20.58 -81.57,20.58 -118.11,0 -173.61,-100.4 -327.01,-230.6 -453.1,-384.26 -39.41,-57.62 118.23,-96.03 118.23,-172.85 39.29,-826.13 39.29,-1671.34 0,-2497.47 0,-115.24 -137.93,-211.27 -98.52,-326.51 59.11,-211.4 196.93,-38.41 315.16,-19.21 196.93,0 354.57,-269.01 669.73,-192.19 33.8,6.36 61.74,29.31 73.83,60.74 12.1,31.3 6.49,66.6 -14.71,93.04 -78.83,115.24 -275.75,96.03 -295.46,249.68 -11.97,140.69 -11.97,281.99 0,422.67l0 -19.2zm236.34 1018.19c13.35,-194.06 -6.73,-388.75 -59.12,-576.32 0,-19.21 -59.11,0 -78.82,0 -19.7,0 -78.69,57.62 -78.69,96.03 -39.41,576.32 -39.41,1152.64 0,1690.55 0,57.62 137.81,0 177.22,96.03 19.7,-441.88 0,-864.54 39.41,-1306.29zm1319.76 -998.99c167.37,-83.31 346.71,-141.68 531.92,-172.86 149.16,397.85 254.8,809.92 315.16,1229.47 -39.41,38.41 -669.73,268.89 -689.44,307.3 -137.93,211.4 0,768.51 0,710.77 35.55,83.31 125.59,131.2 216.64,115.36 48.14,-29.06 94.16,-61.11 137.93,-96.16 98.41,-57.62 157.52,96.16 157.52,76.95 -19.7,192.07 -315.16,441.75 -472.68,614.74 -237.08,-20.33 -456.46,-130.71 -610.74,-307.43 -70.96,-94.29 -105.88,-209.78 -98.4,-326.51 0,-614.74 0,-1191.05 39.41,-1805.91 0,-192.07 295.46,-288.1 472.68,-345.72zm197.05 633.94c-15.46,-34.3 -35.29,-66.6 -59.11,-96.03 -21.95,159.39 -21.95,320.9 0,480.28 0,38.42 39.41,38.42 59.11,19.21 98.41,-76.82 0,-384.25 0,-384.25l0 -19.21zm1319.76 -633.94c54.26,38.54 95.41,92.04 118.24,153.65 39.28,742.32 39.28,1486.14 0,2228.45 7.98,254.3 -53.13,506.23 -177.35,729.98 -19.71,57.61 -256.05,38.41 -275.75,-19.21 -295.46,-902.83 -78.82,-2286.07 -197.06,-2766.36 0,19.21 -275.75,-57.62 -137.81,-192.06 295.46,-268.89 0,-384.26 157.52,-826.01 98.53,-230.6 354.57,-96.15 531.92,-96.15 59.11,0 177.22,-115.24 236.34,0 61.61,144.79 46.89,309.67 -39.41,441.87 -137.82,192.19 -315.16,0 -413.69,57.62 -177.22,57.62 78.82,230.6 197.05,307.43l0 -19.21zm1083.42 864.42c0,633.94 39.41,1671.34 -177.34,2247.66 0,38.41 -236.34,76.82 -275.75,19.2 -125.84,-304.93 -186.21,-631.82 -177.23,-960.45 -39.41,-614.73 0,-1229.59 0,-1825.11 -59.11,0 -256.17,-76.83 -118.23,-230.48 49.64,-42.9 89.8,-95.16 118.23,-153.65 58.99,-249.81 -197.05,-557.11 118.11,-729.97 157.64,-96.16 236.46,0 413.69,0 78.82,0 19.7,-96.16 177.34,-57.75 21.71,12.1 36.3,33.43 39.29,57.75 30.93,113.24 30.93,232.47 0,345.71 -11.85,72.84 -65.48,132.45 -137.81,153.66 -87.3,19.2 -178.72,5.48 -256.05,-38.42 -98.52,-38.41 -118.23,76.83 -78.82,134.57 78.82,115.24 256.05,153.66 315.16,288.1 98.53,230.48 39.41,499.49 39.41,768.38l0 -19.2zm846.96 -845.21c98.53,96.03 275.87,153.65 256.17,268.89 0,57.62 -118.23,96.16 -118.23,153.78 -38.91,594.9 -38.91,1191.67 0,1786.57 0,76.83 196.93,76.83 196.93,134.45 0,115.24 -256.05,384.25 -315.17,422.67 -157.51,115.23 -472.67,-134.57 -492.38,-269.02 -78.82,-672.35 19.71,-1344.7 -39.41,-2093.88 -98.53,19.21 -197.05,-57.75 -197.05,-134.57 120.22,-176.1 282.48,-321.15 472.8,-422.54 59.12,-19.21 177.22,96.03 236.34,153.65zm39.41 -345.84c-59.12,57.62 -137.81,115.24 -196.93,115.24 -137.94,0 -236.46,-96.04 -334.86,-192.07 -36.92,-43.28 -57.75,-97.4 -59.12,-153.65 0,-134.45 59.12,-192.07 196.93,-211.27 178.97,-66.23 381.13,-20.71 512.21,115.24 98.53,115.24 0,230.47 -118.23,326.51zm1950.21 192.19c58.99,-38.42 98.4,19.2 137.81,76.82 36.67,-133.07 7.48,-275.12 -78.82,-384.25 -58.99,-134.45 19.7,-230.48 137.94,-192.07 69.71,44.78 155.52,58.74 236.33,38.42 197.06,-115.24 354.58,-230.61 650.03,-153.66 39.41,0 39.41,115.24 0,153.66 -98.4,76.82 -236.34,57.62 -275.75,192.06 -39.41,134.45 -98.4,480.29 0,576.32 236.47,-153.65 256.17,-384.25 492.51,-307.3 135.94,55 237.96,168.61 275.75,307.3 39.41,826.13 98.53,1594.51 -59.11,2439.72 -39.42,288.22 -452.98,499.5 -709.15,576.32 -315.16,96.16 -98.4,-192.06 -157.52,-134.44 196.93,-288.1 354.58,-345.72 315.16,-691.56 -137.93,115.24 -334.86,441.87 -492.5,384.25 -157.52,-57.62 -275.75,-249.81 -433.4,-192.19 -98.4,38.42 -157.52,153.78 -256.04,192.19 -207.03,26.19 -407.2,-83.18 -492.39,-269.01 -54,-716.26 -54,-1435.38 0,-2151.63 0,-249.68 452.98,-345.71 709.15,-460.95zm0 864.41c-20.21,-69.46 -53.63,-134.69 -98.53,-192.06l0 1613.72c0,76.82 236.34,249.68 236.34,96.03l0 -1536.89c0,-38.42 -118.11,0 -118.11,0l-19.7 19.2zm984.89 326.64l0 -537.91c0,-19.21 -19.71,-76.82 -59.12,-76.82 -98.52,-19.21 -157.64,76.82 -157.64,134.44 -29.68,550.25 -29.68,1101.75 0,1652.13 0,38.42 59.12,38.42 118.23,38.42 59.12,0 59.12,57.61 98.53,96.03l0 -1306.29z"/>
   <path d="M13409.08 1863.76c0,710.77 78.82,1383.12 -98.4,2113.09 -18.59,48.26 -60.74,84.31 -112.25,95.91 -51.51,11.6 -105.51,-2.75 -143.92,-38.29 -136.19,-176.6 -205.79,-393.73 -196.93,-614.73 -41.91,-318.53 -61.61,-639.43 -59.12,-960.45l0 -710.89c19.71,-165.88 19.71,-333.5 0,-499.5l-137.81 -19.2c-29.68,-40.16 -29.68,-94.29 0,-134.45 295.45,-249.68 0,-518.7 157.52,-826 98.52,-230.6 334.86,-96.03 512.21,-115.24 58.99,0 196.93,-38.41 196.93,0 89.92,165.13 57.87,368.29 -78.82,499.37 -137.81,96.16 -275.75,-38.41 -393.98,0 -21.7,0 -39.29,17.21 -39.29,38.54 15.84,34.04 35.67,66.22 58.99,96.03 118.23,134.44 334.87,192.06 354.57,384.13 12.6,236.84 12.6,474.05 0,710.89l-19.7 -19.21zm3230.55 -922.16c192.69,-76.08 390,-140.18 590.91,-192.06 177.35,326.51 197.06,729.97 275.88,1114.22 0,38.41 39.41,115.24 0,153.65 -228.48,76.95 -452.1,166.75 -669.73,268.89 19.58,288.23 -137.94,768.51 236.34,806.93 78.82,0 196.93,-230.61 334.86,0l-39.41 76.82c-177.22,172.86 -295.45,384.26 -472.8,518.7 -236.34,-76.82 -492.39,-134.44 -590.91,-345.84 -58.25,-120.48 -91.79,-251.06 -98.53,-384.25l0 -960.45c-27.56,-270.27 -7.61,-543.15 59.12,-806.92 82.31,-131.71 218.63,-222.63 374.27,-249.69zm275.75 691.56c0,0 0,-153.65 -78.69,-192.07 -37.92,157.9 -37.92,322.27 0,480.29 0,38.41 118.1,0 118.1,-38.41 -7.1,-90.42 -20.2,-180.34 -39.41,-269.02l0 19.21zm1969.92 -1114.23c26.93,-66.72 59.98,-130.95 98.4,-192.06 59.11,-115.24 197.05,-153.65 275.87,-192.07 83.81,-25.31 169.37,-44.52 256.05,-57.74 206.65,-41.53 421.54,-14.47 610.61,76.95 284.23,111.62 476.3,373.9 492.51,672.35 23.7,201.79 -3.24,406.21 -78.82,595.53 -76.45,154.65 -200.42,282.23 -354.57,364.92 204.79,96.91 360.93,270.01 433.39,480.29 147.29,455.09 119.23,946.85 -78.82,1383.24 -85.18,148.54 -226.61,258.91 -393.98,307.3 -393.98,115.24 -847.08,134.45 -1142.54,-192.06 -31.05,-48.77 -57.49,-100.15 -78.69,-153.65 -137.94,-269.02 39.28,-557.12 -118.24,-691.69 -39.41,-38.41 -118.23,-38.41 -137.93,-115.24 -19.71,-76.82 0,-192.06 78.82,-211.27 200.04,-45.15 410.07,-17.83 590.91,76.83 354.57,211.27 118.23,653.14 295.58,979.78 39.29,96.03 236.34,96.03 256.04,0 85.06,-424.17 98.41,-858.93 39.42,-1287.21 14.71,-124.72 -37.42,-248.06 -137.94,-326.51 -37.42,-17.34 -80.82,-17.34 -118.23,0 -59,38.41 -137.82,57.62 -157.52,134.45 -19.71,76.82 19.7,211.27 -78.82,249.8 -39.41,19.21 -236.34,19.21 -256.05,-19.33 -53,-103.89 -59.86,-224.61 -18.83,-333.62 41.03,-109 126.09,-196.68 235.47,-242.7 -117.49,-84.93 -201.17,-207.15 -236.34,-345.71 -44.4,-179.1 35.29,-365.67 196.92,-461.08 86.43,-52.01 193.19,-60.37 286.98,-22.2 93.79,38.04 162.88,117.86 185.83,214.26 18.58,70.34 2.24,145.17 -44.28,201.79 -46.52,56.75 -117.73,88.68 -192.06,86.43l-78.82 57.62c19.7,96.04 275.75,172.86 315.16,38.42 59.49,-298.2 59.49,-604.76 0,-902.83 -1.37,-113.12 -70.34,-214.89 -176.48,-260.41 -106.01,-45.53 -229.6,-26.32 -316.03,49.01 -36.04,31.06 -63.23,70.84 -78.7,115.24 -59.11,134.57 0,422.67 -118.23,499.49 -59.12,38.42 -256.04,38.42 -295.46,-19.2 -76.82,-171.49 -76.82,-366.42 0,-537.91l39.42 -19.21zm2206.12 422.67c235.22,-138.56 496.38,-229.98 768.26,-269.01 133.32,409.07 238.59,826.12 315.16,1248.79 -235.34,90.05 -465.57,192.56 -689.44,307.3 -59.11,76.83 0,557.12 0,653.15 39.41,192.19 236.47,153.78 393.99,96.03 54.75,-6.73 107.13,24.45 125.96,74.96 18.96,50.63 -0.75,107.25 -47.14,136.44 -118.23,115.24 -275.75,403.46 -393.98,441.87 -256.05,38.42 -669.74,-230.6 -689.44,-441.87 -62.74,-600.14 -69.35,-1204.52 -19.71,-1805.79 0,-134.57 -39.41,-192.18 59.12,-307.42 38.66,-65.85 102.27,-114.12 177.22,-134.45zm453.1 749.18c-11.35,-91.17 -31.05,-181.22 -59.12,-268.89 -35.17,145.29 -35.17,296.58 0,441.87 0,57.62 98.53,19.21 98.53,0 12.22,-57.12 12.22,-115.99 0,-172.98l-39.41 0zm1477.4 441.87c-11.47,301.57 1.75,603.39 39.41,902.96 0,76.82 177.23,57.62 177.23,134.44 0,134.45 -236.34,364.93 -354.57,422.67 -118.11,57.62 -433.4,-115.36 -453.1,-307.43l-39.29 -1959.43c0,-76.96 -78.82,-134.57 -177.35,-115.37 -19.7,-19.2 -59.11,-76.82 -19.7,-115.24 157.64,-153.65 334.86,-422.66 492.51,-422.66 78.82,0 315.16,249.8 433.26,384.25 19.71,0 59.12,38.41 19.71,57.62 -39.29,19.21 -118.11,96.03 -118.11,153.78l0 883.62 0 -19.21zm19.71 -1767.37c-78.57,114.62 -197.93,196.68 -334.87,230.48 -137.94,38.41 -236.46,-96.03 -315.16,-192.07 -41.9,-30.55 -69.47,-76.07 -76.82,-126.46 -7.49,-50.51 5.98,-101.77 37.41,-142.43 139.68,-120.47 332.37,-163.75 512.09,-115.36 98.53,19.21 197.05,38.41 216.76,134.57 29.31,62.73 21.7,136.07 -19.71,192.07l-19.7 19.2zm1319.76 672.35c-39.41,19.21 0,76.83 -19.71,76.83 -78.82,57.62 -157.64,19.21 -236.34,38.41 -78.82,19.21 -59.11,96.03 -59.11,134.57l0 1728.96c0,76.83 118.1,57.62 196.93,0 0,0 78.82,0 78.82,57.62 -59.12,230.48 -275.75,384.13 -433.4,537.91 -223.12,-64.23 -421.79,-191.2 -571.2,-365.05 -98.53,-115.24 118.23,-153.65 118.23,-192.07l0 -1805.91c0,-76.82 -98.53,-76.82 -177.35,-115.23 -78.82,-38.42 -59.11,-134.45 -39.41,-192.07 161.01,-142.18 294.46,-311.29 393.98,-499.49l98.53 -288.1c19.71,-96.16 275.75,-153.78 315.16,-57.74 78.82,211.39 0,480.28 39.41,730.09 0,57.62 137.82,0 196.93,0 137.94,57.62 39.41,134.45 98.53,192.07l0 19.2z"/>
   <path d="M24381.09 1037.63l78.82 -76.82c118.11,-172.86 196.93,-403.46 452.98,-268.89 354.57,211.27 197.05,653.14 197.05,998.86 19.71,441.87 0,883.75 39.41,1344.83 0,38.41 58.99,38.41 78.7,0 59.12,-38.42 137.94,-96.16 137.94,-153.78 28.68,-537.53 28.68,-1076.06 0,-1613.59 0,-57.75 -177.23,-96.16 -118.24,-172.99 116.99,-170.86 248.82,-331.5 393.99,-480.28 39.41,-38.42 78.82,0 98.52,0 137.94,153.77 236.34,307.42 393.99,461.08 23.07,28.06 23.07,67.97 0,96.03 -59.12,57.62 -137.94,76.82 -137.94,153.78 0,576.31 -39.41,1152.63 0,1690.54 0,57.62 197.05,0 137.94,172.86 -85.06,153.77 -206.66,285.6 -354.58,384.25 -25.19,10.6 -53.75,10.6 -78.82,0 -90.92,-48.26 -171.23,-113.61 -236.34,-192.19 -39.41,-57.62 -59.11,-192.06 -98.52,-153.65 -137.94,76.83 -295.46,345.84 -393.99,345.84 -196.92,0 -354.57,-192.19 -531.79,-288.22 0,-38.41 -59.12,-57.62 -39.41,-96.03 39.41,-96.03 118.11,-134.45 118.11,-153.65 35.42,-601.52 35.42,-1204.4 0,-1805.91 -216.64,-38.41 -118.11,-76.83 -157.52,-192.07l19.7 0zm2186.55 -345.71c236.34,-96.16 275.75,268.89 433.27,384.13 177.35,-115.24 334.86,-441.88 492.51,-403.46 183.21,95.4 338.98,234.09 453.09,403.46 39.29,76.82 -118.23,153.65 -137.93,230.6 -30.43,576.07 -23.82,1153.51 19.7,1728.96 0,57.62 157.52,57.62 157.52,115.24 -63.73,181.83 -179.97,341.97 -334.87,461.08 -137.81,57.62 -433.26,-192.19 -433.26,-307.43 -19.71,-653.15 19.7,-1248.67 -39.41,-1940.23 0,-134.57 -197.06,-19.21 -197.06,57.62 -28.56,537.53 -28.56,1076.18 0,1613.72 256.17,230.47 -39.41,268.89 -275.75,576.32 0,19.2 -98.52,0 -118.11,-38.42 -78.82,-115.36 -334.99,-249.81 -334.99,-384.25 0,-76.83 118.24,-134.45 118.24,-192.07l-19.71 -1728.95c0,-57.75 -216.63,0 -137.81,-172.99 81.69,-161.26 203.54,-299.94 354.57,-403.33zm1694.04 364.92l295.45 -192.06 374.28 -230.61 98.4 0c224.49,115.24 441.62,243.58 650.15,384.26 78.7,57.62 -98.52,115.24 -118.23,192.06l0 1517.69c0,269.01 137.94,537.9 78.82,806.8 -7.86,119.1 -64.73,229.85 -157.64,307.42 -334.87,211.27 -787.97,192.07 -1142.54,96.04 -196.93,-57.62 -275.75,-307.31 -98.4,-384.13 125.59,-53.51 268.39,-53.51 393.98,0 98.4,19.2 39.41,192.06 137.82,230.47 83.06,36.3 180.71,12.48 236.46,-57.62 216.63,-172.85 19.58,-384.25 -59.12,-614.73 -96.15,122.97 -208.77,232.73 -334.86,326.51 -59.12,38.42 -137.94,0 -236.47,-38.41 -98.4,-38.41 -236.34,-153.65 -236.34,-230.48 -59.11,-557.11 -39.41,-1095.02 -39.41,-1652.13 0,-192.06 0,-365.05 157.65,-461.08zm452.97 384.25c-20.08,480.29 -13.47,961.2 19.7,1440.74 19.71,76.83 197.06,-38.41 197.06,-134.45l0 -1479.14c0,-38.54 -118.23,-153.78 -197.06,-115.37 -78.69,38.42 -19.7,192.19 -19.7,307.43l0 -19.21z"/>
  </g>

</svg>
