<?xml version="1.0" encoding="UTF-8"?>
<!DOCTYPE svg PUBLIC "-//W3C//DTD SVG 1.0//EN" "http://www.w3.org/TR/2001/REC-SVG-20010904/DTD/svg10.dtd">
<svg xmlns="http://www.w3.org/2000/svg" xml:space="preserve" width="83" height="17" version="1.0" style="shape-rendering:geometricPrecision; text-rendering:geometricPrecision; image-rendering:optimizeQuality; fill-rule:evenodd; clip-rule:evenodd"
viewBox="0 0 29700 6066" xmlns:xlink="http://www.w3.org/1999/xlink">
 <g>
  <path fill="#FEFEFE" d="M17545.33 5057.42c-46.19,-39.67 -115.05,-58.6 -206.51,-59.56l-1404.1 -14.7 -102.96 -3.85 -150.7 3.85c-27.78,0.7 -26.34,39.09 -33.01,49.05 -345.95,515.62 290.51,816.22 944.11,791.77 650.7,-24.34 1388.43,-392.66 953.17,-766.56zm-904.92 -3347.08c-484,24.91 -293.1,1732.14 35.87,1749.05 444.22,22.9 427.04,-1772.8 -35.87,-1749.05zm1737.57 3038.83c0,317.59 -119.42,574.92 -356.45,772.96 -758.8,634.09 -1797.62,649.36 -2662.05,373.06 -309.03,-98.77 -478.57,-466.88 -478.57,-650.19 0,-260.8 185.59,-605.1 515.67,-605.1 -246.07,-257.37 -215.87,-455.6 -215,-542.62 3.04,-306.27 347.36,-521.03 552.04,-668.29 -203.93,-66.69 -520.82,-515 -520.82,-777.65 0,-1039.57 852.85,-1068.04 1365.19,-1187.68 132.01,-266.22 219.16,-608.59 371.91,-737.03 152.72,-128.43 264.39,-234.09 403.95,-234.09 256.19,0 551.16,179.77 551.16,531.71 0,264.83 -150.67,448.39 -363.99,448.39 -233.33,0 -462.34,-111.79 -535.49,-406.25 -94.29,93.42 -204.26,311.26 -260.85,418.68 531.41,98.85 1359.94,245.75 1359.94,1181.74 0,1061.82 -1228.85,898.46 -1962.88,898.46 -77.71,0 -356.45,-74.38 -356.45,175.14 0,74.72 77.55,102.45 231.03,112.08l1222.33 76.83c348.36,21.87 620.22,76.28 815.68,228.85 194.89,152.12 323.65,328.28 323.65,591zm10288.81 -536.85c0,-344.4 172.19,-516.6 516.61,-516.6 154.72,0 279.51,47.41 374.35,142.25 94.82,94.84 142.25,219.63 142.25,374.35 0,154.74 -47.43,279.53 -142.25,374.36 -94.84,94.83 -219.63,142.25 -374.35,142.25 -154.74,0 -279.53,-47.42 -374.36,-142.25 -94.83,-94.83 -142.25,-219.62 -142.25,-374.36zm-2577.39 -2785.59l0 621.43c247.31,-324.44 599.54,-486.66 973.1,-486.66 289.42,0 524.09,98.63 705.1,296.99 179.9,197.14 270.44,466.75 270.44,806.1l0 1343.93c0,163.18 69.67,413.03 185.09,413.03l0 202.15 -1483.8 0 0 -202.15c178.77,0 247.71,-221.96 247.71,-413.03l0 -1343.93c0,-520.35 56.95,-781.15 -331.37,-781.15 -270.45,0 -362.12,122.29 -566.27,368.12l0 1756.96c0,218.25 29.51,413.03 226.88,413.03l0 202.15 -1483.79 0 0 -202.15c160.77,0 226.78,-240.32 226.78,-413.03l0 -1650.9c0,-144.75 -12.53,-241.01 -36.82,-285.76 -46.1,-84.89 -42.91,-127.27 -199.72,-127.27l0 -209.63c383.05,0 1014.12,-103.59 1266.67,-308.23zm-2837.73 -862.8c0,-154.73 47.42,-279.52 142.26,-374.35 94.83,-94.84 219.61,-142.26 374.35,-142.26 154.73,0 279.51,47.42 374.36,142.26 94.83,94.83 142.24,219.62 142.24,374.35 0,344.4 -172.2,516.61 -516.6,516.61 -154.74,0 -279.52,-47.42 -374.35,-142.26 -94.84,-94.84 -142.26,-219.62 -142.26,-374.35zm28.21 3445l0 -1650.9c0,-144.75 -13.47,-240.97 -39.69,-285.76 -49.72,-84.93 -54.32,-127.28 -223.28,-127.28l0 -209.63c412.75,0 1005.79,-103.58 1277.95,-308.23l0 2581.8c0,210.64 74.48,413.03 281.5,413.03l0 202.15 -1598.89 0 0 -202.15c219.18,0 302.41,-187.85 302.41,-413.03zm-2631.69 -418.04c0,884.83 521.76,1100.26 767.35,507.89 93.6,-225.81 141,-450.49 141,-676.35l0 -134.76c0,-698.31 -168.52,-1813.23 -908.35,-1141.77l0 1444.99zm-1081.25 1653.4l0 -2894.99c0,-146 -14.85,-241 -43.69,-285.76 -54.69,-84.93 -132.92,-127.29 -318.86,-127.29l0 -207.13c454.22,0 1144.32,-99.82 1443.8,-301.99l0 321.17c347.49,-477.79 1338.82,-197.11 1694.13,196.69 238.34,269.53 358.13,612.69 358.13,1028.23l0 127.28c0,470.44 -119.79,853.51 -358.13,1148.01 -359.99,446.92 -1250.89,716.29 -1694.13,270.38l0 726.65c0,208.47 82.21,411.79 307.78,411.79l0 202.14 -1759.46 0 0 -202.14c265.76,0 370.43,-147.44 370.43,-413.04zm-14628.92 -2923.07c-231.59,-905.43 -833.64,-761.63 -998.99,139.07 -74.56,406.15 -44.88,1017.96 31.71,1418.09 192.09,1003.65 804.76,856.65 986.87,-135.38 96.29,-524.52 88.8,-998.02 -19.59,-1421.78zm-499.83 2407.71c-494.15,0 -891.9,-152.55 -1194.19,-457.96 -301.66,-304.77 -452.97,-705.03 -452.97,-1200.42 0,-470.44 160.9,-847.22 479.18,-1133.04 305.64,-274.48 693.79,-413.04 1167.98,-413.04 474.18,0 868.19,140.11 1182.95,420.52 314.14,279.85 471.69,655.12 471.69,1125.56 0,490.39 -153.8,889.4 -460.45,1196.68 -307.28,307.9 -705.04,461.7 -1194.19,461.7zm-3182.34 -1964.11l0 1242.85c0,247.22 94.63,414.29 349.54,414.29l0 202.15 -1592.39 0 0 -202.15c238.52,0 328.64,-191.41 328.64,-413.03l0 -1650.9c0,-144.75 -14.86,-241.01 -43.66,-285.76 -54.67,-84.88 -112.04,-127.28 -297.98,-127.28l0 -209.63c454.22,0 956.37,-103.58 1255.85,-308.23l0 928.4c212.08,-416.19 376.51,-878.18 992.63,-854.99 260.24,9.79 466.57,181.22 466.57,561.01 0,104.84 -40.34,196.93 -119.8,277.03 -78.85,79.49 -170.95,119.8 -275.76,119.8 -133.52,0 -247.74,-62.28 -326.95,-194.66 -250.85,-419.23 -673.86,303.89 -736.69,501.1zm11572.54 -1338.09l0 621.43c247.3,-324.44 599.53,-486.66 973.09,-486.66 289.43,0 524.09,98.63 705.1,296.99 179.9,197.14 270.44,466.75 270.44,806.1l0 1343.93c0,163.18 69.67,413.03 185.09,413.03l0 202.15 -1483.8 0 0 -202.15c178.77,0 247.71,-221.96 247.71,-413.03l0 -1343.93c0,-520.35 56.95,-781.15 -331.37,-781.15 -270.45,0 -362.12,122.29 -566.26,368.12l0 1756.96c0,218.25 29.5,413.03 226.87,413.03l0 202.15 -1483.79 0 0 -202.15c160.77,0 226.79,-240.32 226.79,-413.03l0 -1650.9c0,-144.75 -12.53,-241.01 -36.83,-285.76 -46.1,-84.89 -42.91,-127.27 -199.72,-127.27l0 -209.63c383.05,0 1014.12,-103.59 1266.68,-308.23zm-2837.73 -862.8c0,-154.73 47.41,-279.52 142.25,-374.35 94.84,-94.84 219.61,-142.26 374.35,-142.26 154.74,0 279.52,47.42 374.36,142.26 94.83,94.83 142.25,219.62 142.25,374.35 0,344.4 -172.21,516.61 -516.61,516.61 -154.74,0 -279.51,-47.42 -374.35,-142.26 -94.84,-94.84 -142.25,-219.62 -142.25,-374.35zm28.2 3445l0 -1650.9c0,-144.75 -13.47,-240.97 -39.69,-285.76 -49.71,-84.93 -54.32,-127.28 -223.28,-127.28l0 -209.63c412.75,0 1005.79,-103.58 1277.95,-308.23l0 2581.8c0,210.64 74.48,413.03 281.51,413.03l0 202.15 -1598.89 0 0 -202.15c219.17,0 302.4,-187.85 302.4,-413.03zm-1776.91 0l0 -3078.04c0,-144.74 -13.52,-241.02 -39.69,-285.76 -49.66,-84.87 -54.32,-127.27 -223.28,-127.27l0 -209.63c412.75,0 1005.79,-103.58 1277.94,-308.23l0 4008.93c0,210.53 74.49,413.03 281.51,413.03l0 202.15 -1598.89 0 0 -202.15c219.17,0 302.41,-187.85 302.41,-413.03zm-1740.52 0l0 -3078.04c0,-144.74 -13.51,-241.02 -39.69,-285.76 -49.66,-84.87 -54.31,-127.27 -223.27,-127.27l0 -209.63c412.75,0 1005.79,-103.58 1277.94,-308.23l0 4008.93c0,210.53 74.48,413.03 281.51,413.03l0 202.15 -1598.89 0 0 -202.15c219.17,0 302.4,-187.85 302.4,-413.03z"/>
 </g>
</svg>
