<svg xmlns="http://www.w3.org/2000/svg" xmlns:xlink="http://www.w3.org/1999/xlink" version="1.1" id="_x31_" x="0px" y="0px" viewBox="0 0 526.4 162.4" enable-background="new 0 0 526.4 162.4" xml:space="preserve">
    <switch>
    <g>
		<g>
			<defs>
				<path id="SVGID_1_" d="M110,16.4h381.1v23H110c-6.1,0-12-6.5-14.4-11.5C98,22.9,103.9,16.4,110,16.4z"/>
			</defs>
            <clipPath id="SVGID_2_">
				<use xlink:href="#SVGID_1_" overflow="visible"/>
			</clipPath>
            <g transform="matrix(1 0 0 1 0 0)" clip-path="url(#SVGID_2_)">

			</g>
		</g>
        <path fill-rule="evenodd" clip-rule="evenodd" fill="#FFFFFF" d="M110.7,129.2c1.4-8,2.3-12.7,2.9-14.2c0.6-1.5,1.6-2.2,3.1-2.2    c1.1,0,1.7,1,1.7,3c0,1.4-0.6,4.2-1.7,8.6c-0.6,2.1-1.3,5.4-2.2,9.7c1.7-2.3,3.6-4.1,5.6-5.6c2-1.4,3.8-2.1,5.4-2.1    c1.3,0,2.4,0.6,3.3,1.7c0.9,1.1,1.3,2.4,1.3,3.9c0,4.3-1.6,8.3-4.9,12.1c-3.3,3.8-6.8,5.6-10.5,5.6c-1.1,0-2.1-0.3-3.1-0.9    c-1-0.6-1.5-1.4-1.6-2.3c-0.1-0.5-0.2-0.9-0.3-1c-0.1-0.2-0.3-0.3-0.5-0.5c-0.4-0.4-0.6-1-0.6-1.7c0-0.9,0.2-2.7,0.6-5.4    L110.7,129.2L110.7,129.2z M113.1,143.9c0.6,1,1.2,1.5,2,1.5c1.3,0,2.8-0.6,4.3-1.8c1.6-1.2,3-2.9,4.1-5.1c1.2-2.2,1.8-4,1.8-5.4    c0-1.4-0.2-2.1-0.6-2.1c-2.2,0-4.7,1.6-7.4,4.8C114.5,139.1,113.1,141.8,113.1,143.9L113.1,143.9z M153.4,137.1    c-0.2,3.4-0.6,6.6-1.2,9.8c-0.6,3.2-1.4,6-2.5,8.6c-1.1,2.6-2.3,4.3-3.5,5.3c-1.3,0.9-2.8,1.4-4.5,1.4c-1.9,0-3.6-0.4-5.4-1.1h0    c-1.5-0.6-2.8-1.4-3.8-2.5c-1.1-1-1.6-1.9-1.6-2.6c0-0.7,0.2-1.2,0.5-1.6c0.3-0.4,0.8-0.6,1.3-0.6c0.5,0,0.8,0.2,1.1,0.6    c1.8,2.3,4.4,3.4,7.7,3.4c1.4,0,2.7-1.4,4-4.3c1.3-2.9,2.1-6.3,2.4-10.4c-4.3,3.4-7.6,5.1-9.9,5.1c-1.5,0-2.7-0.6-3.6-1.8    c-0.9-1.2-1.3-2.6-1.3-4.3c0-1.7,0.4-4.1,1.2-7.3c0.8-3.2,1.5-5.2,2-6c0.5-0.8,1.4-1.2,2.7-1.2c0.7,0,1.2,0.3,1.5,0.9    c0.4,0.6,0.5,1.2,0.5,1.9c0,0.2-0.5,1.4-1.5,3.5c-1.2,2.6-1.8,4.9-1.8,6.7c0,1,0.1,1.7,0.4,2.2c0.3,0.5,0.6,0.8,0.8,0.8    c0.7,0,1.5-0.2,2.4-0.6c1-0.4,2.1-1.1,3.4-2.1c1.3-1,2.1-1.7,2.5-2.3c0.4-0.5,0.7-1.2,0.9-2c0.2-0.8,0.4-2.6,0.5-5.4    c0.1-1.6,0.1-2.6,0.2-3c0.1-0.4,0.3-0.8,0.7-1.1c0.4-0.3,0.9-0.5,1.6-0.5c0.9,0,1.6,0.2,1.9,0.6c0.4,0.4,0.6,1.3,0.6,2.8    L153.4,137.1L153.4,137.1z M205.4,126.4l-6.9,9.4c-3.2,4.5-5.7,6.7-7.4,6.7c-0.8,0-1.5-0.5-2.1-1.4c-0.6-0.9-1.3-2.3-1.9-4.2    c-0.7-1.9-1.1-3.3-1.4-4.3c-0.6-2.2-1-3.5-1.2-3.8l-1.1,5.4c-0.3,1.7-0.7,3.4-1,4.8c-0.3,1.5-0.7,3.2-1.1,5.3    c-0.4,2.1-0.7,3.6-0.8,4.6c0,0.3-0.4,0.7-1,1.1c-0.6,0.4-1.1,0.6-1.4,0.6c-0.7,0-1.3-0.3-1.9-0.9c-0.6-0.6-0.9-1.2-0.9-1.8    c0-1.3,0.3-3,0.8-5.1c2.3-8.4,3.6-13.7,3.9-15.9c0.3-2.2,0.5-4,0.5-5.4c0-0.8,0.3-1.3,1-1.7c0.7-0.4,1.5-0.6,2.6-0.6    c0.6,0,1.1,0.4,1.7,1.1c0.6,0.7,0.9,1.4,1.1,2.1l0,0l2.9,8.1c1.2,3.2,1.9,5.3,2.3,6.2c1.5-1.6,3.7-4.5,6.7-8.5c3-4,5-6.6,6-7.7    c1.1-1.2,1.8-1.7,2.3-1.7c0.7,0,1.4,0.3,2.3,0.9c0.8,0.6,1.2,1.1,1.2,1.5c0,0.3-0.3,2.4-0.8,6.3c-0.4,2.7-0.7,5.8-1,9.2    c-0.3,3.4-0.5,5.4-0.5,6c0,0.8,0.1,1.5,0.3,2.3c0.1,0.6,0.2,1.2,0.2,1.7c0,1.4-0.2,2.3-0.7,2.8c-0.5,0.5-1.2,0.8-2.2,0.8    c-1.8,0-2.7-1.4-2.7-4.1c0-2.6,0.2-5.7,0.7-9.5c0.5-3.7,0.9-6.6,1.3-8.6C205.3,127.2,205.4,126.7,205.4,126.4L205.4,126.4z     M230,142.4c-3.7,4.8-7.2,7.2-10.6,7.2c-1.3,0-2.3-0.5-3.2-1.5c-0.9-1-1.4-2.2-1.4-3.8c0-3.7,1.6-7.6,4.9-11.8    c3.3-4.2,6.6-6.2,9.9-6.2c1.7,0,2.8,0.9,3.3,2.6c1.6,0,2.4,0.6,2.4,1.8c0,0.6-0.2,1.6-0.5,3.2c-0.6,2.9-0.8,5.1-0.8,6.9    c0,1.8,0.1,3,0.4,3.7c0.2,0.7,0.4,1.2,0.5,1.4c0.1,0.2,0.4,0.5,1,0.7c0.6,0.3,0.8,0.6,0.8,1.1c0,0.7-0.4,1.3-1.1,1.8    c-0.7,0.5-1.5,0.7-2.2,0.7C231,150.2,229.8,147.6,230,142.4L230,142.4z M228.8,130.8c-1.4,0-3.2,1.5-5.5,4.6    c-2.2,3.1-3.4,5.7-3.4,7.9c0,1.1,0.2,1.7,0.7,1.7c1.6,0,3.7-1.5,6-4.4c2.4-2.9,3.6-5.5,3.6-7.6c0-0.7-0.2-1.2-0.5-1.7    C229.5,131,229.2,130.8,228.8,130.8L228.8,130.8z M245.9,139l0.3-0.7c1.7-3.4,3.5-6.1,5.4-8.2c1.9-2.1,3.8-3.2,5.7-3.2    c1.4,0,2.6,0.4,3.5,1.2c0.9,0.8,1.3,1.7,1.3,2.8c0,0.7-0.2,1.2-0.5,1.7c-0.3,0.5-0.7,0.7-1.3,0.7c-0.9,0-1.6-0.4-2.4-1.1    c-0.5-0.5-0.9-0.7-1.2-0.7c-1,0-2.8,1.6-5.2,4.8c-2.4,3.2-3.9,6.9-4.4,10.9c-0.2,1.2-0.5,2-1,2.4c-0.5,0.5-1.2,0.7-2.1,0.7    c-1,0-1.6-0.5-2-1.6c-0.4-1.1-0.6-2.9-0.6-5.3c0-1,0-2.4,0.1-4.1c0.1-1.6,0.2-3.6,0.5-6c0.1-0.6,0.1-1.1,0.1-1.4    c0.1-1.4,0.3-2.3,0.4-2.8c0.2-0.5,0.5-1,1.1-1.4c0.6-0.4,1.2-0.7,1.9-0.7c0.8,0,1.3,0.2,1.7,0.6c0.4,0.4,0.6,0.9,0.6,1.4    c0,0.7-0.3,2-0.9,4.1c-0.2,0.7-0.4,1.6-0.6,2.5L245.9,139L245.9,139z M272.7,132.5c-0.1,0-0.5,1.5-1.2,4.6c-0.7,3.1-1,5-1,5.6    c0,1.1,0.1,1.9,0.4,2.4c0.2,0.4,0.6,0.7,1.2,0.7c0.8,0,1.5-0.1,2.2-0.4c0.7-0.3,1.7-0.9,2.8-1.8c0.7-0.6,1.3-0.9,1.8-0.9    c0.4,0,0.7,0.1,1,0.3c0.2,0.2,0.4,0.5,0.4,0.8c0,1.2-1,2.6-3,4.2c-2,1.5-4.1,2.3-6.2,2.3c-1.8,0-3.2-0.5-4.2-1.6    c-1-1.1-1.4-2.6-1.4-4.7c0-1.9,0.7-5.6,2.1-11.2c-0.9,0.1-1.5,0.1-1.9,0.1h-0.4c-0.6,0-1.3-0.2-1.9-0.6c-0.7-0.4-1-1.1-1-2    c0-1.2,0.7-1.7,2-1.7l4.5-0.2c0.6-1.7,1.2-3.9,1.8-6.6c0.4-1.7,1.3-2.5,2.6-2.5c0.8,0,1.4,0.2,1.8,0.7c0.4,0.5,0.6,1,0.6,1.5    c0,0.2-0.6,2.4-1.8,6.4c4.4-0.4,6.8-0.6,7.3-0.6c0.7,0,1.2,0.1,1.5,0.3c0.2,0.2,0.3,0.6,0.3,1.2c0,1.2-1,2-3.1,2.4L272.7,132.5    L272.7,132.5z M295.7,118.4c0,1-0.4,1.9-1.3,2.6c-0.9,0.7-1.7,1.1-2.3,1.1c-0.8,0-1.6-0.3-2.2-1c-0.6-0.7-1-1.4-1-2.1    c0-1,0.3-1.8,1-2.4c0.6-0.6,1.6-0.9,2.8-0.9c0.9,0,1.7,0.3,2.3,0.8C295.4,117,295.7,117.7,295.7,118.4L295.7,118.4z M285.6,135.5    L285.6,135.5c0.4-2.5,0.7-4,0.7-4.3c0-1,0.2-1.9,0.7-2.6c0.4-0.7,1.1-1,1.9-1c0.9,0,1.7,0.2,2.2,0.7c0.5,0.4,0.8,0.9,0.8,1.5    c0,0.6-0.3,1.7-0.8,3.4l-0.1,0.5c-0.8,2.7-1.2,4.9-1.4,6.6c-0.2,1.7-0.2,3.1-0.2,4.1c0,0.8,0.1,2,0.4,3.4c0,0.2,0.1,0.5,0.1,0.6    c0,0.3-0.3,0.8-0.9,1.3c-0.6,0.5-1.3,0.8-1.9,0.8c-1.8,0-2.7-1.4-2.7-4.2c0-2.4,0.3-5.2,1-8.6    C285.4,136.9,285.5,136.2,285.6,135.5L285.6,135.5z M313.9,146.3c-0.7-1.3-1.2-3.6-1.5-7c-0.3-3.6-1-5.3-2-5.3    c-1,0-2.7,1.8-5.2,5.6c-2.5,3.7-4,6.4-4.5,8.2c-0.1,0.5-0.4,1-0.7,1.3c-0.3,0.3-0.7,0.5-1,0.5c-2.1,0-3.2-1-3.2-2.9    c0-0.7,0.2-2.1,0.6-4.5c0.5-3,0.8-6.7,0.8-11c0-0.7,0.3-1.4,0.9-2.1c0.6-0.7,1.2-1.1,1.8-1.1c0.8,0,1.4,0.2,1.9,0.6    c0.4,0.4,0.6,1.5,0.6,3.2c0,1.3-0.4,3.9-1.2,7.7c3-7.1,6.4-10.6,10.1-10.6c3.2,0,5.1,2.5,5.7,7.6c0.6,5.2,1.2,7.7,1.9,7.7    c0.3,0,0.7-0.1,1.1-0.2c0.5-0.2,0.9-0.2,1.2-0.2c0.7,0,1,0.4,1,1.2c0,0.7-0.5,1.5-1.4,2.3c-0.9,0.8-2.1,1.2-3.5,1.2    C315.7,148.4,314.6,147.7,313.9,146.3L313.9,146.3L313.9,146.3z M360.1,118c0.6,0,1.2,0.2,1.7,0.6c0.5,0.4,0.7,0.9,0.7,1.4    c0,3.2-0.4,7.6-1.1,13.1c-0.8,5.5-2,9.7-3.8,12.4c-1.8,2.8-4.3,4.1-7.5,4.1c-2.5,0-4.9-0.9-7.5-2.6c-2.5-1.7-3.8-3.2-3.8-4.5    c0-0.7,0.3-1.3,0.8-1.7c0.5-0.4,1.2-0.6,2-0.6c0.7,0,1.5,0.4,2.2,1.2c2.3,2.4,4.4,3.6,6.3,3.6c1.5,0,2.7-0.9,3.7-2.6    c1-1.7,1.9-4.9,2.5-9.3c0.7-4.5,1-8.7,1-12.7c0-0.6,0.3-1.1,1-1.6C358.9,118.2,359.5,118,360.1,118L360.1,118z M380.8,142.4    c-3.7,4.8-7.2,7.2-10.6,7.2c-1.3,0-2.3-0.5-3.2-1.5c-0.9-1-1.4-2.2-1.4-3.8c0-3.7,1.6-7.6,4.9-11.8c3.3-4.2,6.6-6.2,9.9-6.2    c1.7,0,2.8,0.9,3.3,2.6c1.6,0,2.4,0.6,2.4,1.8c0,0.6-0.2,1.6-0.5,3.2c-0.6,2.9-0.8,5.1-0.8,6.9c0,1.8,0.1,3,0.4,3.7    c0.2,0.7,0.4,1.2,0.5,1.4c0.1,0.2,0.4,0.5,1,0.7c0.6,0.3,0.8,0.6,0.8,1.1c0,0.7-0.4,1.3-1.1,1.8c-0.7,0.5-1.5,0.7-2.2,0.7    C381.8,150.2,380.6,147.6,380.8,142.4L380.8,142.4z M379.6,130.8c-1.4,0-3.2,1.5-5.5,4.6c-2.2,3.1-3.4,5.7-3.4,7.9    c0,1.1,0.2,1.7,0.7,1.7c1.6,0,3.7-1.5,6-4.4c2.4-2.9,3.6-5.5,3.6-7.6c0-0.7-0.2-1.2-0.5-1.7C380.3,131,380,130.8,379.6,130.8    L379.6,130.8z M409,146.3c-0.7-1.3-1.2-3.6-1.5-7c-0.3-3.6-1-5.3-2-5.3c-1,0-2.7,1.8-5.2,5.6c-2.5,3.7-4,6.4-4.5,8.2    c-0.1,0.5-0.4,1-0.7,1.3c-0.3,0.3-0.7,0.5-1,0.5c-2.1,0-3.2-1-3.2-2.9c0-0.7,0.2-2.1,0.6-4.5c0.5-3,0.8-6.7,0.8-11    c0-0.7,0.3-1.4,0.9-2.1c0.6-0.7,1.2-1.1,1.8-1.1c0.8,0,1.4,0.2,1.9,0.6c0.4,0.4,0.6,1.5,0.6,3.2c0,1.3-0.4,3.9-1.2,7.7    c3-7.1,6.4-10.6,10.1-10.6c3.2,0,5.1,2.5,5.7,7.6c0.6,5.2,1.2,7.7,1.9,7.7c0.3,0,0.7-0.1,1.1-0.2c0.5-0.2,0.9-0.2,1.2-0.2    c0.7,0,1,0.4,1,1.2c0,0.7-0.5,1.5-1.4,2.3c-0.9,0.8-2.1,1.2-3.5,1.2C410.8,148.4,409.7,147.7,409,146.3L409,146.3L409,146.3z     M428.2,132.5c-0.1,0-0.5,1.5-1.2,4.6c-0.7,3.1-1,5-1,5.6c0,1.1,0.1,1.9,0.4,2.4c0.2,0.4,0.6,0.7,1.2,0.7c0.8,0,1.5-0.1,2.2-0.4    c0.7-0.3,1.7-0.9,2.8-1.8c0.7-0.6,1.3-0.9,1.8-0.9c0.4,0,0.7,0.1,1,0.3c0.2,0.2,0.4,0.5,0.4,0.8c0,1.2-1,2.6-3,4.2    c-2,1.5-4.1,2.3-6.2,2.3c-1.8,0-3.2-0.5-4.2-1.6c-1-1.1-1.4-2.6-1.4-4.7c0-1.9,0.7-5.6,2.1-11.2c-0.9,0.1-1.5,0.1-1.9,0.1h-0.4    c-0.6,0-1.3-0.2-1.9-0.6c-0.7-0.4-1-1.1-1-2c0-1.2,0.7-1.7,2-1.7l4.5-0.2c0.6-1.7,1.2-3.9,1.8-6.6c0.4-1.7,1.3-2.5,2.6-2.5    c0.8,0,1.4,0.2,1.8,0.7c0.4,0.5,0.6,1,0.6,1.5c0,0.2-0.6,2.4-1.8,6.4c4.4-0.4,6.8-0.6,7.3-0.6c0.7,0,1.2,0.1,1.5,0.3    c0.2,0.2,0.3,0.6,0.3,1.2c0,1.2-1,2-3.1,2.4L428.2,132.5L428.2,132.5z M459.3,138.8c-0.9,3.2-2.7,6-5.3,8.2    c-2.6,2.2-5.2,3.3-7.8,3.3c-2.1,0-3.8-0.8-5.1-2.3c-1.3-1.5-2-3.4-2-5.6c0-3.6,1.2-7.1,3.7-10.6c2.4-3.5,5.4-5.2,8.9-5.2    c2.4,0,4.3,0.9,5.8,2.6c1.5,1.8,2.2,3.8,2.2,6.3C459.7,136.7,459.6,137.8,459.3,138.8L459.3,138.8L459.3,138.8z M448.5,132.2    c-1,0.9-1.9,2.2-2.9,4.1c-0.9,1.9-1.4,3.8-1.4,5.7c0,1.2,0.2,2.1,0.6,2.9c0.4,0.8,1,1.1,1.7,1.1c1.7,0,3.5-1,5.4-3.1    c1.9-2,2.8-4.3,2.8-6.9c0-1.4-0.3-2.6-0.9-3.5c-0.6-0.9-1.5-1.4-2.5-1.4C450.3,131.2,449.3,131.5,448.5,132.2L448.5,132.2    L448.5,132.2z M473.5,144.1c-0.1-0.8-1.3-1.7-3.6-2.8c-2.9-1.4-4.7-2.6-5.5-3.5c-0.8-1-1.2-2.1-1.2-3.2c0-2.5,1.4-4.6,4.1-6.4    c2.8-1.8,5.3-2.8,7.7-2.8c2.3,0,3.5,1,3.5,3.1c0,0.5-0.3,1-0.8,1.5c-0.5,0.4-1,0.6-1.4,0.6c-0.1,0-0.4-0.1-0.8-0.3    c-0.4-0.2-0.7-0.3-0.9-0.3c-1.2,0-2.6,0.4-4.1,1.2c-1.5,0.8-2.2,1.8-2.2,2.9c0,0.5,0.3,1.1,0.8,1.6c0.5,0.5,1.6,1.1,3.2,1.9    c2.4,1.1,4,2.2,4.7,3.1c0.8,0.9,1.2,1.9,1.2,3c0,2-1.4,3.7-4.1,5.1c-2.7,1.4-5.8,2-9.2,2c-2.5,0-3.8-0.9-3.8-2.7    c0-0.7,0.3-1.2,0.8-1.7c0.5-0.5,1.1-0.7,1.8-0.7c0.3,0,0.7,0.1,1.2,0.3c0.6,0.2,1.1,0.3,1.5,0.3c1.3,0,2.7-0.2,4.1-0.6    C472.1,145.2,473,144.7,473.5,144.1L473.5,144.1z M487.8,150.5c-2.3,0-4-0.6-5.2-1.9c-1.2-1.2-1.8-3-1.8-5.2    c0-3.5,1.4-7.3,4.3-11.4c2.8-4.1,5.6-6.1,8.4-6.1c1.3,0,2.4,0.7,3.4,2c0.9,1.3,1.4,2.7,1.4,4.1c0,1.3-0.2,2.2-0.7,2.7    c-0.5,0.5-1,0.7-1.4,0.7c-1.4,0-2.1-0.9-2.4-2.8c-0.2-1.4-0.5-2-1-2c-1.1,0-2.5,1.5-4.3,4.6c-1.8,3.1-2.7,5.8-2.7,8.1    c0,1.9,1,2.8,3,2.8c2.2,0,4.5-0.8,6.8-2.4c1.1-0.8,1.9-1.1,2.5-1.1c0.8,0,1.1,0.4,1.1,1.1c0,1.1-1.2,2.5-3.7,4.2    C493.1,149.7,490.5,150.5,487.8,150.5L487.8,150.5z M517.5,142.4c-3.7,4.8-7.2,7.2-10.6,7.2c-1.3,0-2.3-0.5-3.2-1.5    c-0.9-1-1.4-2.2-1.4-3.8c0-3.7,1.6-7.6,4.9-11.8c3.3-4.2,6.6-6.2,9.9-6.2c1.7,0,2.8,0.9,3.3,2.6c1.6,0,2.4,0.6,2.4,1.8    c0,0.6-0.2,1.6-0.5,3.2c-0.6,2.9-0.8,5.1-0.8,6.9c0,1.8,0.1,3,0.4,3.7c0.2,0.7,0.4,1.2,0.5,1.4c0.1,0.2,0.4,0.5,1,0.7    c0.6,0.3,0.8,0.6,0.8,1.1c0,0.7-0.4,1.3-1.1,1.8c-0.7,0.5-1.5,0.7-2.2,0.7C518.4,150.2,517.2,147.6,517.5,142.4L517.5,142.4z     M516.2,130.8c-1.4,0-3.2,1.5-5.5,4.6c-2.2,3.1-3.4,5.7-3.4,7.9c0,1.1,0.2,1.7,0.7,1.7c1.6,0,3.7-1.5,6-4.4    c2.4-2.9,3.6-5.5,3.6-7.6c0-0.7-0.2-1.2-0.5-1.7C517,131,516.6,130.8,516.2,130.8z"/>
        <path fill-rule="evenodd" clip-rule="evenodd" fill="#00642C" d="M98.1,59.9H79.2v0.8v0.8h18.9v0.9H79.2v1.2h18.9v0.7    c-6.1,0.2-12.6,0.4-18.6,0.6c-3.9,0.1-5.1,0.4-8.7-2.5c-1.5-1.2-0.8-1-2.8-1c-10.4,0.2-20.8,0.5-31.2,0.8    c-4.2,0.1-3.2,0.1-6.9,1.2c-12.3,3.6-12.3-9,0-5.4c3.7,1.1,2.7,1.1,6.9,1.2c10.4,0.3,20.8,0.6,31.2,0.8c2,0,1.3,0.2,2.8-1    c3.6-2.8,4.8-2.6,8.7-2.5c6,0.2,12.6,0.4,18.6,0.6v0.7H79.2V59h18.9V59.9z"/>
        <path fill-rule="evenodd" clip-rule="evenodd" fill="#00642C" d="M87.2,82.6c-0.6-19.3-0.4-33.7,0.6-43    c-7.6,5.7-6.8,26.8-6.9,37.7c0,2.4-0.1,2.3,1.1,3.5c1.2,1.1,0.9,1.2,0.9,2.9c0.4,9.8,0,17.3-1.3,22.5c-0.8,3.3-4.2,7.1,1.1,8.8    c3.6,1.1,4.5-2.5,4.9-5.8C88.6,100.5,87.4,91.2,87.2,82.6z"/>
        <path fill-rule="evenodd" clip-rule="evenodd" fill="#00642C" d="M49.6-0.2c20,0,37.4,11.4,46,28.1H80.2    c-7.1-9.2-18.1-15.1-30.6-15.1C28.3,12.8,11,30.1,11,51.5s17.3,38.6,38.6,38.6c10.8,0,20.5-4.4,27.5-11.5v16.6    c-8,5-17.4,7.9-27.5,7.9C21.1,103.1-2,80-2,51.5S21.1-0.2,49.6-0.2z"/>
        <path fill-rule="evenodd" clip-rule="evenodd" fill="#00642C" d="M113,98.4c-6.6-4.8-9.2-12.1-8.6-21.3c0.8-12.4,4.8-20.9,12-25.4    c13.9-8.7,28.1,4.8,20.8,17.5c-4.2,7.3-13.3,10.9-21.6,7.6c-3.6,12.6,8.9,23.8,21.7,12.7c1.2-1,1.2-1.7,2.8-1.2    c3.1,1.1,3.8,5,1.3,7.7C133.8,104,121.9,104.9,113,98.4L113,98.4z M275.5,45.7c1.2,0.2,2.1,0.7,2.7,1.3c0.6,0.6,0.9,1.4,0.4,2.3    c-0.5,0.9-1.7,2-2.8,3.4c-2.8,3.6-3.1,6.8-1.3,10.9c2.8,6.6,8.1,12.5,11,19.2c1.3,3.1,1.3,5.1,1.2,6.9    c-0.4,6.9-5.6,11.3-12.2,12.5c-3.5,0.6-10.9-0.6-10-5.4c0.2-0.9,0.9-1.4,1.7-1.4c1.8,0,9.3,4.3,10.1-4.1c0.1-1.3-0.3-2.6-1-4.2    c-1.8-4-4.3-8-6.7-12c-1.2-1.9-2.4-3.8-3.5-5.7c-2.3-4-3.4-7.7-2.8-12.4C263.2,51,268.7,44.4,275.5,45.7L275.5,45.7z M219.1,52    c0.9,8.5-1.2,21.8-0.7,31.7c0.5,10.9,1.8,10.4,8,0.8c2.5-3.9,5.4-9.5,7.6-14.2c2.1-4.7,3.5-8.5,4.2-11.5c0.7-2.9,0.7-5,1.2-6.4    c1.2-4,7.5-4.4,10.3-1.7c0.7,0.7,0.9,1.4,0.8,4.4c0,3-0.2,8.2-0.3,13c-0.1,4.8-0.2,9.2,0.1,12.5c0.4,4.2,1.4,7.8,3.6,11.4    c1.5,2.5,3.7,5.3-0.4,6.9c-3.7,1.4-7.1-0.7-9.1-3.7c-1.2-1.9-2.2-4.3-2.8-6.7c-2-8.1-0.5-10-4.9-1.2c-1.2,2.4-2.9,5.4-4.9,8.1    c-2,2.7-4.2,5.2-6,6.7c-5.2,4.3-12.4,2.4-15.5-3.5c-1.2-2.2-2.1-5.2-2.5-7.7c-0.5-2.6-0.5-4.7-0.4-10.8c0.1-5.7,1-16.8,0.6-23.4    C206.8,43.5,218.3,45.3,219.1,52L219.1,52z M379.5,98.4c-6.6-4.8-9.2-12.1-8.6-21.3c0.8-12.4,4.8-20.9,12-25.4    c13.9-8.7,28.1,4.8,20.8,17.5c-4.2,7.3-13.3,10.9-21.6,7.6c-3.6,12.6,8.9,23.8,21.7,12.7c1.2-1,1.2-1.7,2.8-1.2    c3.1,1.1,3.8,5,1.3,7.7C400.3,104,388.4,104.9,379.5,98.4L379.5,98.4z M395.7,65.7c2.9-4.6-1.9-11.5-7.5-7.9    c-3.6,2.3-5.6,6.4-6.1,12.5C388.3,71.8,392.9,70.3,395.7,65.7L395.7,65.7z M463.8,57.6c1.5-0.5,3.1-0.9,4.1-1.8    c4.1-3.6,0-6.6-3.6-7.4c-1.3-0.3-2.4-0.3-4.3,0.2c-7.7,2.2-12.4,4.6-16.3,11.7c-5.5,10.2-3.4,20.8,3.9,29.4    c1.8,2.1,3.4,4.1,5.2,5.6c4.3,3.5,10.9,4.7,16.3,3.3c2.1-0.5,3.4-3.1,2.4-4.8c-1-1.6-4.2-1.5-6.3-1.8c-2.3-0.3-7.4-5.4-8.7-7.2    c-4.1-5.5-6.6-16.2-1.7-22.1C456.9,60.3,460.8,58.5,463.8,57.6L463.8,57.6z M488.9,9.9c1.6,0.6,2.9,2.1,3.5,4.3    c0.6,2.2,0.4,5.1,0.1,8.6c-0.8,10.1-1.6,20.1-1.9,30.2c-0.2,5.3-0.2,9.3,0,11.5c0.4,5.1,1.8-0.3,2.9-2.3c1.4-2.4,4.1-6.4,6.1-8.7    c8.2-9.1,15.5-2.9,18.7,6.8c2.1,6.3,1.8,13,2.6,19.6c0.7,5.4,2.4,10.4,3.2,15.6c0.3,1.9,0.2,2.8-0.5,3.5c-5.2,4.6-8.4-0.4-10.1-4    c-2-4.3-2.8-15.1-3.3-20.2c-0.4-3.6-0.7-6.5-1.1-8.6c-1.3-6.4-3.1-7-6.7-1.2c-1.2,1.9-2.2,4-3.5,7.1c-1.2,3.1-2.6,7.1-3.5,10.4    c-0.9,3.2-1.2,5.7-1.5,8c-0.2,2.3-0.3,4.5-0.6,6.1c-0.3,1.6-0.6,3.1-1.8,3.2c-6.9,0.8-9.4-4.7-9.9-9.1c-0.3-3-0.4-7.9-0.5-16.6    c-0.2-8.7-0.4-21.2-0.5-29.7c-0.1-8.5-0.2-16.3,1-24.8C482.2,15.6,482.6,7.6,488.9,9.9L488.9,9.9z M415.1,54.3    c0-2.2,0.3-3.5,1.2-4.3c0.8-0.8,6.2-1.3,7.5-1c1.1,0.3,3.1,1.4,3.1,3.5c0,2.1,0.1,9.4,0.5,15.4c0.4,6.1,1.2,12.6,1.8,17.8    c0.6,5.2,1,9.1,0.8,11.4c-0.5,5.2-5.7,4.5-9,2c-1.2-0.9-2.5-2.2-3-3.9c-1.9-7.7-1.7-23.4-2.6-32C415.3,60.6,415.1,56.6,415.1,54.3    L415.1,54.3z M418.8,30.3c1.5-0.3,3.1,0,4.6,0.9c7.2,3.8,4.3,11.8-3.1,9.6c-1.5-0.5-3.3-1.4-4.5-2.1    C411.7,35.9,415,31.1,418.8,30.3L418.8,30.3z M309.1,45.7c1.2,0.2,2.1,0.7,2.7,1.3c0.6,0.6,0.9,1.4,0.4,2.3    c-0.5,0.9-1.7,2-2.8,3.4c-2.8,3.6-3.1,6.8-1.3,10.9c2.8,6.6,8.1,12.5,11,19.2c1.3,3.1,1.3,5.1,1.2,6.9    c-0.4,6.9-5.6,11.3-12.2,12.5c-3.5,0.6-10.9-0.6-10-5.4c0.2-0.9,0.9-1.4,1.7-1.4c1.8,0,9.3,4.3,10.1-4.1c0.1-1.3-0.3-2.6-1-4.2    c-2.6-6-6.9-11.9-10.2-17.7c-2.3-4-3.4-7.7-2.8-12.4C296.8,51,302.3,44.4,309.1,45.7L309.1,45.7z M329.8,50c1.6-4.4,8-2.5,9.7,2    c0.7,2.1,0.9,5.1,0.9,7.4c0.1,3.5-0.3,6.5,2.7,2.4c1.3-1.8,3.2-4.6,5.2-7c1.6-2.1,5.5-7.4,8.2-7.6c2.7-0.2,6.6,1.1,8.1,3.4    c1.6,2.6-2.8,6.5-4.4,8.1c-6.1,6.4-10.3,11.3-14.4,19.2c-1.7,3.3-2.9,6.2-3.3,9.7c-0.5,3.5-0.3,7.7-0.4,10.2    c-0.3,4.6-5.4,6.8-8.4,5.1c-0.9-0.5-1.5-1.4-1.9-2.4c-0.4-1-0.6-2-0.6-8.1c-0.1-6.2,0-17.6-0.1-24.4c-0.1-6.9-0.2-9.2-0.4-10.8    C330.5,55.4,329.4,51.3,329.8,50L329.8,50z M160.5,53.7c0,4.2,0.4,6.2,0.8,10.1c0.3,2.4,0.2,5.4,0,8.8c-0.4,4.9-0.6,12.1,3.3,2.7    c3-7.1,4.4-12,6.1-14.3c5.2-10.4,15.6-16.3,18.6-4.6c0.8,3,0.9,4.4,2,7.5c1.4,3.6,2.4,7.5,3.1,11.7c1.1,6.2,1.3,12.6,3.1,18.6    c1,3.3,2.7,4.5-1.2,6.8c-6.8,4-9.2-3.3-10.4-9.3c-1.3-6.9-1.5-15.8-3.7-22.7c-2.3-7.2-3.7-3.6-6.3,2.6c-1.7,4-4.1,8-8.1,17.6    c-1.7,4.1-5.6,10-10.4,10.3c-6.8,0.4-7.4-4.3-7.4-9.3V53.7C150.1,47.1,160.5,47.1,160.5,53.7L160.5,53.7z M129.2,65.7    c2.9-4.6-1.9-11.5-7.5-7.9c-3.6,2.3-5.6,6.4-6.1,12.5C121.8,71.8,126.4,70.3,129.2,65.7z"/>
        <path fill-rule="evenodd" clip-rule="evenodd" fill="#FFFFFF" d="M126.9,33H118c0.1,2,1.4,3,3.8,3c1.5,0,2.8-0.4,4-1.1v3    c-1.3,0.7-2.9,1-4.9,1c-2.2,0-3.9-0.6-5.2-1.8c-1.2-1.2-1.8-2.9-1.8-5.1c0-2.3,0.7-4.1,2-5.4c1.3-1.3,2.9-2,4.9-2    c2,0,3.5,0.6,4.6,1.8c1.1,1.2,1.6,2.8,1.6,4.8V33L126.9,33z M123,30.4c0-2-0.8-2.9-2.4-2.9c-0.7,0-1.3,0.3-1.8,0.8    c-0.5,0.6-0.8,1.3-0.9,2.1H123L123,30.4z M133.4,22.8c-0.7,0-1.3-0.2-1.8-0.6c-0.5-0.4-0.7-0.9-0.7-1.6c0-0.6,0.2-1.2,0.7-1.6    c0.5-0.4,1-0.6,1.8-0.6c0.7,0,1.3,0.2,1.8,0.6c0.5,0.4,0.7,0.9,0.7,1.6c0,0.6-0.2,1.2-0.7,1.6C134.7,22.6,134.1,22.8,133.4,22.8    L133.4,22.8z M135.5,38.6h-4.2V24.9h4.2V38.6L135.5,38.6z M154.1,38.6h-4.2V31c0-2.1-0.8-3.2-2.3-3.2c-0.7,0-1.3,0.3-1.8,0.8    c-0.5,0.6-0.7,1.3-0.7,2.1v7.8h-4.2V24.9h4.2v2.2h0.1c1-1.7,2.5-2.5,4.4-2.5c3,0,4.6,1.9,4.6,5.6V38.6L154.1,38.6z M168.2,21.6    c-0.5-0.2-1.1-0.3-1.6-0.3c-1.4,0-2,0.7-2,2.2v1.5h3.1V28h-3.1v10.6h-4.2V28h-2.3v-3.1h2.3v-1.7c0-1.6,0.5-2.8,1.5-3.8    c1-1,2.4-1.4,4.1-1.4c0.9,0,1.6,0.1,2.1,0.3V21.6L168.2,21.6z M183,38.6h-4v-2h-0.1c-0.9,1.5-2.3,2.3-4.1,2.3    c-1.3,0-2.4-0.4-3.1-1.1c-0.8-0.8-1.1-1.8-1.1-3c0-2.7,1.6-4.2,4.7-4.6l3.7-0.5c0-1.5-0.8-2.2-2.4-2.2c-1.6,0-3.2,0.5-4.7,1.5    v-3.2c0.6-0.3,1.4-0.6,2.4-0.8c1-0.2,2-0.3,2.8-0.3c3.9,0,5.9,1.9,5.9,5.8V38.6L183,38.6z M179,33.1v-0.9l-2.5,0.3    c-1.4,0.2-2.1,0.8-2.1,1.9c0,0.5,0.2,0.9,0.5,1.2c0.3,0.3,0.8,0.5,1.4,0.5c0.8,0,1.4-0.3,1.9-0.8C178.7,34.6,179,33.9,179,33.1    L179,33.1z M198.5,38.1c-1,0.6-2.3,0.8-4.1,0.8c-2.1,0-3.8-0.6-5.1-1.9c-1.3-1.3-2-2.9-2-4.9c0-2.3,0.7-4.2,2.1-5.5    c1.4-1.3,3.3-2,5.6-2c1.6,0,2.8,0.2,3.5,0.6v3.6c-0.9-0.7-1.9-1-3-1c-1.2,0-2.2,0.4-2.9,1.1c-0.7,0.7-1.1,1.7-1.1,2.9    c0,1.2,0.3,2.2,1,2.9c0.7,0.7,1.6,1,2.8,1c1.1,0,2.1-0.3,3.1-1V38.1L198.5,38.1z M216.2,38.6H212v-7.8c0-2-0.7-3-2.2-3    c-0.7,0-1.4,0.3-1.8,0.8c-0.5,0.6-0.7,1.3-0.7,2.1v7.8h-4.2V18.3h4.2V27h0.1c1-1.6,2.4-2.4,4.2-2.4c3.1,0,4.7,1.9,4.7,5.6V38.6    L216.2,38.6z M231.3,38.6h-4.2V18.3h4.2V38.6L231.3,38.6z M249,33h-8.9c0.1,2,1.4,3,3.8,3c1.5,0,2.8-0.4,4-1.1v3    c-1.3,0.7-2.9,1-4.9,1c-2.2,0-3.9-0.6-5.1-1.8c-1.2-1.2-1.8-2.9-1.8-5.1c0-2.3,0.7-4.1,2-5.4c1.3-1.3,2.9-2,4.9-2    c2,0,3.5,0.6,4.6,1.8c1.1,1.2,1.6,2.8,1.6,4.8V33L249,33z M245.1,30.4c0-2-0.8-2.9-2.4-2.9c-0.7,0-1.3,0.3-1.8,0.8    c-0.5,0.6-0.8,1.3-0.9,2.1H245.1L245.1,30.4z M263.7,38.1c-1,0.6-2.3,0.8-4.1,0.8c-2.1,0-3.8-0.6-5.1-1.9c-1.3-1.3-2-2.9-2-4.9    c0-2.3,0.7-4.2,2.1-5.5c1.4-1.3,3.3-2,5.6-2c1.6,0,2.8,0.2,3.5,0.6v3.6c-0.9-0.7-1.9-1-3-1c-1.2,0-2.2,0.4-2.9,1.1    c-0.7,0.7-1.1,1.7-1.1,2.9c0,1.2,0.3,2.2,1,2.9c0.7,0.7,1.6,1,2.8,1c1.1,0,2.1-0.3,3.1-1V38.1L263.7,38.1z M282,38.6H277l-4.4-6.8    h-0.1v6.8h-4.2V18.3h4.2v12.9h0.1l4.1-6.3h5l-4.9,6.4L282,38.6L282,38.6z M297.7,33h-8.9c0.1,2,1.4,3,3.8,3c1.5,0,2.8-0.4,4-1.1v3    c-1.3,0.7-2.9,1-4.9,1c-2.2,0-3.9-0.6-5.1-1.8c-1.2-1.2-1.8-2.9-1.8-5.1c0-2.3,0.7-4.1,2-5.4c1.3-1.3,2.9-2,4.9-2    c2,0,3.5,0.6,4.6,1.8c1.1,1.2,1.6,2.8,1.6,4.8V33L297.7,33z M293.8,30.4c0-2-0.8-2.9-2.4-2.9c-0.7,0-1.3,0.3-1.8,0.8    c-0.5,0.6-0.8,1.3-0.9,2.1H293.8L293.8,30.4z M311,28.7c-0.5-0.3-1.1-0.4-1.8-0.4c-0.9,0-1.6,0.3-2.2,1c-0.5,0.7-0.8,1.6-0.8,2.7    v6.5h-4.2V24.9h4.2v2.5h0.1c0.7-1.9,1.9-2.8,3.6-2.8c0.4,0,0.8,0.1,1,0.2V28.7L311,28.7z M329.5,21.6c-0.5-0.2-1.1-0.3-1.6-0.3    c-1.4,0-2,0.7-2,2.2v1.5h3.1V28h-3.1v10.6h-4.2V28h-2.3v-3.1h2.3v-1.7c0-1.6,0.5-2.8,1.5-3.8c1-1,2.4-1.4,4.1-1.4    c0.9,0,1.6,0.1,2.1,0.3V21.6L329.5,21.6z M345.2,33h-8.9c0.1,2,1.4,3,3.8,3c1.5,0,2.8-0.4,4-1.1v3c-1.3,0.7-2.9,1-4.9,1    c-2.2,0-3.9-0.6-5.1-1.8c-1.2-1.2-1.8-2.9-1.8-5.1c0-2.3,0.7-4.1,2-5.4c1.3-1.3,2.9-2,4.9-2c2,0,3.5,0.6,4.6,1.8    c1.1,1.2,1.6,2.8,1.6,4.8V33L345.2,33z M341.2,30.4c0-2-0.8-2.9-2.4-2.9c-0.7,0-1.3,0.3-1.8,0.8c-0.5,0.6-0.8,1.3-0.9,2.1H341.2    L341.2,30.4z M351.6,22.8c-0.7,0-1.3-0.2-1.8-0.6c-0.5-0.4-0.7-0.9-0.7-1.6c0-0.6,0.2-1.2,0.7-1.6c0.5-0.4,1-0.6,1.8-0.6    c0.7,0,1.3,0.2,1.8,0.6c0.5,0.4,0.7,0.9,0.7,1.6c0,0.6-0.2,1.2-0.7,1.6C352.9,22.6,352.3,22.8,351.6,22.8L351.6,22.8z M353.7,38.6    h-4.2V24.9h4.2V38.6L353.7,38.6z M371.4,33h-8.9c0.1,2,1.4,3,3.8,3c1.5,0,2.8-0.4,4-1.1v3c-1.3,0.7-2.9,1-4.9,1    c-2.2,0-3.9-0.6-5.1-1.8c-1.2-1.2-1.8-2.9-1.8-5.1c0-2.3,0.7-4.1,2-5.4c1.3-1.3,2.9-2,4.9-2c2,0,3.5,0.6,4.6,1.8    c1.1,1.2,1.6,2.8,1.6,4.8V33L371.4,33z M367.5,30.4c0-2-0.8-2.9-2.4-2.9c-0.7,0-1.3,0.3-1.8,0.8c-0.5,0.6-0.8,1.3-0.9,2.1H367.5    L367.5,30.4z M384.6,28.7c-0.5-0.3-1.1-0.4-1.8-0.4c-0.9,0-1.6,0.3-2.2,1c-0.5,0.7-0.8,1.6-0.8,2.7v6.5h-4.2V24.9h4.2v2.5h0.1    c0.7-1.9,1.9-2.8,3.6-2.8c0.4,0,0.8,0.1,1,0.2V28.7L384.6,28.7z M401.7,38.6h-4.2V31c0-2.1-0.8-3.2-2.3-3.2    c-0.7,0-1.3,0.3-1.8,0.8c-0.5,0.6-0.7,1.3-0.7,2.1v7.8h-4.2V24.9h4.2v2.2h0.1c1-1.7,2.5-2.5,4.4-2.5c3,0,4.6,1.9,4.6,5.6V38.6z"/>
	</g>
</switch>
</svg>